<?xml version="1.0" standalone="no"?><!DOCTYPE svg PUBLIC "-//W3C//DTD SVG 1.1//EN" 	"http://www.w3.org/Graphics/SVG/1.1/DTD/svg11.dtd"><svg width="1867" height="982" version="1.1"	xmlns="http://www.w3.org/2000/svg"><title>Krona (snapshot) - Aquatic</title><defs>	<style type="text/css">	text {font-size: 11px; font-family: sans-serif; dominant-baseline:central}	path {stroke-width:0.27499999999999997;}	path.wedge {stroke:none}	path.line {fill:none;stroke:black;}	line {stroke:black;stroke-width:0.27499999999999997;}	line.tick {stroke-width:0.5499999999999999;}	line.pattern {stroke-width:0.18333333333333332;}	circle {fill:none;stroke:black;stroke-width:0.27499999999999997;}	rect {stroke:black;stroke-width:0.27499999999999997;}	.highlight {stroke:black;stroke-width:1.375;}	.searchHighlight {fill:rgb(255, 255, 100);stroke:none;}	</style><pattern id="hiddenPattern" patternUnits="userSpaceOnUse" x="0" y="0" width="6.6" height="6.6"><line class="pattern" x1="0" y1="0" x2="3.3" y2="3.3"/><line class="pattern" x1="3.3" y1="6.6" x2="6.6" y2="3.3"/></pattern></defs><path class="wedge" fill="rgb(210,121,121)" d=" M 858.5,579 L 858.5,883.8 A 392.8,392.8 0 1,1 1131.361807916294,208.44332642697782 L 919.6299366003917,427.6980975701987 A 88,88 0 1 0 858.5,579 Z "/><path class="wedge" fill="rgb(210,121,121)" d=" M 858.5,579 L 858.5,883.8 A 392.8,392.8 0 1,1 1131.361807916294,208.44332642697782 L 919.6299366003917,427.6980975701987 A 88,88 0 1 0 858.5,579 Z "/><path class="wedge" fill="rgb(216,140,140)" d=" M 858.5,678.7581598273823 L 858.5,883.8 A 392.8,392.8 0 1,1 885.9003428866924,99.156841057941 L 871.597347146244,303.699209613265 A 187.75815982738237,187.75815982738237 0 1 0 858.5,678.7581598273823 Z "/><path class="wedge" fill="rgb(223,159,159)" d=" M 858.5,760.5429557945658 L 858.5,883.8 A 392.8,392.8 0 0,1 518.3252213934725,294.60000000000014 L 625.0689528707599,356.22852210271714 A 269.5429557945659,269.5429557945659 0 0 0 858.5,760.5429557945658 Z "/><path class="wedge" fill="rgb(223,176,159)" d=" M 625.0689528707599,356.22852210271714 L 518.3252213934725,294.60000000000014 A 392.8,392.8 0 0,1 885.9003428866924,99.156841057941 L 877.3023661187975,222.11363729856805 A 269.5429557945659,269.5429557945659 0 0 0 625.0689528707599,356.22852210271714 Z "/><path class="wedge" fill="rgb(216,171,140)" d=" M 871.597347146244,303.699209613265 L 885.9003428866924,99.156841057941 A 392.8,392.8 0 0,1 1089.3820471004833,173.2181246095206 L 968.8614773441084,339.1004578670801 A 187.75815982738237,187.75815982738237 0 0 0 871.597347146244,303.699209613265 Z "/><path class="wedge" fill="rgb(223,185,159)" d=" M 877.3023661187975,222.11363729856805 L 885.9003428866924,99.156841057941 A 392.8,392.8 0 0,1 1089.3820471004833,173.2181246095206 L 1016.9333742753678,272.93516804814095 A 269.5429557945659,269.5429557945659 0 0 0 877.3023661187975,222.11363729856805 Z "/><path class="wedge" fill="rgb(216,176,140)" d=" M 968.8614773441084,339.1004578670801 L 1089.3820471004833,173.2181246095206 A 392.8,392.8 0 0,1 1131.361807916294,208.44332642697782 L 988.9277773460694,355.9380827978182 A 187.75815982738237,187.75815982738237 0 0 0 968.8614773441084,339.1004578670801 Z "/><path class="wedge" fill="rgb(223,189,159)" d=" M 1016.9333742753678,272.93516804814095 L 1089.3820471004833,173.2181246095206 A 392.8,392.8 0 0,1 1131.361807916294,208.44332642697782 L 1045.7402704409546,297.1070239960471 A 269.5429557945659,269.5429557945659 0 0 0 1016.9333742753678,272.93516804814095 Z "/><path class="wedge" fill="rgb(200,210,121)" d=" M 919.6299366003917,427.6980975701987 L 1131.361807916294,208.44332642697782 A 392.8,392.8 0 0,1 1211.5463013863127,663.1921864587496 L 937.5938760743267,529.5766609174389 A 88,88 0 0 0 919.6299366003917,427.6980975701987 Z "/><path class="wedge" fill="rgb(200,210,121)" d=" M 919.6299366003917,427.6980975701987 L 1131.361807916294,208.44332642697782 A 392.8,392.8 0 0,1 1211.5463013863127,663.1921864587496 L 937.5938760743267,529.5766609174389 A 88,88 0 0 0 919.6299366003917,427.6980975701987 Z "/><path class="wedge" fill="rgb(200,210,121)" d=" M 919.6299366003917,427.6980975701987 L 1131.361807916294,208.44332642697782 A 392.8,392.8 0 0,1 1211.5463013863127,663.1921864587496 L 937.5938760743267,529.5766609174389 A 88,88 0 0 0 919.6299366003917,427.6980975701987 Z "/><path class="wedge" fill="rgb(208,216,140)" d=" M 988.9277773460694,355.9380827978182 L 1131.361807916294,208.44332642697782 A 392.8,392.8 0 0,1 1198.6747786065275,294.5999999999998 L 1021.1033361783319,397.12092008630873 A 187.75815982738237,187.75815982738237 0 0 0 988.9277773460694,355.9380827978182 Z "/><path class="wedge" fill="rgb(200,216,140)" d=" M 1021.1033361783319,397.12092008630873 L 1198.6747786065275,294.5999999999998 A 392.8,392.8 0 0,1 1239.6321612812114,395.9730794084505 L 1040.6809400539546,445.5771900602542 A 187.75815982738237,187.75815982738237 0 0 0 1021.1033361783319,397.12092008630873 Z "/><path class="wedge" fill="rgb(191,216,140)" d=" M 1040.6809400539546,445.5771900602542 L 1239.6321612812114,395.9730794084505 A 392.8,392.8 0 0,1 1249.1482005006578,449.9412196284657 L 1045.2296009823874,471.3739280872813 A 187.75815982738237,187.75815982738237 0 0 0 1040.6809400539546,445.5771900602542 Z "/><path class="wedge" fill="rgb(187,216,140)" d=" M 1045.2296009823874,471.3739280872813 L 1249.1482005006578,449.9412196284657 A 392.8,392.8 0 0,1 1251.0607168531008,504.7085223047425 L 1046.1437826294712,497.5526652797634 A 187.75815982738237,187.75815982738237 0 0 0 1045.2296009823874,471.3739280872813 Z "/><path class="wedge" fill="rgb(183,216,140)" d=" M 1046.1437826294712,497.5526652797634 L 1251.0607168531008,504.7085223047425 A 392.8,392.8 0 0,1 1245.3324853831955,559.20900418757 L 1043.4056914893115,523.6038622961211 A 187.75815982738237,187.75815982738237 0 0 0 1046.1437826294712,497.5526652797634 Z "/><path class="wedge" fill="rgb(179,216,140)" d=" M 1043.4056914893115,523.6038622961211 L 1245.3324853831955,559.20900418757 A 392.8,392.8 0 0,1 1232.0749996007364,612.3818753904793 L 1037.068621391419,549.0204622192286 A 187.75815982738237,187.75815982738237 0 0 0 1043.4056914893115,523.6038622961211 Z "/><path class="wedge" fill="rgb(175,216,140)" d=" M 1037.068621391419,549.0204622192286 L 1232.0749996007364,612.3818753904793 A 392.8,392.8 0 0,1 1211.5463013863127,663.1921864587496 L 1027.2559161969386,573.3077598425365 A 187.75815982738237,187.75815982738237 0 0 0 1037.068621391419,549.0204622192286 Z "/><path class="wedge" fill="rgb(121,210,133)" d=" M 937.5938760743267,529.5766609174389 L 1211.5463013863127,663.1921864587496 A 392.8,392.8 0 0,1 1110.9869730848727,791.9022572571345 L 915.0653096524155,558.4119109944701 A 88,88 0 0 0 937.5938760743267,529.5766609174389 Z "/><path class="wedge" fill="rgb(121,210,133)" d=" M 937.5938760743267,529.5766609174389 L 1211.5463013863127,663.1921864587496 A 392.8,392.8 0 0,1 1110.9869730848727,791.9022572571345 L 915.0653096524155,558.4119109944701 A 88,88 0 0 0 937.5938760743267,529.5766609174389 Z "/><path class="wedge" fill="rgb(121,210,133)" d=" M 937.5938760743267,529.5766609174389 L 1211.5463013863127,663.1921864587496 A 392.8,392.8 0 0,1 1110.9869730848727,791.9022572571345 L 915.0653096524155,558.4119109944701 A 88,88 0 0 0 937.5938760743267,529.5766609174389 Z "/><path class="wedge" fill="rgb(140,216,151)" d=" M 1027.2559161969386,573.3077598425365 L 1211.5463013863127,663.1921864587496 A 392.8,392.8 0 0,1 1110.9869730848727,791.9022572571345 L 979.1886187545864,634.8310949860112 A 187.75815982738237,187.75815982738237 0 0 0 1027.2559161969386,573.3077598425365 Z "/><path class="wedge" fill="rgb(121,201,210)" d=" M 915.0653096524155,558.4119109944701 L 1110.9869730848727,791.9022572571345 A 392.8,392.8 0 0,1 1018.2661534001743,849.8406557620136 L 894.2928245906704,571.3920002725489 A 88,88 0 0 0 915.0653096524155,558.4119109944701 Z "/><path class="wedge" fill="rgb(121,201,210)" d=" M 915.0653096524155,558.4119109944701 L 1110.9869730848727,791.9022572571345 A 392.8,392.8 0 0,1 1018.2661534001743,849.8406557620136 L 894.2928245906704,571.3920002725489 A 88,88 0 0 0 915.0653096524155,558.4119109944701 Z "/><path class="wedge" fill="rgb(121,201,210)" d=" M 915.0653096524155,558.4119109944701 L 1110.9869730848727,791.9022572571345 A 392.8,392.8 0 0,1 1018.2661534001743,849.8406557620136 L 894.2928245906704,571.3920002725489 A 88,88 0 0 0 915.0653096524155,558.4119109944701 Z "/><path class="wedge" fill="rgb(140,209,216)" d=" M 979.1886187545864,634.8310949860112 L 1110.9869730848727,791.9022572571345 A 392.8,392.8 0 0,1 1018.2661534001743,849.8406557620136 L 934.868123638279,662.5256140456386 A 187.75815982738237,187.75815982738237 0 0 0 979.1886187545864,634.8310949860112 Z "/><path class="wedge" fill="rgb(121,124,210)" d=" M 894.2928245906704,571.3920002725489 L 1018.2661534001743,849.8406557620136 A 392.8,392.8 0 0,1 966.7703533649172,868.5835941645717 L 882.756087311896,575.5910292425721 A 88,88 0 0 0 894.2928245906704,571.3920002725489 Z "/><path class="wedge" fill="rgb(121,124,210)" d=" M 894.2928245906704,571.3920002725489 L 1018.2661534001743,849.8406557620136 A 392.8,392.8 0 0,1 966.7703533649172,868.5835941645717 L 882.756087311896,575.5910292425721 A 88,88 0 0 0 894.2928245906704,571.3920002725489 Z "/><path class="wedge" fill="rgb(121,124,210)" d=" M 894.2928245906704,571.3920002725489 L 1018.2661534001743,849.8406557620136 A 392.8,392.8 0 0,1 966.7703533649172,868.5835941645717 L 882.756087311896,575.5910292425721 A 88,88 0 0 0 894.2928245906704,571.3920002725489 Z "/><path class="wedge" fill="rgb(140,143,216)" d=" M 934.868123638279,662.5256140456386 L 1018.2661534001743,849.8406557620136 A 392.8,392.8 0 0,1 966.7703533649172,868.5835941645717 L 910.2531627078852,671.4847271419276 A 187.75815982738237,187.75815982738237 0 0 0 934.868123638279,662.5256140456386 Z "/><path class="wedge" fill="rgb(184,121,210)" d=" M 882.756087311896,575.5910292425721 L 966.7703533649172,868.5835941645717 A 392.8,392.8 0 0,1 913.1671940571139,879.9772974016888 L 870.7472328844858,578.1435900492581 A 88,88 0 0 0 882.756087311896,575.5910292425721 Z "/><path class="wedge" fill="rgb(184,121,210)" d=" M 882.756087311896,575.5910292425721 L 966.7703533649172,868.5835941645717 A 392.8,392.8 0 0,1 913.1671940571139,879.9772974016888 L 870.7472328844858,578.1435900492581 A 88,88 0 0 0 882.756087311896,575.5910292425721 Z "/><path class="wedge" fill="rgb(184,121,210)" d=" M 882.756087311896,575.5910292425721 L 966.7703533649172,868.5835941645717 A 392.8,392.8 0 0,1 913.1671940571139,879.9772974016888 L 870.7472328844858,578.1435900492581 A 88,88 0 0 0 882.756087311896,575.5910292425721 Z "/><path class="wedge" fill="rgb(194,140,216)" d=" M 910.2531627078852,671.4847271419276 L 966.7703533649172,868.5835941645717 A 392.8,392.8 0 0,1 913.1671940571139,879.9772974016888 L 884.6308853337325,676.930910322733 A 187.75815982738237,187.75815982738237 0 0 0 910.2531627078852,671.4847271419276 Z "/><path class="wedge" fill="rgb(210,121,181)" d=" M 870.7472328844858,578.1435900492581 L 913.1671940571139,879.9772974016888 A 392.8,392.8 0 0,1 858.5000000000001,883.8 L 858.5,579 A 88,88 0 0 0 870.7472328844858,578.1435900492581 Z "/><path class="wedge" fill="rgb(210,121,181)" d=" M 870.7472328844858,578.1435900492581 L 913.1671940571139,879.9772974016888 A 392.8,392.8 0 0,1 858.5000000000001,883.8 L 858.5,579 A 88,88 0 0 0 870.7472328844858,578.1435900492581 Z "/><path class="wedge" fill="rgb(210,121,181)" d=" M 870.7472328844858,578.1435900492581 L 913.1671940571139,879.9772974016888 A 392.8,392.8 0 0,1 858.5000000000001,883.8 L 858.5,579 A 88,88 0 0 0 870.7472328844858,578.1435900492581 Z "/><path class="wedge" fill="rgb(216,140,191)" d=" M 884.6308853337325,676.930910322733 L 913.1671940571139,879.9772974016888 A 392.8,392.8 0 0,1 858.5000000000001,883.8 L 858.5000000000001,678.7581598273823 A 187.75815982738237,187.75815982738237 0 0 0 884.6308853337325,676.930910322733 Z "/><circle cx="858.5" cy="491" r="88"/><circle cx="858.5" cy="491" r="392.8"/><text x="858.5" y="491" text-anchor="middle" style="font-color:black;font-weight:bold" transform="rotate(360,858.5,491)">Aquatic</text><line x1="1131.361807916294" y1="208.44332642697782" x2="919.6299366003917" y2="427.6980975701987"/><path class="line" d=" M 919.6299366003917,427.6980975701987 A 88,88 0 1 0 858.5,579"/><text x="858.5" y="353.12092008630884" text-anchor="middle" style="font-color:black;font-weight:normal" transform="rotate(292,858.5,491)">Marine</text><path class="line" d=" M 871.597347146244,303.699209613265 A 187.75815982738237,187.75815982738237 0 1 0 858.5,678.7581598273823"/><line x1="885.9003428866924" y1="99.156841057941" x2="871.597347146244" y2="303.699209613265"/><text x="858.5" y="271.43664174093516" text-anchor="middle" style="font-color:black;font-weight:normal" transform="rotate(272,858.5,491)">Sediment</text><path class="line" d=" M 625.0689528707599,356.22852210271714 A 269.5429557945659,269.5429557945659 0 0 0 858.5,760.5429557945658"/><line x1="518.3252213934725" y1="294.60000000000014" x2="625.0689528707599" y2="356.22852210271714"/><text x="527.328522102717" y="491" text-anchor="end" style="font-color:black;font-weight:normal" transform="rotate(-30.000000000000014,858.5,491)">marine sediment&#160;&#160;&#160;33%</text><path class="line" d=" M 877.3023661187975,222.11363729856805 A 269.5429557945659,269.5429557945659 0 0 0 625.0689528707599,356.22852210271714"/><text x="527.328522102717" y="491" text-anchor="end" style="font-color:black;font-weight:normal" transform="rotate(62.00000000000001,858.5,491)">hydrothermal vent sediment&#160;&#160;&#160;18%</text><path class="line" d=" M 968.8614773441084,339.1004578670801 A 187.75815982738237,187.75815982738237 0 0 0 871.597347146244,303.699209613265"/><line x1="1089.3820471004833" y1="173.2181246095206" x2="968.8614773441084" y2="339.1004578670801"/><text x="858.5" y="253.26224263711657" text-anchor="middle" style="font-color:black;font-weight:normal" transform="rotate(380,858.5,491)">Microbial mats</text><path class="line" d=" M 1016.9333742753678,272.93516804814095 A 269.5429557945659,269.5429557945659 0 0 0 877.3023661187975,222.11363729856805"/><text x="1189.671477897283" y="491" text-anchor="start" style="font-color:black;font-weight:normal" transform="rotate(290,858.5,491)">9%&#160;&#160;&#160;hydrothermal vent microbial mat</text><path class="line" d=" M 988.9277773460694,355.9380827978182 A 187.75815982738237,187.75815982738237 0 0 0 968.8614773441084,339.1004578670801"/><text x="858.5" y="235.08784353329804" text-anchor="middle" style="font-color:black;font-weight:normal" transform="rotate(400,858.5,491)">Tubeworm bush</text><line x1="1101.322156466702" y1="491" x2="1109.022156466702" y2="491" class="tick" transform="rotate(310,858.5,491)"/><path class="line" d=" M 1045.7402704409546,297.1070239960471 A 269.5429557945659,269.5429557945659 0 0 0 1016.9333742753678,272.93516804814095"/><text x="1189.671477897283" y="491" text-anchor="start" style="font-color:black;font-weight:normal" transform="rotate(310,858.5,491)">2%&#160;&#160;&#160;tubeworm bush</text><line x1="1211.5463013863127" y1="663.1921864587496" x2="937.5938760743267" y2="529.5766609174389"/><path class="line" d=" M 937.5938760743267,529.5766609174389 A 88,88 0 0 0 919.6299366003917,427.6980975701987"/><text x="858.5" y="334.9830728449666" text-anchor="middle" style="font-color:black;font-weight:normal" transform="rotate(440,858.5,491)">Sediment</text><path class="line" d=" M 1021.1033361783319,397.12092008630873 A 187.75815982738237,187.75815982738237 0 0 0 988.9277773460694,355.9380827978182"/><line x1="1198.6747786065275" y1="294.5999999999998" x2="1021.1033361783319" y2="397.12092008630873"/><text x="1148.7790799136912" y="491" text-anchor="start" style="font-color:black;font-weight:normal" transform="rotate(322.00000000000006,858.5,491)">4%&#160;&#160;&#160;Sediment</text><path class="line" d=" M 1040.6809400539546,445.5771900602542 A 187.75815982738237,187.75815982738237 0 0 0 1021.1033361783319,397.12092008630873"/><line x1="1239.6321612812114" y1="395.9730794084505" x2="1040.6809400539546" y2="445.5771900602542"/><text x="1148.7790799136912" y="491" text-anchor="start" style="font-color:black;font-weight:normal" transform="rotate(338,858.5,491)">4%&#160;&#160;&#160;sediment</text><path class="line" d=" M 1045.2296009823874,471.3739280872813 A 187.75815982738237,187.75815982738237 0 0 0 1040.6809400539546,445.5771900602542"/><line x1="1249.1482005006578" y1="449.9412196284657" x2="1045.2296009823874" y2="471.3739280872813"/><text x="1148.7790799136912" y="491" text-anchor="start" style="font-color:black;font-weight:normal" transform="rotate(350.00000000000006,858.5,491)">2%&#160;&#160;&#160;marine methanseep sediment</text><path class="line" d=" M 1046.1437826294712,497.5526652797634 A 187.75815982738237,187.75815982738237 0 0 0 1045.2296009823874,471.3739280872813"/><line x1="1251.0607168531008" y1="504.7085223047425" x2="1046.1437826294712" y2="497.5526652797634"/><text x="1148.7790799136912" y="491" text-anchor="start" style="font-color:black;font-weight:normal" transform="rotate(358,858.5,491)">2%&#160;&#160;&#160;methane seep</text><path class="line" d=" M 1043.4056914893115,523.6038622961211 A 187.75815982738237,187.75815982738237 0 0 0 1046.1437826294712,497.5526652797634"/><line x1="1245.3324853831955" y1="559.20900418757" x2="1043.4056914893115" y2="523.6038622961211"/><text x="1148.7790799136912" y="491" text-anchor="start" style="font-color:black;font-weight:normal" transform="rotate(366.00000000000006,858.5,491)">2%&#160;&#160;&#160;marine sediment</text><path class="line" d=" M 1037.068621391419,549.0204622192286 A 187.75815982738237,187.75815982738237 0 0 0 1043.4056914893115,523.6038622961211"/><line x1="1232.0749996007364" y1="612.3818753904793" x2="1037.068621391419" y2="549.0204622192286"/><text x="1148.7790799136912" y="491" text-anchor="start" style="font-color:black;font-weight:normal" transform="rotate(373.99999999999994,858.5,491)">2%&#160;&#160;&#160;methane seep sediment</text><path class="line" d=" M 1027.2559161969386,573.3077598425365 A 187.75815982738237,187.75815982738237 0 0 0 1037.068621391419,549.0204622192286"/><text x="1148.7790799136912" y="491" text-anchor="start" style="font-color:black;font-weight:normal" transform="rotate(382,858.5,491)">2%&#160;&#160;&#160;Marine sediment</text><line x1="1110.9869730848727" y1="791.9022572571345" x2="915.0653096524155" y2="558.4119109944701"/><path class="line" d=" M 915.0653096524155,558.4119109944701 A 88,88 0 0 0 937.5938760743267,529.5766609174389"/><text x="858.5" y="665.1547743963756" text-anchor="middle" style="font-color:black;font-weight:normal" transform="rotate(307.99999999999994,858.5,491)">Unclassified</text><path class="line" d=" M 979.1886187545864,634.8310949860112 A 187.75815982738237,187.75815982738237 0 0 0 1027.2559161969386,573.3077598425365"/><text x="1148.7790799136912" y="491" text-anchor="start" style="font-color:black;font-weight:normal" transform="rotate(397.99999999999994,858.5,491)">7%&#160;&#160;&#160;Marine</text><line x1="1018.2661534001743" y1="849.8406557620136" x2="894.2928245906704" y2="571.3920002725489"/><path class="line" d=" M 894.2928245906704,571.3920002725489 A 88,88 0 0 0 915.0653096524155,558.4119109944701"/><text x="858.5" y="592.6033854310067" text-anchor="middle" style="font-color:black;font-weight:normal" transform="rotate(328,858.5,491)">Unclassified</text><line x1="965.4933854310067" y1="491" x2="973.1933854310067" y2="491" class="tick" transform="rotate(418.00000000000006,858.5,491)"/><path class="line" d=" M 934.868123638279,662.5256140456386 A 187.75815982738237,187.75815982738237 0 0 0 979.1886187545864,634.8310949860112"/><text x="1148.7790799136912" y="491" text-anchor="start" style="font-color:black;font-weight:normal" transform="rotate(418.00000000000006,858.5,491)">4%&#160;&#160;&#160;Marine sediment</text><line x1="966.7703533649172" y1="868.5835941645717" x2="882.756087311896" y2="575.5910292425721"/><path class="line" d=" M 882.756087311896,575.5910292425721 A 88,88 0 0 0 894.2928245906704,571.3920002725489"/><text x="858.5" y="610.7412326723489" text-anchor="middle" style="font-color:black;font-weight:normal" transform="rotate(340,858.5,491)">Unclassified</text><line x1="983.6312326723489" y1="491" x2="991.331232672349" y2="491" class="tick" transform="rotate(430,858.5,491)"/><path class="line" d=" M 910.2531627078852,671.4847271419276 A 187.75815982738237,187.75815982738237 0 0 0 934.868123638279,662.5256140456386"/><text x="1148.7790799136912" y="491" text-anchor="start" style="font-color:black;font-weight:normal" transform="rotate(430,858.5,491)">2%&#160;&#160;&#160;Saline lake</text><line x1="913.1671940571139" y1="879.9772974016888" x2="870.7472328844858" y2="578.1435900492581"/><path class="line" d=" M 870.7472328844858,578.1435900492581 A 88,88 0 0 0 882.756087311896,575.5910292425721"/><text x="858.5" y="628.8790799136912" text-anchor="middle" style="font-color:black;font-weight:normal" transform="rotate(348.00000000000006,858.5,491)">Sediment</text><line x1="1001.7690799136911" y1="491" x2="1009.4690799136912" y2="491" class="tick" transform="rotate(438.00000000000006,858.5,491)"/><path class="line" d=" M 884.6308853337325,676.930910322733 A 187.75815982738237,187.75815982738237 0 0 0 910.2531627078852,671.4847271419276"/><text x="1148.7790799136912" y="491" text-anchor="start" style="font-color:black;font-weight:normal" transform="rotate(438.00000000000006,858.5,491)">2%&#160;&#160;&#160;Sediment</text><line x1="858.5000000000001" y1="883.8" x2="858.5" y2="579"/><path class="line" d=" M 858.5,579 A 88,88 0 0 0 870.7472328844858,578.1435900492581"/><text x="858.5" y="647.0169271550334" text-anchor="middle" style="font-color:black;font-weight:normal" transform="rotate(356,858.5,491)">Unclassified</text><line x1="1003.7369271550334" y1="491" x2="1011.4369271550335" y2="491" class="tick" transform="rotate(446,858.5,491)"/><path class="line" d=" M 858.5000000000001,678.7581598273823 A 187.75815982738237,187.75815982738237 0 0 0 884.6308853337325,676.930910322733"/><text x="1148.7790799136912" y="491" text-anchor="start" style="font-color:black;font-weight:normal" transform="rotate(446,858.5,491)">2%&#160;&#160;&#160;marine</text></svg>