<?xml version="1.0" standalone="no"?><!DOCTYPE svg PUBLIC "-//W3C//DTD SVG 1.1//EN" 	"http://www.w3.org/Graphics/SVG/1.1/DTD/svg11.dtd"><svg width="1867" height="982" version="1.1"	xmlns="http://www.w3.org/2000/svg"><title>Krona (snapshot) - Archaea</title><defs>	<style type="text/css">	text {font-size: 11px; font-family: sans-serif; dominant-baseline:central}	path {stroke-width:0.27499999999999997;}	path.wedge {stroke:none}	path.line {fill:none;stroke:black;}	line {stroke:black;stroke-width:0.27499999999999997;}	line.tick {stroke-width:0.5499999999999999;}	line.pattern {stroke-width:0.18333333333333332;}	circle {fill:none;stroke:black;stroke-width:0.27499999999999997;}	rect {stroke:black;stroke-width:0.27499999999999997;}	.highlight {stroke:black;stroke-width:1.375;}	.searchHighlight {fill:rgb(255, 255, 100);stroke:none;}	</style><pattern id="hiddenPattern" patternUnits="userSpaceOnUse" x="0" y="0" width="6.6" height="6.6"><line class="pattern" x1="0" y1="0" x2="3.3" y2="3.3"/><line class="pattern" x1="3.3" y1="6.6" x2="6.6" y2="3.3"/></pattern></defs><path class="wedge" fill="rgb(208,114,114)" d=" M 858.5,579 L 858.5,883.8 A 392.8,392.8 0 1,1 915.6921386863099,879.6140749799033 L 871.3129027606805,578.0622163906097 A 88,88 0 1 0 858.5,579 Z "/><path class="wedge" fill="rgb(208,114,114)" d=" M 979.7599258831558,591.913278888977 L 1160.4245965050075,742.2635628683325 A 392.8,392.8 0 0,1 915.6921386863099,879.6140749799033 L 881.4696903746168,647.0764325752198 A 157.75759722217143,157.75759722217143 0 0 0 979.7599258831558,591.913278888977 Z "/><path class="wedge" fill="rgb(212,127,127)" d=" M 858.5,648.7575972221714 L 858.5,883.8 A 392.8,392.8 0 1,1 1160.4245965050075,742.2635628683325 L 979.7599258831558,591.913278888977 A 157.75759722217143,157.75759722217143 0 1 0 858.5,648.7575972221714 Z "/><path class="wedge" fill="rgb(212,127,127)" d=" M 753.3010956200139,303.55558473757424 L 666.2566693798055,148.45899248111238 A 392.8,392.8 0 0,1 1160.4245965050075,742.2635628683325 L 1023.7184065643713,628.4958051292921 A 214.94701276319745,214.94701276319745 0 0 0 753.3010956200139,303.55558473757424 Z "/><path class="wedge" fill="rgb(216,140,140)" d=" M 858.5,705.9470127631974 L 858.5,883.8 A 392.8,392.8 0 0,1 472.2339621413857,419.6530449352774 L 647.1284853116465,451.9577014742561 A 214.94701276319745,214.94701276319745 0 0 0 858.5,705.9470127631974 Z "/><path class="wedge" fill="rgb(216,140,140)" d=" M 747.0050230164951,728.8403513631191 L 691.7734086815799,846.6600676873081 A 392.8,392.8 0 0,1 472.2339621413857,419.6530449352774 L 600.192535905652,443.28819200416564 A 262.67691681814034,262.67691681814034 0 0 0 747.0050230164951,728.8403513631191 Z "/><path class="wedge" fill="rgb(221,153,153)" d=" M 858.5,753.6769168181404 L 858.5,883.8 A 392.8,392.8 0 0,1 745.3346737693347,867.1455156440219 L 782.8230168406564,742.5395731271417 A 262.67691681814034,262.67691681814034 0 0 0 858.5,753.6769168181404 Z "/><path class="wedge" fill="rgb(221,153,153)" d=" M 858.5,753.6769168181404 L 858.5,883.8 A 392.8,392.8 0 0,1 745.3346737693347,867.1455156440219 L 782.8230168406564,742.5395731271417 A 262.67691681814034,262.67691681814034 0 0 0 858.5,753.6769168181404 Z "/><path class="wedge" fill="rgb(225,165,165)" d=" M 858.5,794.1107449422411 L 858.5,883.8 A 392.8,392.8 0 0,1 745.3346737693347,867.1455156440219 L 771.1740673742141,781.2590311953738 A 303.11074494224107,303.11074494224107 0 0 0 858.5,794.1107449422411 Z "/><path class="wedge" fill="rgb(221,154,153)" d=" M 782.8230168406564,742.5395731271417 L 745.3346737693347,867.1455156440219 A 392.8,392.8 0 0,1 691.7734086815799,846.6600676873081 L 747.0050230164951,728.8403513631191 A 262.67691681814034,262.67691681814034 0 0 0 782.8230168406564,742.5395731271417 Z "/><path class="wedge" fill="rgb(216,151,140)" d=" M 647.1284853116465,451.9577014742561 L 472.2339621413857,419.6530449352774 A 392.8,392.8 0 0,1 666.2566693798055,148.45899248111238 L 753.3010956200139,303.55558473757424 A 214.94701276319745,214.94701276319745 0 0 0 647.1284853116465,451.9577014742561 Z "/><path class="wedge" fill="rgb(216,151,140)" d=" M 647.1284853116465,451.9577014742561 L 472.2339621413857,419.6530449352774 A 392.8,392.8 0 0,1 666.2566693798055,148.45899248111238 L 753.3010956200139,303.55558473757424 A 214.94701276319745,214.94701276319745 0 0 0 647.1284853116465,451.9577014742561 Z "/><path class="wedge" fill="rgb(216,151,140)" d=" M 647.1284853116465,451.9577014742561 L 472.2339621413857,419.6530449352774 A 392.8,392.8 0 0,1 666.2566693798055,148.45899248111238 L 753.3010956200139,303.55558473757424 A 214.94701276319745,214.94701276319745 0 0 0 647.1284853116465,451.9577014742561 Z "/><path class="wedge" fill="rgb(216,151,140)" d=" M 697.9587731404852,283.0921427470188 L 618.4309651023646,180.10017934498916 A 392.8,392.8 0 0,1 666.2566693798055,148.45899248111238 L 729.9412287012142,261.93275015570055 A 262.67691681814034,262.67691681814034 0 0 0 697.9587731404852,283.0921427470188 Z "/><path class="wedge" fill="rgb(221,162,153)" d=" M 600.192535905652,443.28819200416564 L 472.2339621413857,419.6530449352774 A 392.8,392.8 0 0,1 575.7219155078592,218.367656117335 L 669.3979751065806,308.68273035641187 A 262.67691681814034,262.67691681814034 0 0 0 600.192535905652,443.28819200416564 Z "/><path class="wedge" fill="rgb(221,165,153)" d=" M 669.3979751065806,308.68273035641187 L 575.7219155078592,218.367656117335 A 392.8,392.8 0 0,1 618.4309651023646,180.10017934498916 L 697.9587731404852,283.0921427470188 A 262.67691681814034,262.67691681814034 0 0 0 669.3979751065806,308.68273035641187 Z "/><path class="wedge" fill="rgb(114,208,208)" d=" M 871.3129027606805,578.0622163906097 L 915.6921386863099,879.6140749799033 A 392.8,392.8 0 0,1 858.5000000000001,883.8 L 858.5,579 A 88,88 0 0 0 871.3129027606805,578.0622163906097 Z "/><path class="wedge" fill="rgb(114,208,208)" d=" M 871.3129027606805,578.0622163906097 L 915.6921386863099,879.6140749799033 A 392.8,392.8 0 0,1 858.5000000000001,883.8 L 858.5,579 A 88,88 0 0 0 871.3129027606805,578.0622163906097 Z "/><path class="wedge" fill="rgb(114,208,208)" d=" M 871.3129027606805,578.0622163906097 L 915.6921386863099,879.6140749799033 A 392.8,392.8 0 0,1 858.5000000000001,883.8 L 858.5,579 A 88,88 0 0 0 871.3129027606805,578.0622163906097 Z "/><path class="wedge" fill="rgb(114,208,208)" d=" M 871.3129027606805,578.0622163906097 L 915.6921386863099,879.6140749799033 A 392.8,392.8 0 0,1 858.5000000000001,883.8 L 858.5,579 A 88,88 0 0 0 871.3129027606805,578.0622163906097 Z "/><path class="wedge" fill="rgb(114,208,208)" d=" M 871.3129027606805,578.0622163906097 L 915.6921386863099,879.6140749799033 A 392.8,392.8 0 0,1 858.5000000000001,883.8 L 858.5,579 A 88,88 0 0 0 871.3129027606805,578.0622163906097 Z "/><path class="wedge" fill="rgb(127,212,212)" d=" M 881.4696903746168,647.0764325752198 L 915.6921386863099,879.6140749799033 A 392.8,392.8 0 0,1 858.5000000000001,883.8 L 858.5,648.7575972221714 A 157.75759722217143,157.75759722217143 0 0 0 881.4696903746168,647.0764325752198 Z "/><circle cx="858.5" cy="491" r="88"/><circle cx="858.5" cy="491" r="392.8"/><text x="858.5" y="491" text-anchor="middle" style="font-color:black;font-weight:bold" transform="rotate(360,858.5,491)">Archaea</text><path class="line" d=" M 871.3129027606805,578.0622163906097 A 88,88 0 1 0 858.5,579"/><line x1="915.6921386863099" y1="879.6140749799033" x2="871.3129027606805" y2="578.0622163906097"/><text x="858.5" y="368.1212013889143" text-anchor="middle" style="font-color:black;font-weight:normal" transform="rotate(355.8139534883721,858.5,491)">Euryarchaeota</text><path class="line" d=" M 979.7599258831558,591.913278888977 A 157.75759722217143,157.75759722217143 0 1 0 858.5,648.7575972221714"/><line x1="1160.4245965050075" y1="742.2635628683325" x2="979.7599258831558" y2="591.913278888977"/><text x="583.2212013889143" y="491" text-anchor="end" style="font-color:black;font-weight:normal" transform="rotate(64.88372093023254,858.5,491)">Methanomicrobia&#160;&#160;&#160;86%</text><path class="line" d=" M 647.1284853116465,451.9577014742561 A 214.94701276319745,214.94701276319745 0 0 0 858.5,705.9470127631974"/><line x1="472.2339621413857" y1="419.6530449352774" x2="647.1284853116465" y2="451.9577014742561"/><text x="554.6264936184012" y="491" text-anchor="end" style="font-color:black;font-weight:normal" transform="rotate(-39.767441860465134,858.5,491)">Methanosarcinales&#160;&#160;&#160;28%</text><line x1="745.3346737693347" y1="867.1455156440219" x2="782.8230168406564" y2="742.5395731271417"/><path class="line" d=" M 782.8230168406564,742.5395731271417 A 262.67691681814034,262.67691681814034 0 0 0 858.5,753.6769168181404"/><text x="858.5" y="765.8070652553706" text-anchor="middle" style="font-color:black;font-weight:normal" transform="rotate(8.372093023255816,858.5,491)">unclassified</text><path class="line" d=" M 771.1740673742141,781.2590311953738 A 303.11074494224107,303.11074494224107 0 0 0 858.5,794.1107449422411"/><text x="510.54462752887946" y="491" text-anchor="end" style="font-color:black;font-weight:normal" transform="rotate(-81.62790697674419,858.5,491)">unclassified&#160;&#160;&#160;5%</text><path class="line" d=" M 747.0050230164951,728.8403513631191 A 262.67691681814034,262.67691681814034 0 0 0 782.8230168406564,742.5395731271417"/><line x1="691.7734086815799" y1="846.6600676873081" x2="747.0050230164951" y2="728.8403513631191"/><text x="530.7615415909298" y="491" text-anchor="end" style="font-color:black;font-weight:normal" transform="rotate(-69.06976744186046,858.5,491)">Methanosarcinaceae&#160;&#160;&#160;2%</text><line x1="666.2566693798055" y1="148.45899248111238" x2="753.3010956200139" y2="303.55558473757424"/><path class="line" d=" M 753.3010956200139,303.55558473757424 A 214.94701276319745,214.94701276319745 0 0 0 647.1284853116465,451.9577014742561"/><text x="858.5" y="261.7340160203197" text-anchor="middle" style="font-color:black;font-weight:normal" transform="rotate(305.5813953488372,858.5,491)">Methanothrix</text><path class="line" d=" M 669.3979751065806,308.68273035641187 A 262.67691681814034,262.67691681814034 0 0 0 600.192535905652,443.28819200416564"/><line x1="575.7219155078592" y1="218.367656117335" x2="669.3979751065806" y2="308.68273035641187"/><text x="530.7615415909298" y="491" text-anchor="end" style="font-color:black;font-weight:normal" transform="rotate(27.2093023255814,858.5,491)">Methanothrix harundinacea&#160;&#160;&#160;9%</text><path class="line" d=" M 697.9587731404852,283.0921427470188 A 262.67691681814034,262.67691681814034 0 0 0 669.3979751065806,308.68273035641187"/><line x1="618.4309651023646" y1="180.10017934498916" x2="697.9587731404852" y2="283.0921427470188"/><text x="530.7615415909298" y="491" text-anchor="end" style="font-color:black;font-weight:normal" transform="rotate(48.13953488372093,858.5,491)">Methanothrix thermoacetophila&#160;&#160;&#160;2%</text><line x1="858.5000000000001" y1="883.8" x2="858.5" y2="579"/><path class="line" d=" M 858.5,579 A 88,88 0 0 0 871.3129027606805,578.0622163906097"/><text x="858.5" y="633.8095406745633" text-anchor="middle" style="font-color:black;font-weight:normal" transform="rotate(355.8139534883721,858.5,491)">Methanogaster</text><line x1="990.5295406745632" y1="491" x2="998.2295406745633" y2="491" class="tick" transform="rotate(445.81395348837214,858.5,491)"/><path class="line" d=" M 858.5,648.7575972221714 A 157.75759722217143,157.75759722217143 0 0 0 881.4696903746168,647.0764325752198"/><text x="1133.7787986110857" y="491" text-anchor="start" style="font-color:black;font-weight:normal" transform="rotate(445.81395348837214,858.5,491)">2%&#160;&#160;&#160;Unclassified</text></svg>