<?xml version="1.0" standalone="no"?><!DOCTYPE svg PUBLIC "-//W3C//DTD SVG 1.1//EN" 	"http://www.w3.org/Graphics/SVG/1.1/DTD/svg11.dtd"><svg width="1867" height="982" version="1.1"	xmlns="http://www.w3.org/2000/svg"><title>Krona (snapshot) - all</title><defs>	<style type="text/css">	text {font-size: 11px; font-family: sans-serif; dominant-baseline:central}	path {stroke-width:0.27499999999999997;}	path.wedge {stroke:none}	path.line {fill:none;stroke:black;}	line {stroke:black;stroke-width:0.27499999999999997;}	line.tick {stroke-width:0.5499999999999999;}	line.pattern {stroke-width:0.18333333333333332;}	circle {fill:none;stroke:black;stroke-width:0.27499999999999997;}	rect {stroke:black;stroke-width:0.27499999999999997;}	.highlight {stroke:black;stroke-width:1.375;}	.searchHighlight {fill:rgb(255, 255, 100);stroke:none;}	</style><pattern id="hiddenPattern" patternUnits="userSpaceOnUse" x="0" y="0" width="6.6" height="6.6"><line class="pattern" x1="0" y1="0" x2="3.3" y2="3.3"/><line class="pattern" x1="3.3" y1="6.6" x2="6.6" y2="3.3"/></pattern></defs><path class="wedge" fill="rgb(208,114,114)" d=" M 858.5,579 L 858.5,883.8 A 392.8,392.8 0 1,1 1117.2580782759846,195.4731874653006 L 916.4702415689579,424.7923637905969 A 88,88 0 1 0 858.5,579 Z "/><path class="wedge" fill="rgb(212,127,127)" d=" M 858.5,648.7575972221714 L 858.5,883.8 A 392.8,392.8 0 0,1 672.9257375011853,144.80058766944592 L 783.9690688439675,351.9582804251629 A 157.75759722217143,157.75759722217143 0 0 0 858.5,648.7575972221714 Z "/><path class="wedge" fill="rgb(216,140,140)" d=" M 858.5,705.9470127631974 L 858.5,883.8 A 392.8,392.8 0 0,1 556.2218256610353,741.8380858607849 L 693.0881094763913,628.2629766879179 A 214.94701276319745,214.94701276319745 0 0 0 858.5,705.9470127631974 Z "/><path class="wedge" fill="rgb(216,140,140)" d=" M 858.5,705.9470127631974 L 858.5,883.8 A 392.8,392.8 0 0,1 556.2218256610353,741.8380858607849 L 693.0881094763913,628.2629766879179 A 214.94701276319745,214.94701276319745 0 0 0 858.5,705.9470127631974 Z "/><path class="wedge" fill="rgb(221,153,153)" d=" M 858.5,753.6769168181404 L 858.5,883.8 A 392.8,392.8 0 0,1 665.1119715814814,832.8960521333908 L 729.1757356045944,719.635949202376 A 262.67691681814034,262.67691681814034 0 0 0 858.5,753.6769168181404 Z "/><path class="wedge" fill="rgb(225,165,165)" d=" M 858.5,794.1107449422411 L 858.5,883.8 A 392.8,392.8 0 0,1 741.3678605408697,865.9291958566669 L 768.1130090424251,780.3204375170817 A 303.11074494224107,303.11074494224107 0 0 0 858.5,794.1107449422411 Z "/><path class="wedge" fill="rgb(225,167,165)" d=" M 768.1130090424251,780.3204375170817 L 741.3678605408697,865.9291958566669 A 392.8,392.8 0 0,1 691.5229957840246,846.5425713793752 L 729.6493784721791,765.3604217654846 A 303.11074494224107,303.11074494224107 0 0 0 768.1130090424251,780.3204375170817 Z "/><path class="wedge" fill="rgb(225,169,165)" d=" M 729.6493784721791,765.3604217654846 L 691.5229957840246,846.5425713793752 A 392.8,392.8 0 0,1 670.3103146748848,835.7846898242933 L 713.2802553224501,757.0589210216931 A 303.11074494224107,303.11074494224107 0 0 0 729.6493784721791,765.3604217654846 Z "/><path class="wedge" fill="rgb(225,169,165)" d=" M 713.2802553224501,757.0589210216931 L 670.3103146748848,835.7846898242933 A 392.8,392.8 0 0,1 665.1119715814814,832.8960521333908 L 709.2688661994694,754.8298550279108 A 303.11074494224107,303.11074494224107 0 0 0 713.2802553224501,757.0589210216931 Z "/><path class="wedge" fill="url(#hiddenPattern)" d=" M 713.2802553224501,757.0589210216931 L 670.3103146748848,835.7846898242933 A 392.8,392.8 0 0,1 665.1119715814814,832.8960521333908 L 709.2688661994694,754.8298550279108 A 303.11074494224107,303.11074494224107 0 0 0 713.2802553224501,757.0589210216931 Z "/><path class="wedge" fill="rgb(221,157,153)" d=" M 729.1757356045944,719.635949202376 L 665.1119715814814,832.8960521333908 A 392.8,392.8 0 0,1 563.95471469727,750.8748062162498 L 661.528901714255,664.7859288584424 A 262.67691681814034,262.67691681814034 0 0 0 729.1757356045944,719.635949202376 Z "/><path class="wedge" fill="rgb(221,157,153)" d=" M 729.1757356045944,719.635949202376 L 665.1119715814814,832.8960521333908 A 392.8,392.8 0 0,1 563.95471469727,750.8748062162498 L 661.528901714255,664.7859288584424 A 262.67691681814034,262.67691681814034 0 0 0 729.1757356045944,719.635949202376 Z "/><path class="wedge" fill="rgb(216,148,140)" d=" M 661.528901714255,664.7859288584424 L 563.95471469727,750.8748062162498 A 392.8,392.8 0 0,1 556.2218256610353,741.8380858607849 L 656.3576913014879,658.7428080816571 A 262.67691681814034,262.67691681814034 0 0 0 661.528901714255,664.7859288584424 Z "/><path class="wedge" fill="url(#hiddenPattern)" d=" M 661.528901714255,664.7859288584424 L 563.95471469727,750.8748062162498 A 392.8,392.8 0 0,1 556.2218256610353,741.8380858607849 L 656.3576913014879,658.7428080816571 A 262.67691681814034,262.67691681814034 0 0 0 661.528901714255,664.7859288584424 Z "/><path class="wedge" fill="rgb(216,148,140)" d=" M 693.0881094763913,628.2629766879179 L 556.2218256610353,741.8380858607849 A 392.8,392.8 0 0,1 479.798938658557,595.294516341295 L 651.2681724399298,548.0717788572908 A 214.94701276319745,214.94701276319745 0 0 0 693.0881094763913,628.2629766879179 Z "/><path class="wedge" fill="rgb(216,148,140)" d=" M 693.0881094763913,628.2629766879179 L 556.2218256610353,741.8380858607849 A 392.8,392.8 0 0,1 479.798938658557,595.294516341295 L 651.2681724399298,548.0717788572908 A 214.94701276319745,214.94701276319745 0 0 0 693.0881094763913,628.2629766879179 Z "/><path class="wedge" fill="rgb(216,148,140)" d=" M 693.0881094763913,628.2629766879179 L 556.2218256610353,741.8380858607849 A 392.8,392.8 0 0,1 479.798938658557,595.294516341295 L 651.2681724399298,548.0717788572908 A 214.94701276319745,214.94701276319745 0 0 0 693.0881094763913,628.2629766879179 Z "/><path class="wedge" fill="rgb(221,160,153)" d=" M 656.3576913014879,658.7428080816571 L 556.2218256610353,741.8380858607849 A 392.8,392.8 0 0,1 513.0054740421706,677.8833126129103 L 627.4576454782393,615.9743695568227 A 262.67691681814034,262.67691681814034 0 0 0 656.3576913014879,658.7428080816571 Z "/><path class="wedge" fill="rgb(221,162,153)" d=" M 627.4576454782393,615.9743695568227 L 513.0054740421706,677.8833126129103 A 392.8,392.8 0 0,1 495.17486129165957,640.2872519090803 L 615.5337901261964,590.8327776266044 A 262.67691681814034,262.67691681814034 0 0 0 627.4576454782393,615.9743695568227 Z "/><path class="wedge" fill="rgb(221,163,153)" d=" M 615.5337901261964,590.8327776266044 L 495.17486129165957,640.2872519090803 A 392.8,392.8 0 0,1 486.8054924355911,618.0237499306785 L 609.9369469316296,575.9445188250231 A 262.67691681814034,262.67691681814034 0 0 0 615.5337901261964,590.8327776266044 Z "/><path class="wedge" fill="rgb(221,163,153)" d=" M 609.9369469316296,575.9445188250231 L 486.8054924355911,618.0237499306785 A 392.8,392.8 0 0,1 479.798938658557,595.294516341295 L 605.2514582766607,560.7448115925929 A 262.67691681814034,262.67691681814034 0 0 0 609.9369469316296,575.9445188250231 Z "/><path class="wedge" fill="url(#hiddenPattern)" d=" M 609.9369469316296,575.9445188250231 L 486.8054924355911,618.0237499306785 A 392.8,392.8 0 0,1 479.798938658557,595.294516341295 L 605.2514582766607,560.7448115925929 A 262.67691681814034,262.67691681814034 0 0 0 609.9369469316296,575.9445188250231 Z "/><path class="wedge" fill="rgb(216,153,140)" d=" M 651.2681724399298,548.0717788572908 L 479.798938658557,595.294516341295 A 392.8,392.8 0 0,1 465.92789146709623,477.62167416938706 L 643.6776934233774,483.6791467080882 A 214.94701276319745,214.94701276319745 0 0 0 651.2681724399298,548.0717788572908 Z "/><path class="wedge" fill="rgb(216,153,140)" d=" M 651.2681724399298,548.0717788572908 L 479.798938658557,595.294516341295 A 392.8,392.8 0 0,1 465.92789146709623,477.62167416938706 L 643.6776934233774,483.6791467080882 A 214.94701276319745,214.94701276319745 0 0 0 651.2681724399298,548.0717788572908 Z "/><path class="wedge" fill="rgb(221,164,153)" d=" M 605.2514582766607,560.7448115925929 L 479.798938658557,595.294516341295 A 392.8,392.8 0 0,1 466.04041420580313,507.3497253263604 L 596.0507281768226,501.9335423613844 A 262.67691681814034,262.67691681814034 0 0 0 605.2514582766607,560.7448115925929 Z "/><path class="wedge" fill="rgb(225,175,165)" d=" M 566.2689388655242,571.4806225600831 L 479.798938658557,595.294516341295 A 392.8,392.8 0 0,1 467.18753233066514,525.1524910736506 L 556.5371344693515,517.3543457509355 A 303.11074494224107,303.11074494224107 0 0 0 566.2689388655242,571.4806225600831 Z "/><path class="wedge" fill="rgb(225,177,165)" d=" M 556.5371344693515,517.3543457509355 L 467.18753233066514,525.1524910736506 A 392.8,392.8 0 0,1 466.04041420580313,507.3497253263604 L 555.6519414210734,503.61654130161435 A 303.11074494224107,303.11074494224107 0 0 0 556.5371344693515,517.3543457509355 Z "/><path class="wedge" fill="url(#hiddenPattern)" d=" M 556.5371344693515,517.3543457509355 L 467.18753233066514,525.1524910736506 A 392.8,392.8 0 0,1 466.04041420580313,507.3497253263604 L 555.6519414210734,503.61654130161435 A 303.11074494224107,303.11074494224107 0 0 0 556.5371344693515,517.3543457509355 Z "/><path class="wedge" fill="rgb(221,166,153)" d=" M 596.0507281768226,501.9335423613844 L 466.04041420580313,507.3497253263604 A 392.8,392.8 0 0,1 465.92789146709623,477.62167416938706 L 595.9754809108465,482.05351990485264 A 262.67691681814034,262.67691681814034 0 0 0 596.0507281768226,501.9335423613844 Z "/><path class="wedge" fill="rgb(225,177,165)" d=" M 555.6519414210734,503.61654130161435 L 466.04041420580313,507.3497253263604 A 392.8,392.8 0 0,1 465.70281374363503,489.51323536411667 L 555.3914263304914,489.85271299303366 A 303.11074494224107,303.11074494224107 0 0 0 555.6519414210734,503.61654130161435 Z "/><path class="wedge" fill="rgb(225,177,165)" d=" M 555.3914263304914,489.85271299303366 L 465.70281374363503,489.51323536411667 A 392.8,392.8 0 0,1 465.92789146709623,477.62167416938706 L 555.5651113519482,480.6763892347324 A 303.11074494224107,303.11074494224107 0 0 0 555.3914263304914,489.85271299303366 Z "/><path class="wedge" fill="url(#hiddenPattern)" d=" M 555.3914263304914,489.85271299303366 L 465.70281374363503,489.51323536411667 A 392.8,392.8 0 0,1 465.92789146709623,477.62167416938706 L 555.5651113519482,480.6763892347324 A 303.11074494224107,303.11074494224107 0 0 0 555.3914263304914,489.85271299303366 Z "/><path class="wedge" fill="rgb(216,155,140)" d=" M 643.6776934233774,483.6791467080882 L 465.92789146709623,477.62167416938706 A 392.8,392.8 0 0,1 472.43646309226824,418.5653020280164 L 647.2392973647877,451.36246957871106 A 214.94701276319745,214.94701276319745 0 0 0 643.6776934233774,483.6791467080882 Z "/><path class="wedge" fill="rgb(221,166,153)" d=" M 595.9754809108465,482.05351990485264 L 465.92789146709623,477.62167416938706 A 392.8,392.8 0 0,1 468.0639862150089,447.9702528512397 L 597.4039503161752,462.22474207611884 A 262.67691681814034,262.67691681814034 0 0 0 595.9754809108465,482.05351990485264 Z "/><path class="wedge" fill="rgb(221,166,153)" d=" M 595.9754809108465,482.05351990485264 L 465.92789146709623,477.62167416938706 A 392.8,392.8 0 0,1 468.0639862150089,447.9702528512397 L 597.4039503161752,462.22474207611884 A 262.67691681814034,262.67691681814034 0 0 0 595.9754809108465,482.05351990485264 Z "/><path class="wedge" fill="rgb(221,166,153)" d=" M 595.9754809108465,482.05351990485264 L 465.92789146709623,477.62167416938706 A 392.8,392.8 0 0,1 468.0639862150089,447.9702528512397 L 597.4039503161752,462.22474207611884 A 262.67691681814034,262.67691681814034 0 0 0 595.9754809108465,482.05351990485264 Z "/><path class="wedge" fill="rgb(221,167,153)" d=" M 597.4039503161752,462.22474207611884 L 468.0639862150089,447.9702528512397 A 392.8,392.8 0 0,1 470.4204237668132,430.28688353683236 L 598.9797694373117,450.399352741941 A 262.67691681814034,262.67691681814034 0 0 0 597.4039503161752,462.22474207611884 Z "/><path class="wedge" fill="rgb(221,167,153)" d=" M 597.4039503161752,462.22474207611884 L 468.0639862150089,447.9702528512397 A 392.8,392.8 0 0,1 470.4204237668132,430.28688353683236 L 598.9797694373117,450.399352741941 A 262.67691681814034,262.67691681814034 0 0 0 597.4039503161752,462.22474207611884 Z "/><path class="wedge" fill="rgb(221,167,153)" d=" M 597.4039503161752,462.22474207611884 L 468.0639862150089,447.9702528512397 A 392.8,392.8 0 0,1 470.4204237668132,430.28688353683236 L 598.9797694373117,450.399352741941 A 262.67691681814034,262.67691681814034 0 0 0 597.4039503161752,462.22474207611884 Z "/><path class="wedge" fill="rgb(216,157,140)" d=" M 598.9797694373117,450.399352741941 L 470.4204237668132,430.28688353683236 A 392.8,392.8 0 0,1 472.43646309226824,418.5653020280164 L 600.3279542494163,442.5607863189057 A 262.67691681814034,262.67691681814034 0 0 0 598.9797694373117,450.399352741941 Z "/><path class="wedge" fill="url(#hiddenPattern)" d=" M 598.9797694373117,450.399352741941 L 470.4204237668132,430.28688353683236 A 392.8,392.8 0 0,1 472.43646309226824,418.5653020280164 L 600.3279542494163,442.5607863189057 A 262.67691681814034,262.67691681814034 0 0 0 598.9797694373117,450.399352741941 Z "/><path class="wedge" fill="rgb(216,157,140)" d=" M 647.2392973647877,451.36246957871106 L 472.43646309226824,418.5653020280164 A 392.8,392.8 0 0,1 485.8545689739018,366.7936284429276 L 654.5819189946183,423.0321065877075 A 214.94701276319745,214.94701276319745 0 0 0 647.2392973647877,451.36246957871106 Z "/><path class="wedge" fill="rgb(216,157,140)" d=" M 647.2392973647877,451.36246957871106 L 472.43646309226824,418.5653020280164 A 392.8,392.8 0 0,1 485.8545689739018,366.7936284429276 L 654.5819189946183,423.0321065877075 A 214.94701276319745,214.94701276319745 0 0 0 647.2392973647877,451.36246957871106 Z "/><path class="wedge" fill="rgb(216,157,140)" d=" M 647.2392973647877,451.36246957871106 L 472.43646309226824,418.5653020280164 A 392.8,392.8 0 0,1 485.8545689739018,366.7936284429276 L 654.5819189946183,423.0321065877075 A 214.94701276319745,214.94701276319745 0 0 0 647.2392973647877,451.36246957871106 Z "/><path class="wedge" fill="rgb(216,157,140)" d=" M 647.2392973647877,451.36246957871106 L 472.43646309226824,418.5653020280164 A 392.8,392.8 0 0,1 485.8545689739018,366.7936284429276 L 654.5819189946183,423.0321065877075 A 214.94701276319745,214.94701276319745 0 0 0 647.2392973647877,451.36246957871106 Z "/><path class="wedge" fill="rgb(216,158,140)" d=" M 654.5819189946183,423.0321065877075 L 485.8545689739018,366.7936284429276 A 392.8,392.8 0 0,1 506.1809923092092,317.3245647197724 L 665.7048924571551,395.96177188433563 A 214.94701276319745,214.94701276319745 0 0 0 654.5819189946183,423.0321065877075 Z "/><path class="wedge" fill="rgb(216,158,140)" d=" M 654.5819189946183,423.0321065877075 L 485.8545689739018,366.7936284429276 A 392.8,392.8 0 0,1 506.1809923092092,317.3245647197724 L 665.7048924571551,395.96177188433563 A 214.94701276319745,214.94701276319745 0 0 0 654.5819189946183,423.0321065877075 Z "/><path class="wedge" fill="rgb(216,158,140)" d=" M 654.5819189946183,423.0321065877075 L 485.8545689739018,366.7936284429276 A 392.8,392.8 0 0,1 506.1809923092092,317.3245647197724 L 665.7048924571551,395.96177188433563 A 214.94701276319745,214.94701276319745 0 0 0 654.5819189946183,423.0321065877075 Z "/><path class="wedge" fill="rgb(216,158,140)" d=" M 654.5819189946183,423.0321065877075 L 485.8545689739018,366.7936284429276 A 392.8,392.8 0 0,1 506.1809923092092,317.3245647197724 L 665.7048924571551,395.96177188433563 A 214.94701276319745,214.94701276319745 0 0 0 654.5819189946183,423.0321065877075 Z "/><path class="wedge" fill="rgb(216,160,140)" d=" M 665.7048924571551,395.96177188433563 L 506.1809923092092,317.3245647197724 A 392.8,392.8 0 0,1 526.5297110077242,281.0296039285897 L 676.8400663314026,376.10053613988026 A 214.94701276319745,214.94701276319745 0 0 0 665.7048924571551,395.96177188433563 Z "/><path class="wedge" fill="rgb(216,160,140)" d=" M 665.7048924571551,395.96177188433563 L 506.1809923092092,317.3245647197724 A 392.8,392.8 0 0,1 526.5297110077242,281.0296039285897 L 676.8400663314026,376.10053613988026 A 214.94701276319745,214.94701276319745 0 0 0 665.7048924571551,395.96177188433563 Z "/><path class="wedge" fill="rgb(216,160,140)" d=" M 665.7048924571551,395.96177188433563 L 506.1809923092092,317.3245647197724 A 392.8,392.8 0 0,1 526.5297110077242,281.0296039285897 L 676.8400663314026,376.10053613988026 A 214.94701276319745,214.94701276319745 0 0 0 665.7048924571551,395.96177188433563 Z "/><path class="wedge" fill="rgb(216,161,140)" d=" M 676.8400663314026,376.10053613988026 L 526.5297110077242,281.0296039285897 A 392.8,392.8 0 0,1 550.6036529130093,247.09083770697055 L 690.013747334396,357.5286511699068 A 214.94701276319745,214.94701276319745 0 0 0 676.8400663314026,376.10053613988026 Z "/><path class="wedge" fill="rgb(221,171,153)" d=" M 636.5017006422656,350.5866184747408 L 526.5297110077242,281.0296039285897 A 392.8,392.8 0 0,1 546.9462473615278,251.78022820660146 L 650.1548391899302,331.0267003649973 A 262.67691681814034,262.67691681814034 0 0 0 636.5017006422656,350.5866184747408 Z "/><path class="wedge" fill="rgb(221,171,153)" d=" M 636.5017006422656,350.5866184747408 L 526.5297110077242,281.0296039285897 A 392.8,392.8 0 0,1 546.9462473615278,251.78022820660146 L 650.1548391899302,331.0267003649973 A 262.67691681814034,262.67691681814034 0 0 0 636.5017006422656,350.5866184747408 Z "/><path class="wedge" fill="rgb(221,171,153)" d=" M 636.5017006422656,350.5866184747408 L 526.5297110077242,281.0296039285897 A 392.8,392.8 0 0,1 546.9462473615278,251.78022820660146 L 650.1548391899302,331.0267003649973 A 262.67691681814034,262.67691681814034 0 0 0 636.5017006422656,350.5866184747408 Z "/><path class="wedge" fill="rgb(216,162,140)" d=" M 650.1548391899302,331.0267003649973 L 546.9462473615278,251.78022820660146 A 392.8,392.8 0 0,1 550.6036529130093,247.09083770697055 L 652.6006538890563,327.89076696835946 A 262.67691681814034,262.67691681814034 0 0 0 650.1548391899302,331.0267003649973 Z "/><path class="wedge" fill="url(#hiddenPattern)" d=" M 650.1548391899302,331.0267003649973 L 546.9462473615278,251.78022820660146 A 392.8,392.8 0 0,1 550.6036529130093,247.09083770697055 L 652.6006538890563,327.89076696835946 A 262.67691681814034,262.67691681814034 0 0 0 650.1548391899302,331.0267003649973 Z "/><path class="wedge" fill="rgb(216,162,140)" d=" M 690.013747334396,357.5286511699068 L 550.6036529130093,247.09083770697055 A 392.8,392.8 0 0,1 578.1326709364919,215.88911182253344 L 705.0781062662998,340.45452242266674 A 214.94701276319745,214.94701276319745 0 0 0 690.013747334396,357.5286511699068 Z "/><path class="wedge" fill="rgb(216,162,140)" d=" M 690.013747334396,357.5286511699068 L 550.6036529130093,247.09083770697055 A 392.8,392.8 0 0,1 578.1326709364919,215.88911182253344 L 705.0781062662998,340.45452242266674 A 214.94701276319745,214.94701276319745 0 0 0 690.013747334396,357.5286511699068 Z "/><path class="wedge" fill="rgb(216,162,140)" d=" M 690.013747334396,357.5286511699068 L 550.6036529130093,247.09083770697055 A 392.8,392.8 0 0,1 578.1326709364919,215.88911182253344 L 705.0781062662998,340.45452242266674 A 214.94701276319745,214.94701276319745 0 0 0 690.013747334396,357.5286511699068 Z "/><path class="wedge" fill="rgb(221,172,153)" d=" M 652.6006538890563,327.89076696835946 L 550.6036529130093,247.09083770697055 A 392.8,392.8 0 0,1 573.9997277681816,220.16529930597653 L 668.2462974954796,309.88486724625784 A 262.67691681814034,262.67691681814034 0 0 0 652.6006538890563,327.89076696835946 Z "/><path class="wedge" fill="rgb(221,173,153)" d=" M 668.2462974954796,309.88486724625784 L 573.9997277681816,220.16529930597653 A 392.8,392.8 0 0,1 578.1326709364919,215.88911182253344 L 671.010118190073,307.025254863653 A 262.67691681814034,262.67691681814034 0 0 0 668.2462974954796,309.88486724625784 Z "/><path class="wedge" fill="url(#hiddenPattern)" d=" M 668.2462974954796,309.88486724625784 L 573.9997277681816,220.16529930597653 A 392.8,392.8 0 0,1 578.1326709364919,215.88911182253344 L 671.010118190073,307.025254863653 A 262.67691681814034,262.67691681814034 0 0 0 668.2462974954796,309.88486724625784 Z "/><path class="wedge" fill="rgb(216,163,140)" d=" M 705.0781062662998,340.45452242266674 L 578.1326709364919,215.88911182253344 A 392.8,392.8 0 0,1 604.2457439275609,191.58955718103192 L 719.367635373982,327.1573821943907 A 214.94701276319745,214.94701276319745 0 0 0 705.0781062662998,340.45452242266674 Z "/><path class="wedge" fill="rgb(216,163,140)" d=" M 705.0781062662998,340.45452242266674 L 578.1326709364919,215.88911182253344 A 392.8,392.8 0 0,1 604.2457439275609,191.58955718103192 L 719.367635373982,327.1573821943907 A 214.94701276319745,214.94701276319745 0 0 0 705.0781062662998,340.45452242266674 Z "/><path class="wedge" fill="rgb(221,173,153)" d=" M 671.010118190073,307.025254863653 L 578.1326709364919,215.88911182253344 A 392.8,392.8 0 0,1 590.9132347961468,203.44276554442604 L 679.5568572681063,298.7020169156281 A 262.67691681814034,262.67691681814034 0 0 0 671.010118190073,307.025254863653 Z "/><path class="wedge" fill="rgb(221,173,153)" d=" M 671.010118190073,307.025254863653 L 578.1326709364919,215.88911182253344 A 392.8,392.8 0 0,1 590.9132347961468,203.44276554442604 L 679.5568572681063,298.7020169156281 A 262.67691681814034,262.67691681814034 0 0 0 671.010118190073,307.025254863653 Z "/><path class="wedge" fill="rgb(216,163,140)" d=" M 679.5568572681063,298.7020169156281 L 590.9132347961468,203.44276554442604 A 392.8,392.8 0 0,1 604.2457439275609,191.58955718103192 L 688.4726983884973,290.77542774225907 A 262.67691681814034,262.67691681814034 0 0 0 679.5568572681063,298.7020169156281 Z "/><path class="wedge" fill="url(#hiddenPattern)" d=" M 679.5568572681063,298.7020169156281 L 590.9132347961468,203.44276554442604 A 392.8,392.8 0 0,1 604.2457439275609,191.58955718103192 L 688.4726983884973,290.77542774225907 A 262.67691681814034,262.67691681814034 0 0 0 679.5568572681063,298.7020169156281 Z "/><path class="wedge" fill="rgb(216,164,140)" d=" M 719.367635373982,327.1573821943907 L 604.2457439275609,191.58955718103192 A 392.8,392.8 0 0,1 627.6179528995165,173.21812460952066 L 732.1573158734706,317.1042137844446 A 214.94701276319745,214.94701276319745 0 0 0 719.367635373982,327.1573821943907 Z "/><path class="wedge" fill="rgb(216,164,140)" d=" M 719.367635373982,327.1573821943907 L 604.2457439275609,191.58955718103192 A 392.8,392.8 0 0,1 627.6179528995165,173.21812460952066 L 732.1573158734706,317.1042137844446 A 214.94701276319745,214.94701276319745 0 0 0 719.367635373982,327.1573821943907 Z "/><path class="wedge" fill="rgb(216,164,140)" d=" M 719.367635373982,327.1573821943907 L 604.2457439275609,191.58955718103192 A 392.8,392.8 0 0,1 627.6179528995165,173.21812460952066 L 732.1573158734706,317.1042137844446 A 214.94701276319745,214.94701276319745 0 0 0 719.367635373982,327.1573821943907 Z "/><path class="wedge" fill="rgb(221,174,153)" d=" M 688.4726983884973,290.77542774225907 L 604.2457439275609,191.58955718103192 A 392.8,392.8 0 0,1 618.1026976605492,180.35393608172876 L 697.7392510439785,283.2618373428146 A 262.67691681814034,262.67691681814034 0 0 0 688.4726983884973,290.77542774225907 Z "/><path class="wedge" fill="rgb(221,174,153)" d=" M 697.7392510439785,283.2618373428146 L 618.1026976605492,180.35393608172876 A 392.8,392.8 0 0,1 627.6179528995165,173.21812460952066 L 704.1023821766404,278.48991026411005 A 262.67691681814034,262.67691681814034 0 0 0 697.7392510439785,283.2618373428146 Z "/><path class="wedge" fill="url(#hiddenPattern)" d=" M 697.7392510439785,283.2618373428146 L 618.1026976605492,180.35393608172876 A 392.8,392.8 0 0,1 627.6179528995165,173.21812460952066 L 704.1023821766404,278.48991026411005 A 262.67691681814034,262.67691681814034 0 0 0 697.7392510439785,283.2618373428146 Z "/><path class="wedge" fill="rgb(216,164,140)" d=" M 732.1573158734706,317.1042137844446 L 627.6179528995165,173.21812460952066 A 392.8,392.8 0 0,1 647.2745864057481,159.82683585179 L 742.9137686564274,309.7762669526635 A 214.94701276319745,214.94701276319745 0 0 0 732.1573158734706,317.1042137844446 Z "/><path class="wedge" fill="rgb(216,164,140)" d=" M 732.1573158734706,317.1042137844446 L 627.6179528995165,173.21812460952066 A 392.8,392.8 0 0,1 647.2745864057481,159.82683585179 L 742.9137686564274,309.7762669526635 A 214.94701276319745,214.94701276319745 0 0 0 732.1573158734706,317.1042137844446 Z "/><path class="wedge" fill="rgb(216,164,140)" d=" M 732.1573158734706,317.1042137844446 L 627.6179528995165,173.21812460952066 A 392.8,392.8 0 0,1 647.2745864057481,159.82683585179 L 742.9137686564274,309.7762669526635 A 214.94701276319745,214.94701276319745 0 0 0 732.1573158734706,317.1042137844446 Z "/><path class="wedge" fill="rgb(216,164,140)" d=" M 732.1573158734706,317.1042137844446 L 627.6179528995165,173.21812460952066 A 392.8,392.8 0 0,1 647.2745864057481,159.82683585179 L 742.9137686564274,309.7762669526635 A 214.94701276319745,214.94701276319745 0 0 0 732.1573158734706,317.1042137844446 Z "/><path class="wedge" fill="rgb(212,155,127)" d=" M 742.9137686564274,309.7762669526635 L 647.2745864057481,159.82683585179 A 392.8,392.8 0 0,1 672.9257375011853,144.80058766944592 L 756.9505260441607,301.5536418003384 A 214.94701276319745,214.94701276319745 0 0 0 742.9137686564274,309.7762669526635 Z "/><path class="wedge" fill="url(#hiddenPattern)" d=" M 742.9137686564274,309.7762669526635 L 647.2745864057481,159.82683585179 A 392.8,392.8 0 0,1 672.9257375011853,144.80058766944592 L 756.9505260441607,301.5536418003384 A 214.94701276319745,214.94701276319745 0 0 0 742.9137686564274,309.7762669526635 Z "/><path class="wedge" fill="rgb(212,156,127)" d=" M 783.9690688439675,351.9582804251629 L 672.9257375011853,144.80058766944592 A 392.8,392.8 0 0,1 1117.2580782759846,195.4731874653006 L 962.4232502307686,372.3095726573288 A 157.75759722217143,157.75759722217143 0 0 0 783.9690688439675,351.9582804251629 Z "/><path class="wedge" fill="rgb(216,166,140)" d=" M 756.9505260441607,301.5536418003384 L 672.9257375011853,144.80058766944592 A 392.8,392.8 0 0,1 920.6815791890003,103.15300541378167 L 892.5268449479986,278.7633582090335 A 214.94701276319745,214.94701276319745 0 0 0 756.9505260441607,301.5536418003384 Z "/><path class="wedge" fill="rgb(216,166,140)" d=" M 756.9505260441607,301.5536418003384 L 672.9257375011853,144.80058766944592 A 392.8,392.8 0 0,1 920.6815791890003,103.15300541378167 L 892.5268449479986,278.7633582090335 A 214.94701276319745,214.94701276319745 0 0 0 756.9505260441607,301.5536418003384 Z "/><path class="wedge" fill="rgb(216,166,140)" d=" M 756.9505260441607,301.5536418003384 L 672.9257375011853,144.80058766944592 A 392.8,392.8 0 0,1 920.6815791890003,103.15300541378167 L 892.5268449479986,278.7633582090335 A 214.94701276319745,214.94701276319745 0 0 0 756.9505260441607,301.5536418003384 Z "/><path class="wedge" fill="rgb(216,166,140)" d=" M 756.9505260441607,301.5536418003384 L 672.9257375011853,144.80058766944592 A 392.8,392.8 0 0,1 920.6815791890003,103.15300541378167 L 892.5268449479986,278.7633582090335 A 214.94701276319745,214.94701276319745 0 0 0 756.9505260441607,301.5536418003384 Z "/><path class="wedge" fill="rgb(216,172,140)" d=" M 892.5268449479986,278.7633582090335 L 920.6815791890003,103.15300541378167 A 392.8,392.8 0 0,1 995.3261944270303,122.80109652713992 L 933.3736806513406,289.51513644558 A 214.94701276319745,214.94701276319745 0 0 0 892.5268449479986,278.7633582090335 Z "/><path class="wedge" fill="rgb(216,172,140)" d=" M 892.5268449479986,278.7633582090335 L 920.6815791890003,103.15300541378167 A 392.8,392.8 0 0,1 995.3261944270303,122.80109652713992 L 933.3736806513406,289.51513644558 A 214.94701276319745,214.94701276319745 0 0 0 892.5268449479986,278.7633582090335 Z "/><path class="wedge" fill="rgb(216,172,140)" d=" M 892.5268449479986,278.7633582090335 L 920.6815791890003,103.15300541378167 A 392.8,392.8 0 0,1 995.3261944270303,122.80109652713992 L 933.3736806513406,289.51513644558 A 214.94701276319745,214.94701276319745 0 0 0 892.5268449479986,278.7633582090335 Z "/><path class="wedge" fill="rgb(216,172,140)" d=" M 892.5268449479986,278.7633582090335 L 920.6815791890003,103.15300541378167 A 392.8,392.8 0 0,1 995.3261944270303,122.80109652713992 L 933.3736806513406,289.51513644558 A 214.94701276319745,214.94701276319745 0 0 0 892.5268449479986,278.7633582090335 Z "/><path class="wedge" fill="rgb(216,174,140)" d=" M 933.3736806513406,289.51513644558 L 995.3261944270303,122.80109652713992 A 392.8,392.8 0 0,1 1054.470650788424,150.57769751445255 L 965.738559002626,304.7149770946079 A 214.94701276319745,214.94701276319745 0 0 0 933.3736806513406,289.51513644558 Z "/><path class="wedge" fill="rgb(216,174,140)" d=" M 933.3736806513406,289.51513644558 L 995.3261944270303,122.80109652713992 A 392.8,392.8 0 0,1 1054.470650788424,150.57769751445255 L 965.738559002626,304.7149770946079 A 214.94701276319745,214.94701276319745 0 0 0 933.3736806513406,289.51513644558 Z "/><path class="wedge" fill="rgb(216,174,140)" d=" M 933.3736806513406,289.51513644558 L 995.3261944270303,122.80109652713992 A 392.8,392.8 0 0,1 1054.470650788424,150.57769751445255 L 965.738559002626,304.7149770946079 A 214.94701276319745,214.94701276319745 0 0 0 933.3736806513406,289.51513644558 Z "/><path class="wedge" fill="rgb(216,174,140)" d=" M 933.3736806513406,289.51513644558 L 995.3261944270303,122.80109652713992 A 392.8,392.8 0 0,1 1054.470650788424,150.57769751445255 L 965.738559002626,304.7149770946079 A 214.94701276319745,214.94701276319745 0 0 0 933.3736806513406,289.51513644558 Z "/><path class="wedge" fill="rgb(216,176,140)" d=" M 965.738559002626,304.7149770946079 L 1054.470650788424,150.57769751445255 A 392.8,392.8 0 0,1 1094.1666846490475,176.7500139275637 L 987.4609212655785,319.0369252363886 A 214.94701276319745,214.94701276319745 0 0 0 965.738559002626,304.7149770946079 Z "/><path class="wedge" fill="rgb(216,176,140)" d=" M 965.738559002626,304.7149770946079 L 1054.470650788424,150.57769751445255 A 392.8,392.8 0 0,1 1094.1666846490475,176.7500139275637 L 987.4609212655785,319.0369252363886 A 214.94701276319745,214.94701276319745 0 0 0 965.738559002626,304.7149770946079 Z "/><path class="wedge" fill="rgb(216,176,140)" d=" M 965.738559002626,304.7149770946079 L 1054.470650788424,150.57769751445255 A 392.8,392.8 0 0,1 1094.1666846490475,176.7500139275637 L 987.4609212655785,319.0369252363886 A 214.94701276319745,214.94701276319745 0 0 0 965.738559002626,304.7149770946079 Z "/><path class="wedge" fill="rgb(216,176,140)" d=" M 965.738559002626,304.7149770946079 L 1054.470650788424,150.57769751445255 A 392.8,392.8 0 0,1 1094.1666846490475,176.7500139275637 L 987.4609212655785,319.0369252363886 A 214.94701276319745,214.94701276319745 0 0 0 965.738559002626,304.7149770946079 Z "/><path class="wedge" fill="rgb(216,177,140)" d=" M 987.4609212655785,319.0369252363886 L 1094.1666846490475,176.7500139275637 A 392.8,392.8 0 0,1 1108.1921533407387,187.77455819132683 L 995.1359024210846,325.0697481910004 A 214.94701276319745,214.94701276319745 0 0 0 987.4609212655785,319.0369252363886 Z "/><path class="wedge" fill="rgb(216,177,140)" d=" M 987.4609212655785,319.0369252363886 L 1094.1666846490475,176.7500139275637 A 392.8,392.8 0 0,1 1108.1921533407387,187.77455819132683 L 995.1359024210846,325.0697481910004 A 214.94701276319745,214.94701276319745 0 0 0 987.4609212655785,319.0369252363886 Z "/><path class="wedge" fill="url(#hiddenPattern)" d=" M 987.4609212655785,319.0369252363886 L 1094.1666846490475,176.7500139275637 A 392.8,392.8 0 0,1 1108.1921533407387,187.77455819132683 L 995.1359024210846,325.0697481910004 A 214.94701276319745,214.94701276319745 0 0 0 987.4609212655785,319.0369252363886 Z "/><path class="wedge" fill="rgb(212,169,127)" d=" M 995.1359024210846,325.0697481910004 L 1108.1921533407387,187.77455819132683 A 392.8,392.8 0 0,1 1117.2580782759846,195.4731874653006 L 1000.0969347091867,329.2825724395033 A 214.94701276319745,214.94701276319745 0 0 0 995.1359024210846,325.0697481910004 Z "/><path class="wedge" fill="url(#hiddenPattern)" d=" M 995.1359024210846,325.0697481910004 L 1108.1921533407387,187.77455819132683 A 392.8,392.8 0 0,1 1117.2580782759846,195.4731874653006 L 1000.0969347091867,329.2825724395033 A 214.94701276319745,214.94701276319745 0 0 0 995.1359024210846,325.0697481910004 Z "/><path class="wedge" fill="rgb(114,208,208)" d=" M 916.4702415689579,424.7923637905969 L 1117.2580782759846,195.4731874653006 A 392.8,392.8 0 0,1 858.5000000000001,883.8 L 858.5,579 A 88,88 0 0 0 916.4702415689579,424.7923637905969 Z "/><path class="wedge" fill="rgb(127,212,212)" d=" M 962.4232502307686,372.3095726573288 L 1117.2580782759846,195.4731874653006 A 392.8,392.8 0 0,1 1132.5477152614299,772.4066270719121 L 968.5639233296054,604.0194331192987 A 157.75759722217143,157.75759722217143 0 0 0 962.4232502307686,372.3095726573288 Z "/><path class="wedge" fill="rgb(140,216,216)" d=" M 1000.0969347091867,329.2825724395033 L 1117.2580782759846,195.4731874653006 A 392.8,392.8 0 0,1 1230.194507564409,618.0237499306784 L 1061.8977190973967,560.5096120101291 A 214.94701276319745,214.94701276319745 0 0 0 1000.0969347091867,329.2825724395033 Z "/><path class="wedge" fill="rgb(140,216,216)" d=" M 1000.0969347091867,329.2825724395033 L 1117.2580782759846,195.4731874653006 A 392.8,392.8 0 0,1 1230.194507564409,618.0237499306784 L 1061.8977190973967,560.5096120101291 A 214.94701276319745,214.94701276319745 0 0 0 1000.0969347091867,329.2825724395033 Z "/><path class="wedge" fill="rgb(140,216,216)" d=" M 1000.0969347091867,329.2825724395033 L 1117.2580782759846,195.4731874653006 A 392.8,392.8 0 0,1 1230.194507564409,618.0237499306784 L 1061.8977190973967,560.5096120101291 A 214.94701276319745,214.94701276319745 0 0 0 1000.0969347091867,329.2825724395033 Z "/><path class="wedge" fill="rgb(153,221,221)" d=" M 1031.5391400288256,293.37252557610134 L 1117.2580782759846,195.4731874653006 A 392.8,392.8 0 0,1 1248.5990900889278,536.984126737284 L 1119.3707388954213,521.7509384774042 A 262.67691681814034,262.67691681814034 0 0 0 1031.5391400288256,293.37252557610134 Z "/><path class="wedge" fill="rgb(153,207,221)" d=" M 1119.3707388954213,521.7509384774042 L 1248.5990900889278,536.984126737284 A 392.8,392.8 0 0,1 1230.194507564409,618.0237499306784 L 1107.0630530683704,575.944518825023 A 262.67691681814034,262.67691681814034 0 0 0 1119.3707388954213,521.7509384774042 Z "/><path class="wedge" fill="rgb(140,198,216)" d=" M 1061.8977190973967,560.5096120101291 L 1230.194507564409,618.0237499306784 A 392.8,392.8 0 0,1 1168.2339246971276,732.5713888102523 L 1027.9918071921302,623.1920783956737 A 214.94701276319745,214.94701276319745 0 0 0 1061.8977190973967,560.5096120101291 Z "/><path class="wedge" fill="rgb(140,198,216)" d=" M 1061.8977190973967,560.5096120101291 L 1230.194507564409,618.0237499306784 A 392.8,392.8 0 0,1 1168.2339246971276,732.5713888102523 L 1027.9918071921302,623.1920783956737 A 214.94701276319745,214.94701276319745 0 0 0 1061.8977190973967,560.5096120101291 Z "/><path class="wedge" fill="rgb(140,198,216)" d=" M 1061.8977190973967,560.5096120101291 L 1230.194507564409,618.0237499306784 A 392.8,392.8 0 0,1 1168.2339246971276,732.5713888102523 L 1027.9918071921302,623.1920783956737 A 214.94701276319745,214.94701276319745 0 0 0 1061.8977190973967,560.5096120101291 Z "/><path class="wedge" fill="rgb(153,204,221)" d=" M 1107.0630530683704,575.944518825023 L 1230.194507564409,618.0237499306784 A 392.8,392.8 0 0,1 1201.1255849078698,683.0925520850305 L 1087.623809232717,619.4579412561707 A 262.67691681814034,262.67691681814034 0 0 0 1107.0630530683704,575.944518825023 Z "/><path class="wedge" fill="rgb(153,202,221)" d=" M 1087.623809232717,619.4579412561707 L 1201.1255849078698,683.0925520850305 A 392.8,392.8 0 0,1 1192.0502593148994,698.4513545652649 L 1081.5548719977826,629.7288243557806 A 262.67691681814034,262.67691681814034 0 0 0 1087.623809232717,619.4579412561707 Z "/><path class="wedge" fill="rgb(153,201,221)" d=" M 1081.5548719977826,629.7288243557806 L 1192.0502593148994,698.4513545652649 A 392.8,392.8 0 0,1 1182.2869270173278,713.3822517483705 L 1075.0258444371993,639.7135545935272 A 262.67691681814034,262.67691681814034 0 0 0 1081.5548719977826,629.7288243557806 Z "/><path class="wedge" fill="rgb(153,200,221)" d=" M 1075.0258444371993,639.7135545935272 L 1182.2869270173278,713.3822517483705 A 392.8,392.8 0 0,1 1168.2339246971276,732.5713888102523 L 1065.6281883233796,652.5458951225899 A 262.67691681814034,262.67691681814034 0 0 0 1075.0258444371993,639.7135545935272 Z "/><path class="wedge" fill="url(#hiddenPattern)" d=" M 1075.0258444371993,639.7135545935272 L 1182.2869270173278,713.3822517483705 A 392.8,392.8 0 0,1 1168.2339246971276,732.5713888102523 L 1065.6281883233796,652.5458951225899 A 262.67691681814034,262.67691681814034 0 0 0 1075.0258444371993,639.7135545935272 Z "/><path class="wedge" fill="rgb(140,193,216)" d=" M 1027.9918071921302,623.1920783956737 L 1168.2339246971276,732.5713888102523 A 392.8,392.8 0 0,1 1145.0423473581359,759.6732647110416 L 1015.3009714734873,638.0226977061461 A 214.94701276319745,214.94701276319745 0 0 0 1027.9918071921302,623.1920783956737 Z "/><path class="wedge" fill="rgb(140,193,216)" d=" M 1027.9918071921302,623.1920783956737 L 1168.2339246971276,732.5713888102523 A 392.8,392.8 0 0,1 1145.0423473581359,759.6732647110416 L 1015.3009714734873,638.0226977061461 A 214.94701276319745,214.94701276319745 0 0 0 1027.9918071921302,623.1920783956737 Z "/><path class="wedge" fill="rgb(140,193,216)" d=" M 1027.9918071921302,623.1920783956737 L 1168.2339246971276,732.5713888102523 A 392.8,392.8 0 0,1 1145.0423473581359,759.6732647110416 L 1015.3009714734873,638.0226977061461 A 214.94701276319745,214.94701276319745 0 0 0 1027.9918071921302,623.1920783956737 Z "/><path class="wedge" fill="rgb(140,193,216)" d=" M 1027.9918071921302,623.1920783956737 L 1168.2339246971276,732.5713888102523 A 392.8,392.8 0 0,1 1145.0423473581359,759.6732647110416 L 1015.3009714734873,638.0226977061461 A 214.94701276319745,214.94701276319745 0 0 0 1027.9918071921302,623.1920783956737 Z "/><path class="wedge" fill="rgb(127,184,212)" d=" M 1015.3009714734873,638.0226977061461 L 1145.0423473581359,759.6732647110416 A 392.8,392.8 0 0,1 1132.5477152614299,772.4066270719121 L 1008.4636908096326,644.9906157354242 A 214.94701276319745,214.94701276319745 0 0 0 1015.3009714734873,638.0226977061461 Z "/><path class="wedge" fill="url(#hiddenPattern)" d=" M 1015.3009714734873,638.0226977061461 L 1145.0423473581359,759.6732647110416 A 392.8,392.8 0 0,1 1132.5477152614299,772.4066270719121 L 1008.4636908096326,644.9906157354242 A 214.94701276319745,214.94701276319745 0 0 0 1015.3009714734873,638.0226977061461 Z "/><path class="wedge" fill="rgb(127,183,212)" d=" M 968.5639233296054,604.0194331192987 L 1132.5477152614299,772.4066270719121 A 392.8,392.8 0 0,1 1041.4482051199739,838.5942954701356 L 931.976245559664,630.6019370201174 A 157.75759722217143,157.75759722217143 0 0 0 968.5639233296054,604.0194331192987 Z "/><path class="wedge" fill="rgb(127,183,212)" d=" M 968.5639233296054,604.0194331192987 L 1132.5477152614299,772.4066270719121 A 392.8,392.8 0 0,1 1041.4482051199739,838.5942954701356 L 931.976245559664,630.6019370201174 A 157.75759722217143,157.75759722217143 0 0 0 968.5639233296054,604.0194331192987 Z "/><path class="wedge" fill="rgb(127,183,212)" d=" M 968.5639233296054,604.0194331192987 L 1132.5477152614299,772.4066270719121 A 392.8,392.8 0 0,1 1041.4482051199739,838.5942954701356 L 931.976245559664,630.6019370201174 A 157.75759722217143,157.75759722217143 0 0 0 968.5639233296054,604.0194331192987 Z "/><path class="wedge" fill="rgb(127,183,212)" d=" M 968.5639233296054,604.0194331192987 L 1132.5477152614299,772.4066270719121 A 392.8,392.8 0 0,1 1041.4482051199739,838.5942954701356 L 931.976245559664,630.6019370201174 A 157.75759722217143,157.75759722217143 0 0 0 968.5639233296054,604.0194331192987 Z "/><path class="wedge" fill="rgb(127,183,212)" d=" M 968.5639233296054,604.0194331192987 L 1132.5477152614299,772.4066270719121 A 392.8,392.8 0 0,1 1041.4482051199739,838.5942954701356 L 931.976245559664,630.6019370201174 A 157.75759722217143,157.75759722217143 0 0 0 968.5639233296054,604.0194331192987 Z "/><path class="wedge" fill="rgb(127,178,212)" d=" M 931.976245559664,630.6019370201174 L 1041.4482051199739,838.5942954701356 A 392.8,392.8 0 0,1 935.3137449480462,876.2161582631971 L 889.3501828835042,645.7117503532528 A 157.75759722217143,157.75759722217143 0 0 0 931.976245559664,630.6019370201174 Z "/><path class="wedge" fill="rgb(140,186,216)" d=" M 958.6124495441118,681.2096625886809 L 1041.4482051199739,838.5942954701356 A 392.8,392.8 0 0,1 975.6321394591304,865.9291958566669 L 922.5967501917065,696.1677969630813 A 214.94701276319745,214.94701276319745 0 0 0 958.6124495441118,681.2096625886809 Z "/><path class="wedge" fill="rgb(153,193,221)" d=" M 980.8428473990007,723.4465321732915 L 1041.4482051199739,838.5942954701356 A 392.8,392.8 0 0,1 992.5349970125977,860.2241318980016 L 948.1331460310536,737.9110401777532 A 262.67691681814034,262.67691681814034 0 0 0 980.8428473990007,723.4465321732915 Z "/><path class="wedge" fill="rgb(153,193,221)" d=" M 980.8428473990007,723.4465321732915 L 1041.4482051199739,838.5942954701356 A 392.8,392.8 0 0,1 992.5349970125977,860.2241318980016 L 948.1331460310536,737.9110401777532 A 262.67691681814034,262.67691681814034 0 0 0 980.8428473990007,723.4465321732915 Z "/><path class="wedge" fill="rgb(153,193,221)" d=" M 980.8428473990007,723.4465321732915 L 1041.4482051199739,838.5942954701356 A 392.8,392.8 0 0,1 992.5349970125977,860.2241318980016 L 948.1331460310536,737.9110401777532 A 262.67691681814034,262.67691681814034 0 0 0 980.8428473990007,723.4465321732915 Z "/><path class="wedge" fill="rgb(153,191,221)" d=" M 948.1331460310536,737.9110401777532 L 992.5349970125977,860.2241318980016 A 392.8,392.8 0 0,1 975.6321394591304,865.9291958566669 L 936.8297078753483,741.7261842992208 A 262.67691681814034,262.67691681814034 0 0 0 948.1331460310536,737.9110401777532 Z "/><path class="wedge" fill="rgb(153,191,221)" d=" M 948.1331460310536,737.9110401777532 L 992.5349970125977,860.2241318980016 A 392.8,392.8 0 0,1 975.6321394591304,865.9291958566669 L 936.8297078753483,741.7261842992208 A 262.67691681814034,262.67691681814034 0 0 0 948.1331460310536,737.9110401777532 Z "/><path class="wedge" fill="url(#hiddenPattern)" d=" M 948.1331460310536,737.9110401777532 L 992.5349970125977,860.2241318980016 A 392.8,392.8 0 0,1 975.6321394591304,865.9291958566669 L 936.8297078753483,741.7261842992208 A 262.67691681814034,262.67691681814034 0 0 0 948.1331460310536,737.9110401777532 Z "/><path class="wedge" fill="rgb(140,183,216)" d=" M 922.5967501917065,696.1677969630813 L 975.6321394591304,865.9291958566669 A 392.8,392.8 0 0,1 952.7252639670771,872.3311417001431 L 910.0617082905982,699.6710534165613 A 214.94701276319745,214.94701276319745 0 0 0 922.5967501917065,696.1677969630813 Z "/><path class="wedge" fill="rgb(140,183,216)" d=" M 922.5967501917065,696.1677969630813 L 975.6321394591304,865.9291958566669 A 392.8,392.8 0 0,1 952.7252639670771,872.3311417001431 L 910.0617082905982,699.6710534165613 A 214.94701276319745,214.94701276319745 0 0 0 922.5967501917065,696.1677969630813 Z "/><path class="wedge" fill="rgb(140,183,216)" d=" M 922.5967501917065,696.1677969630813 L 975.6321394591304,865.9291958566669 A 392.8,392.8 0 0,1 952.7252639670771,872.3311417001431 L 910.0617082905982,699.6710534165613 A 214.94701276319745,214.94701276319745 0 0 0 922.5967501917065,696.1677969630813 Z "/><path class="wedge" fill="rgb(153,191,221)" d=" M 936.8297078753483,741.7261842992208 L 975.6321394591304,865.9291958566669 A 392.8,392.8 0 0,1 958.487676045611,870.8609016982373 L 925.364700772587,745.024161094327 A 262.67691681814034,262.67691681814034 0 0 0 936.8297078753483,741.7261842992208 Z "/><path class="wedge" fill="rgb(153,190,221)" d=" M 925.364700772587,745.024161094327 L 958.487676045611,870.8609016982373 A 392.8,392.8 0 0,1 952.7252639670771,872.3311417001431 L 921.5112062760877,746.0073538404658 A 262.67691681814034,262.67691681814034 0 0 0 925.364700772587,745.024161094327 Z "/><path class="wedge" fill="url(#hiddenPattern)" d=" M 925.364700772587,745.024161094327 L 958.487676045611,870.8609016982373 A 392.8,392.8 0 0,1 952.7252639670771,872.3311417001431 L 921.5112062760877,746.0073538404658 A 262.67691681814034,262.67691681814034 0 0 0 925.364700772587,745.024161094327 Z "/><path class="wedge" fill="rgb(140,182,216)" d=" M 910.0617082905982,699.6710534165613 L 952.7252639670771,872.3311417001431 A 392.8,392.8 0 0,1 935.3137449480462,876.2161582631971 L 900.5338213231585,701.7970022576103 A 214.94701276319745,214.94701276319745 0 0 0 910.0617082905982,699.6710534165613 Z "/><path class="wedge" fill="rgb(140,182,216)" d=" M 910.0617082905982,699.6710534165613 L 952.7252639670771,872.3311417001431 A 392.8,392.8 0 0,1 935.3137449480462,876.2161582631971 L 900.5338213231585,701.7970022576103 A 214.94701276319745,214.94701276319745 0 0 0 910.0617082905982,699.6710534165613 Z "/><path class="wedge" fill="rgb(140,182,216)" d=" M 910.0617082905982,699.6710534165613 L 952.7252639670771,872.3311417001431 A 392.8,392.8 0 0,1 935.3137449480462,876.2161582631971 L 900.5338213231585,701.7970022576103 A 214.94701276319745,214.94701276319745 0 0 0 910.0617082905982,699.6710534165613 Z "/><path class="wedge" fill="rgb(140,182,216)" d=" M 910.0617082905982,699.6710534165613 L 952.7252639670771,872.3311417001431 A 392.8,392.8 0 0,1 935.3137449480462,876.2161582631971 L 900.5338213231585,701.7970022576103 A 214.94701276319745,214.94701276319745 0 0 0 910.0617082905982,699.6710534165613 Z "/><path class="wedge" fill="rgb(127,173,212)" d=" M 889.3501828835042,645.7117503532528 L 935.3137449480462,876.2161582631971 A 392.8,392.8 0 0,1 900.0516220658989,881.5960863906507 L 875.1880958701629,647.8724543619469 A 157.75759722217143,157.75759722217143 0 0 0 889.3501828835042,645.7117503532528 Z "/><path class="wedge" fill="rgb(127,173,212)" d=" M 889.3501828835042,645.7117503532528 L 935.3137449480462,876.2161582631971 A 392.8,392.8 0 0,1 900.0516220658989,881.5960863906507 L 875.1880958701629,647.8724543619469 A 157.75759722217143,157.75759722217143 0 0 0 889.3501828835042,645.7117503532528 Z "/><path class="wedge" fill="rgb(127,173,212)" d=" M 889.3501828835042,645.7117503532528 L 935.3137449480462,876.2161582631971 A 392.8,392.8 0 0,1 900.0516220658989,881.5960863906507 L 875.1880958701629,647.8724543619469 A 157.75759722217143,157.75759722217143 0 0 0 889.3501828835042,645.7117503532528 Z "/><path class="wedge" fill="rgb(127,173,212)" d=" M 889.3501828835042,645.7117503532528 L 935.3137449480462,876.2161582631971 A 392.8,392.8 0 0,1 900.0516220658989,881.5960863906507 L 875.1880958701629,647.8724543619469 A 157.75759722217143,157.75759722217143 0 0 0 889.3501828835042,645.7117503532528 Z "/><path class="wedge" fill="url(#hiddenPattern)" d=" M 889.3501828835042,645.7117503532528 L 935.3137449480462,876.2161582631971 A 392.8,392.8 0 0,1 900.0516220658989,881.5960863906507 L 875.1880958701629,647.8724543619469 A 157.75759722217143,157.75759722217143 0 0 0 889.3501828835042,645.7117503532528 Z "/><path class="wedge" fill="rgb(114,162,208)" d=" M 875.1880958701629,647.8724543619469 L 900.0516220658989,881.5960863906507 A 392.8,392.8 0 0,1 858.5000000000001,883.8 L 858.5,648.7575972221714 A 157.75759722217143,157.75759722217143 0 0 0 875.1880958701629,647.8724543619469 Z "/><path class="wedge" fill="url(#hiddenPattern)" d=" M 875.1880958701629,647.8724543619469 L 900.0516220658989,881.5960863906507 A 392.8,392.8 0 0,1 858.5000000000001,883.8 L 858.5,648.7575972221714 A 157.75759722217143,157.75759722217143 0 0 0 875.1880958701629,647.8724543619469 Z "/><circle cx="858.5" cy="491" r="88"/><circle cx="858.5" cy="491" r="392.8"/><text x="858.5" y="491" text-anchor="middle" style="font-color:black;font-weight:bold" transform="rotate(360,858.5,491)">all</text><path class="line" d=" M 916.4702415689579,424.7923637905969 A 88,88 0 1 0 858.5,579"/><line x1="1117.2580782759846" y1="195.4731874653006" x2="916.4702415689579" y2="424.7923637905969"/><text x="858.5" y="368.1212013889143" text-anchor="middle" style="font-color:black;font-weight:normal" transform="rotate(290.60240963855426,858.5,491)">Environmental</text><path class="line" d=" M 783.9690688439675,351.9582804251629 A 157.75759722217143,157.75759722217143 0 0 0 858.5,648.7575972221714"/><line x1="672.9257375011853" y1="144.80058766944592" x2="783.9690688439675" y2="351.9582804251629"/><text x="858.5" y="665.9144218844792" text-anchor="middle" style="font-color:black;font-weight:normal" transform="rotate(75.90361445783132,858.5,491)">Aquatic</text><line x1="556.2218256610353" y1="741.8380858607849" x2="693.0881094763913" y2="628.2629766879179"/><path class="line" d=" M 693.0881094763913,628.2629766879179 A 214.94701276319745,214.94701276319745 0 0 0 858.5,705.9470127631974"/><text x="858.5" y="720.2659839796803" text-anchor="middle" style="font-color:black;font-weight:normal" transform="rotate(25.156626506024093,858.5,491)">Marine</text><path class="line" d=" M 729.1757356045944,719.635949202376 A 262.67691681814034,262.67691681814034 0 0 0 858.5,753.6769168181404"/><line x1="665.1119715814814" y1="832.8960521333908" x2="729.1757356045944" y2="719.635949202376"/><text x="858.5" y="765.8070652553706" text-anchor="middle" style="font-color:black;font-weight:normal" transform="rotate(14.746987951807228,858.5,491)">Sediment</text><path class="line" d=" M 768.1130090424251,780.3204375170817 A 303.11074494224107,303.11074494224107 0 0 0 858.5,794.1107449422411"/><line x1="741.3678605408697" y1="865.9291958566669" x2="768.1130090424251" y2="780.3204375170817"/><text x="510.54462752887946" y="491" text-anchor="end" style="font-color:black;font-weight:normal" transform="rotate(-81.32530120481927,858.5,491)">hydrothermal vent sediment&#160;&#160;&#160;5%</text><path class="line" d=" M 729.6493784721791,765.3604217654846 A 303.11074494224107,303.11074494224107 0 0 0 768.1130090424251,780.3204375170817"/><line x1="691.5229957840246" y1="846.5425713793752" x2="729.6493784721791" y2="765.3604217654846"/><text x="510.54462752887946" y="491" text-anchor="end" style="font-color:black;font-weight:normal" transform="rotate(-68.74698795180723,858.5,491)">marine sediment&#160;&#160;&#160;2%</text><path class="line" d=" M 713.2802553224501,757.0589210216931 A 303.11074494224107,303.11074494224107 0 0 0 729.6493784721791,765.3604217654846"/><line x1="670.3103146748848" y1="835.7846898242933" x2="713.2802553224501" y2="757.0589210216931"/><text x="510.54462752887946" y="491" text-anchor="end" style="font-color:black;font-weight:normal" transform="rotate(-63.10843373493976,858.5,491)">Marine hydrothermal vent&#160;&#160;&#160;1%</text><path class="line" d=" M 709.2688661994694,754.8298550279108 A 303.11074494224107,303.11074494224107 0 0 0 713.2802553224501,757.0589210216931"/><line x1="563.95471469727" y1="750.8748062162498" x2="661.528901714255" y2="664.7859288584424"/><path class="line" d=" M 661.528901714255,664.7859288584424 A 262.67691681814034,262.67691681814034 0 0 0 729.1757356045944,719.635949202376"/><text x="530.7615415909298" y="491" text-anchor="end" style="font-color:black;font-weight:normal" transform="rotate(-50.96385542168673,858.5,491)">hydrothermal vent microbial mat&#160;&#160;&#160;5%</text><path class="line" d=" M 656.3576913014879,658.7428080816571 A 262.67691681814034,262.67691681814034 0 0 0 661.528901714255,664.7859288584424"/><line x1="479.798938658557" y1="595.294516341295" x2="651.2681724399298" y2="548.0717788572908"/><path class="line" d=" M 651.2681724399298,548.0717788572908 A 214.94701276319745,214.94701276319745 0 0 0 693.0881094763913,628.2629766879179"/><text x="858.5" y="739.3579456016575" text-anchor="middle" style="font-color:black;font-weight:normal" transform="rotate(62.457831325301214,858.5,491)">Sediment</text><path class="line" d=" M 627.4576454782393,615.9743695568227 A 262.67691681814034,262.67691681814034 0 0 0 656.3576913014879,658.7428080816571"/><line x1="513.0054740421706" y1="677.8833126129103" x2="627.4576454782393" y2="615.9743695568227"/><text x="530.7615415909298" y="491" text-anchor="end" style="font-color:black;font-weight:normal" transform="rotate(-34.04819277108434,858.5,491)">Sediment&#160;&#160;&#160;3%</text><path class="line" d=" M 615.5337901261964,590.8327776266044 A 262.67691681814034,262.67691681814034 0 0 0 627.4576454782393,615.9743695568227"/><line x1="495.17486129165957" y1="640.2872519090803" x2="615.5337901261964" y2="590.8327776266044"/><text x="530.7615415909298" y="491" text-anchor="end" style="font-color:black;font-weight:normal" transform="rotate(-25.373493975903607,858.5,491)">marine sediment&#160;&#160;&#160;2%</text><path class="line" d=" M 609.9369469316296,575.9445188250231 A 262.67691681814034,262.67691681814034 0 0 0 615.5337901261964,590.8327776266044"/><line x1="486.8054924355911" y1="618.0237499306785" x2="609.9369469316296" y2="575.9445188250231"/><text x="530.7615415909298" y="491" text-anchor="end" style="font-color:black;font-weight:normal" transform="rotate(-20.602409638554214,858.5,491)">Marine sediment&#160;&#160;&#160;1%</text><line x1="1243.05" y1="491" x2="1259.55" y2="491" class="tick" transform="rotate(162.86746987951807,858.5,491)"/><text x="454.7" y="491" text-anchor="end" style="font-color:black;font-weight:normal" transform="rotate(-17.132530120481913,858.5,491)">2 more</text><path class="line" d=" M 605.2514582766607,560.7448115925929 A 262.67691681814034,262.67691681814034 0 0 0 609.9369469316296,575.9445188250231"/><line x1="465.92789146709623" y1="477.62167416938706" x2="643.6776934233774" y2="483.6791467080882"/><path class="line" d=" M 643.6776934233774,483.6791467080882 A 214.94701276319745,214.94701276319745 0 0 0 651.2681724399298,548.0717788572908"/><text x="858.5" y="720.2659839796803" text-anchor="middle" style="font-color:black;font-weight:normal" transform="rotate(83.27710843373495,858.5,491)">Freshwater</text><path class="line" d=" M 596.0507281768226,501.9335423613844 A 262.67691681814034,262.67691681814034 0 0 0 605.2514582766607,560.7448115925929"/><line x1="466.04041420580313" y1="507.3497253263604" x2="596.0507281768226" y2="501.9335423613844"/><text x="858.5" y="781.9805965050109" text-anchor="middle" style="font-color:black;font-weight:normal" transform="rotate(81.10843373493977,858.5,491)">Sediment</text><path class="line" d=" M 556.5371344693515,517.3543457509355 A 303.11074494224107,303.11074494224107 0 0 0 566.2689388655242,571.4806225600831"/><line x1="467.18753233066514" y1="525.1524910736506" x2="556.5371344693515" y2="517.3543457509355"/><text x="510.54462752887946" y="491" text-anchor="end" style="font-color:black;font-weight:normal" transform="rotate(-10.192771084337336,858.5,491)">sediment&#160;&#160;&#160;3%</text><line x1="1243.05" y1="491" x2="1259.55" y2="491" class="tick" transform="rotate(176.3132530120482,858.5,491)"/><text x="454.7" y="491" text-anchor="end" style="font-color:black;font-weight:normal" transform="rotate(-3.686746987951816,858.5,491)">2 more</text><path class="line" d=" M 555.6519414210734,503.61654130161435 A 303.11074494224107,303.11074494224107 0 0 0 556.5371344693515,517.3543457509355"/><path class="line" d=" M 595.9754809108465,482.05351990485264 A 262.67691681814034,262.67691681814034 0 0 0 596.0507281768226,501.9335423613844"/><text x="858.5" y="765.8070652553706" text-anchor="middle" style="font-color:black;font-weight:normal" transform="rotate(89.7831325301205,858.5,491)">Unclassified</text><path class="line" d=" M 555.3914263304914,489.85271299303366 A 303.11074494224107,303.11074494224107 0 0 0 555.6519414210734,503.61654130161435"/><line x1="465.70281374363503" y1="489.51323536411667" x2="555.3914263304914" y2="489.85271299303366"/><text x="510.54462752887946" y="491" text-anchor="end" style="font-color:black;font-weight:normal" transform="rotate(-1.084337349397578,858.5,491)">Anoxic lake water&#160;&#160;&#160;0.7%</text><path class="line" d=" M 555.5651113519482,480.6763892347324 A 303.11074494224107,303.11074494224107 0 0 0 555.3914263304914,489.85271299303366"/><path class="line" d=" M 647.2392973647877,451.36246957871106 A 214.94701276319745,214.94701276319745 0 0 0 643.6776934233774,483.6791467080882"/><line x1="472.43646309226824" y1="418.5653020280164" x2="647.2392973647877" y2="451.36246957871106"/><text x="858.5" y="242.6420543983425" text-anchor="middle" style="font-color:black;font-weight:normal" transform="rotate(276.28915662650604,858.5,491)">Unclassified</text><line x1="468.0639862150089" y1="447.9702528512397" x2="597.4039503161752" y2="462.22474207611884"/><path class="line" d=" M 597.4039503161752,462.22474207611884 A 262.67691681814034,262.67691681814034 0 0 0 595.9754809108465,482.05351990485264"/><text x="530.7615415909298" y="491" text-anchor="end" style="font-color:black;font-weight:normal" transform="rotate(4.1204819277108475,858.5,491)">Marine Sediment&#160;&#160;&#160;1%</text><line x1="470.4204237668132" y1="430.28688353683236" x2="598.9797694373117" y2="450.399352741941"/><path class="line" d=" M 598.9797694373117,450.399352741941 A 262.67691681814034,262.67691681814034 0 0 0 597.4039503161752,462.22474207611884"/><text x="530.7615415909298" y="491" text-anchor="end" style="font-color:black;font-weight:normal" transform="rotate(7.590361445783149,858.5,491)">marine&#160;&#160;&#160;0.7%</text><path class="line" d=" M 600.3279542494163,442.5607863189057 A 262.67691681814034,262.67691681814034 0 0 0 598.9797694373117,450.399352741941"/><line x1="485.8545689739018" y1="366.7936284429276" x2="654.5819189946183" y2="423.0321065877075"/><path class="line" d=" M 654.5819189946183,423.0321065877075 A 214.94701276319745,214.94701276319745 0 0 0 647.2392973647877,451.36246957871106"/><text x="554.6264936184012" y="491" text-anchor="end" style="font-color:black;font-weight:normal" transform="rotate(14.530120481927698,858.5,491)">Marine sediment&#160;&#160;&#160;2%</text><line x1="506.1809923092092" y1="317.3245647197724" x2="665.7048924571551" y2="395.96177188433563"/><path class="line" d=" M 665.7048924571551,395.96177188433563 A 214.94701276319745,214.94701276319745 0 0 0 654.5819189946183,423.0321065877075"/><text x="554.6264936184012" y="491" text-anchor="end" style="font-color:black;font-weight:normal" transform="rotate(22.337349397590366,858.5,491)">Deep subsurface&#160;&#160;&#160;2%</text><line x1="526.5297110077242" y1="281.0296039285897" x2="676.8400663314026" y2="376.10053613988026"/><path class="line" d=" M 676.8400663314026,376.10053613988026 A 214.94701276319745,214.94701276319745 0 0 0 665.7048924571551,395.96177188433563"/><text x="554.6264936184012" y="491" text-anchor="end" style="font-color:black;font-weight:normal" transform="rotate(29.277108433734963,858.5,491)">Sediment&#160;&#160;&#160;2%</text><path class="line" d=" M 690.013747334396,357.5286511699068 A 214.94701276319745,214.94701276319745 0 0 0 676.8400663314026,376.10053613988026"/><line x1="550.6036529130093" y1="247.09083770697055" x2="690.013747334396" y2="357.5286511699068"/><text x="858.5" y="261.7340160203197" text-anchor="middle" style="font-color:black;font-weight:normal" transform="rotate(305.3493975903615,858.5,491)">We...ds</text><line x1="546.9462473615278" y1="251.78022820660146" x2="650.1548391899302" y2="331.0267003649973"/><path class="line" d=" M 650.1548391899302,331.0267003649973 A 262.67691681814034,262.67691681814034 0 0 0 636.5017006422656,350.5866184747408"/><text x="530.7615415909298" y="491" text-anchor="end" style="font-color:black;font-weight:normal" transform="rotate(34.91566265060242,858.5,491)">marine sediment&#160;&#160;&#160;1%</text><path class="line" d=" M 652.6006538890563,327.89076696835946 A 262.67691681814034,262.67691681814034 0 0 0 650.1548391899302,331.0267003649973"/><line x1="578.1326709364919" y1="215.88911182253344" x2="705.0781062662998" y2="340.45452242266674"/><path class="line" d=" M 705.0781062662998,340.45452242266674 A 214.94701276319745,214.94701276319745 0 0 0 690.013747334396,357.5286511699068"/><text x="858.5" y="242.6420543983425" text-anchor="middle" style="font-color:black;font-weight:normal" transform="rotate(311.4216867469879,858.5,491)">Un...ed</text><path class="line" d=" M 668.2462974954796,309.88486724625784 A 262.67691681814034,262.67691681814034 0 0 0 652.6006538890563,327.89076696835946"/><line x1="573.9997277681816" y1="220.16529930597653" x2="668.2462974954796" y2="309.88486724625784"/><text x="530.7615415909298" y="491" text-anchor="end" style="font-color:black;font-weight:normal" transform="rotate(40.98795180722891,858.5,491)">saline water&#160;&#160;&#160;1%</text><path class="line" d=" M 671.010118190073,307.025254863653 A 262.67691681814034,262.67691681814034 0 0 0 668.2462974954796,309.88486724625784"/><line x1="604.2457439275609" y1="191.58955718103192" x2="719.367635373982" y2="327.1573821943907"/><path class="line" d=" M 719.367635373982,327.1573821943907 A 214.94701276319745,214.94701276319745 0 0 0 705.0781062662998,340.45452242266674"/><text x="858.5" y="261.7340160203197" text-anchor="middle" style="font-color:black;font-weight:normal" transform="rotate(317.0602409638554,858.5,491)">Ma...ne</text><line x1="590.9132347961468" y1="203.44276554442604" x2="679.5568572681063" y2="298.7020169156281"/><path class="line" d=" M 679.5568572681063,298.7020169156281 A 262.67691681814034,262.67691681814034 0 0 0 671.010118190073,307.025254863653"/><text x="530.7615415909298" y="491" text-anchor="end" style="font-color:black;font-weight:normal" transform="rotate(45.7590361445783,858.5,491)">Marine sediment&#160;&#160;&#160;0.7%</text><line x1="1243.05" y1="491" x2="1259.55" y2="491" class="tick" transform="rotate(228.36144578313255,858.5,491)"/><text x="454.7" y="491" text-anchor="end" style="font-color:black;font-weight:normal" transform="rotate(48.361445783132545,858.5,491)">2 more</text><path class="line" d=" M 688.4726983884973,290.77542774225907 A 262.67691681814034,262.67691681814034 0 0 0 679.5568572681063,298.7020169156281"/><line x1="627.6179528995165" y1="173.21812460952066" x2="732.1573158734706" y2="317.1042137844446"/><path class="line" d=" M 732.1573158734706,317.1042137844446 A 214.94701276319745,214.94701276319745 0 0 0 719.367635373982,327.1573821943907"/><text x="858.5" y="242.6420543983425" text-anchor="middle" style="font-color:black;font-weight:normal" transform="rotate(321.83132530120486,858.5,491)">Se...nt</text><path class="line" d=" M 697.7392510439785,283.2618373428146 A 262.67691681814034,262.67691681814034 0 0 0 688.4726983884973,290.77542774225907"/><line x1="618.1026976605492" y1="180.35393608172876" x2="697.7392510439785" y2="283.2618373428146"/><text x="530.7615415909298" y="491" text-anchor="end" style="font-color:black;font-weight:normal" transform="rotate(50.96385542168678,858.5,491)">Marine sediment&#160;&#160;&#160;0.7%</text><path class="line" d=" M 704.1023821766404,278.48991026411005 A 262.67691681814034,262.67691681814034 0 0 0 697.7392510439785,283.2618373428146"/><line x1="647.2745864057481" y1="159.82683585179" x2="742.9137686564274" y2="309.7762669526635"/><path class="line" d=" M 742.9137686564274,309.7762669526635 A 214.94701276319745,214.94701276319745 0 0 0 732.1573158734706,317.1042137844446"/><text x="554.6264936184012" y="491" text-anchor="end" style="font-color:black;font-weight:normal" transform="rotate(55.73493975903612,858.5,491)">Marine&#160;&#160;&#160;1%</text><line x1="1243.05" y1="491" x2="1259.55" y2="491" class="tick" transform="rotate(239.63855421686753,858.5,491)"/><text x="454.7" y="491" text-anchor="end" style="font-color:black;font-weight:normal" transform="rotate(59.638554216867504,858.5,491)">4 more</text><path class="line" d=" M 756.9505260441607,301.5536418003384 A 214.94701276319745,214.94701276319745 0 0 0 742.9137686564274,309.7762669526635"/><path class="line" d=" M 962.4232502307686,372.3095726573288 A 157.75759722217143,157.75759722217143 0 0 0 783.9690688439675,351.9582804251629"/><text x="858.5" y="293.2098118991104" text-anchor="middle" style="font-color:black;font-weight:normal" transform="rotate(366.5060240963856,858.5,491)">Terrestrial</text><line x1="920.6815791890003" y1="103.15300541378167" x2="892.5268449479986" y2="278.7633582090335"/><path class="line" d=" M 892.5268449479986,278.7633582090335 A 214.94701276319745,214.94701276319745 0 0 0 756.9505260441607,301.5536418003384"/><text x="554.6264936184012" y="491" text-anchor="end" style="font-color:black;font-weight:normal" transform="rotate(80.45783132530121,858.5,491)">Soil&#160;&#160;&#160;10%</text><line x1="995.3261944270303" y1="122.80109652713992" x2="933.3736806513406" y2="289.51513644558"/><path class="line" d=" M 933.3736806513406,289.51513644558 A 214.94701276319745,214.94701276319745 0 0 0 892.5268449479986,278.7633582090335"/><text x="1162.3735063815989" y="491" text-anchor="start" style="font-color:black;font-weight:normal" transform="rotate(284.7469879518072,858.5,491)">3%&#160;&#160;&#160;soil</text><line x1="1054.470650788424" y1="150.57769751445255" x2="965.738559002626" y2="304.7149770946079"/><path class="line" d=" M 965.738559002626,304.7149770946079 A 214.94701276319745,214.94701276319745 0 0 0 933.3736806513406,289.51513644558"/><text x="1162.3735063815989" y="491" text-anchor="start" style="font-color:black;font-weight:normal" transform="rotate(295.1566265060241,858.5,491)">3%&#160;&#160;&#160;oil reservoir</text><line x1="1094.1666846490475" y1="176.7500139275637" x2="987.4609212655785" y2="319.0369252363886"/><path class="line" d=" M 987.4609212655785,319.0369252363886 A 214.94701276319745,214.94701276319745 0 0 0 965.738559002626,304.7149770946079"/><text x="1162.3735063815989" y="491" text-anchor="start" style="font-color:black;font-weight:normal" transform="rotate(303.3975903614458,858.5,491)">2%&#160;&#160;&#160;tar</text><line x1="1108.1921533407387" y1="187.77455819132683" x2="995.1359024210846" y2="325.0697481910004"/><path class="line" d=" M 995.1359024210846,325.0697481910004 A 214.94701276319745,214.94701276319745 0 0 0 987.4609212655785,319.0369252363886"/><text x="1162.3735063815989" y="491" text-anchor="start" style="font-color:black;font-weight:normal" transform="rotate(308.16867469879514,858.5,491)">0.7%&#160;&#160;&#160;Soil</text><path class="line" d=" M 1000.0969347091867,329.2825724395033 A 214.94701276319745,214.94701276319745 0 0 0 995.1359024210846,325.0697481910004"/><path class="line" d=" M 858.5,579 A 88,88 0 0 0 916.4702415689579,424.7923637905969"/><line x1="858.5000000000001" y1="883.8" x2="858.5" y2="579"/><text x="858.5" y="633.8095406745633" text-anchor="middle" style="font-color:black;font-weight:normal" transform="rotate(290.60240963855426,858.5,491)">Engineered</text><path class="line" d=" M 968.5639233296054,604.0194331192987 A 157.75759722217143,157.75759722217143 0 0 0 962.4232502307686,372.3095726573288"/><line x1="1132.5477152614299" y1="772.4066270719121" x2="968.5639233296054" y2="604.0194331192987"/><text x="858.5" y="316.0855781155208" text-anchor="middle" style="font-color:black;font-weight:normal" transform="rotate(448.48192771084337,858.5,491)">Bioreactor</text><line x1="1230.194507564409" y1="618.0237499306784" x2="1061.8977190973967" y2="560.5096120101291"/><path class="line" d=" M 1061.8977190973967,560.5096120101291 A 214.94701276319745,214.94701276319745 0 0 0 1000.0969347091867,329.2825724395033"/><text x="858.5" y="261.7340160203197" text-anchor="middle" style="font-color:black;font-weight:normal" transform="rotate(435.03614457831327,858.5,491)">Unclassified</text><path class="line" d=" M 1119.3707388954213,521.7509384774042 A 262.67691681814034,262.67691681814034 0 0 0 1031.5391400288256,293.37252557610134"/><line x1="1248.5990900889278" y1="536.984126737284" x2="1119.3707388954213" y2="521.7509384774042"/><text x="1186.23845840907" y="491" text-anchor="start" style="font-color:black;font-weight:normal" transform="rotate(338.9638554216868,858.5,491)">15%&#160;&#160;&#160;Anaerobic digestor sludge</text><path class="line" d=" M 1107.0630530683704,575.944518825023 A 262.67691681814034,262.67691681814034 0 0 0 1119.3707388954213,521.7509384774042"/><text x="1186.23845840907" y="491" text-anchor="start" style="font-color:black;font-weight:normal" transform="rotate(372.7951807228916,858.5,491)">3%&#160;&#160;&#160;activated sludge</text><line x1="1168.2339246971276" y1="732.5713888102523" x2="1027.9918071921302" y2="623.1920783956737"/><path class="line" d=" M 1027.9918071921302,623.1920783956737 A 214.94701276319745,214.94701276319745 0 0 0 1061.8977190973967,560.5096120101291"/><text x="858.5" y="739.3579456016575" text-anchor="middle" style="font-color:black;font-weight:normal" transform="rotate(298.4096385542169,858.5,491)">Unclassified</text><path class="line" d=" M 1087.623809232717,619.4579412561707 A 262.67691681814034,262.67691681814034 0 0 0 1107.0630530683704,575.944518825023"/><line x1="1201.1255849078698" y1="683.0925520850305" x2="1087.623809232717" y2="619.4579412561707"/><text x="1186.23845840907" y="491" text-anchor="start" style="font-color:black;font-weight:normal" transform="rotate(384.07228915662654,858.5,491)">3%&#160;&#160;&#160;activated sludge</text><path class="line" d=" M 1081.5548719977826,629.7288243557806 A 262.67691681814034,262.67691681814034 0 0 0 1087.623809232717,619.4579412561707"/><line x1="1192.0502593148994" y1="698.4513545652649" x2="1081.5548719977826" y2="629.7288243557806"/><text x="1186.23845840907" y="491" text-anchor="start" style="font-color:black;font-weight:normal" transform="rotate(390.5783132530121,858.5,491)">0.7%&#160;&#160;&#160;anaerobic sludge</text><path class="line" d=" M 1075.0258444371993,639.7135545935272 A 262.67691681814034,262.67691681814034 0 0 0 1081.5548719977826,629.7288243557806"/><line x1="1182.2869270173278" y1="713.3822517483705" x2="1075.0258444371993" y2="639.7135545935272"/><text x="1186.23845840907" y="491" text-anchor="start" style="font-color:black;font-weight:normal" transform="rotate(393.18072289156635,858.5,491)">0.7%&#160;&#160;&#160;sludge</text><line x1="1243.05" y1="491" x2="1259.55" y2="491" class="tick" transform="rotate(396.2168674698795,858.5,491)"/><text x="1262.3" y="491" text-anchor="start" style="font-color:black;font-weight:normal" transform="rotate(396.2168674698795,858.5,491)">3 more</text><path class="line" d=" M 1065.6281883233796,652.5458951225899 A 262.67691681814034,262.67691681814034 0 0 0 1075.0258444371993,639.7135545935272"/><line x1="1145.0423473581359" y1="759.6732647110416" x2="1015.3009714734873" y2="638.0226977061461"/><path class="line" d=" M 1015.3009714734873,638.0226977061461 A 214.94701276319745,214.94701276319745 0 0 0 1027.9918071921302,623.1920783956737"/><text x="1162.3735063815989" y="491" text-anchor="start" style="font-color:black;font-weight:normal" transform="rotate(400.55421686746996,858.5,491)">1%&#160;&#160;&#160;Anaerobic digester inoculum</text><line x1="1243.05" y1="491" x2="1259.55" y2="491" class="tick" transform="rotate(404.45783132530124,858.5,491)"/><text x="1262.3" y="491" text-anchor="start" style="font-color:black;font-weight:normal" transform="rotate(404.45783132530124,858.5,491)">2 more</text><path class="line" d=" M 1008.4636908096326,644.9906157354242 A 214.94701276319745,214.94701276319745 0 0 0 1015.3009714734873,638.0226977061461"/><line x1="1041.4482051199739" y1="838.5942954701356" x2="931.976245559664" y2="630.6019370201174"/><path class="line" d=" M 931.976245559664,630.6019370201174 A 157.75759722217143,157.75759722217143 0 0 0 968.5639233296054,604.0194331192987"/><text x="1133.7787986110857" y="491" text-anchor="start" style="font-color:black;font-weight:normal" transform="rotate(413.99999999999994,858.5,491)">5%&#160;&#160;&#160;wastewater</text><path class="line" d=" M 889.3501828835042,645.7117503532528 A 157.75759722217143,157.75759722217143 0 0 0 931.976245559664,630.6019370201174"/><line x1="935.3137449480462" y1="876.2161582631971" x2="889.3501828835042" y2="645.7117503532528"/><text x="858.5" y="688.7901881008896" text-anchor="middle" style="font-color:black;font-weight:normal" transform="rotate(340.48192771084337,858.5,491)">Wastewater</text><path class="line" d=" M 922.5967501917065,696.1677969630813 A 214.94701276319745,214.94701276319745 0 0 0 958.6124495441118,681.2096625886809"/><line x1="975.6321394591304" y1="865.9291958566669" x2="922.5967501917065" y2="696.1677969630813"/><text x="858.5" y="720.2659839796803" text-anchor="middle" style="font-color:black;font-weight:normal" transform="rotate(337.44578313253015,858.5,491)">Unclassified</text><line x1="992.5349970125977" y1="860.2241318980016" x2="948.1331460310536" y2="737.9110401777532"/><path class="line" d=" M 948.1331460310536,737.9110401777532 A 262.67691681814034,262.67691681814034 0 0 0 980.8428473990007,723.4465321732915"/><text x="1186.23845840907" y="491" text-anchor="start" style="font-color:black;font-weight:normal" transform="rotate(426.144578313253,858.5,491)">2%&#160;&#160;&#160;biosolids</text><path class="line" d=" M 936.8297078753483,741.7261842992208 A 262.67691681814034,262.67691681814034 0 0 0 948.1331460310536,737.9110401777532"/><text x="1186.23845840907" y="491" text-anchor="start" style="font-color:black;font-weight:normal" transform="rotate(431.3493975903615,858.5,491)">0.7%&#160;&#160;&#160;Unclassified</text><line x1="952.7252639670771" y1="872.3311417001431" x2="910.0617082905982" y2="699.6710534165613"/><path class="line" d=" M 910.0617082905982,699.6710534165613 A 214.94701276319745,214.94701276319745 0 0 0 922.5967501917065,696.1677969630813"/><text x="858.5" y="739.3579456016575" text-anchor="middle" style="font-color:black;font-weight:normal" transform="rotate(344.38554216867465,858.5,491)">Unclassified</text><path class="line" d=" M 925.364700772587,745.024161094327 A 262.67691681814034,262.67691681814034 0 0 0 936.8297078753483,741.7261842992208"/><line x1="958.487676045611" y1="870.8609016982373" x2="925.364700772587" y2="745.024161094327"/><text x="1186.23845840907" y="491" text-anchor="start" style="font-color:black;font-weight:normal" transform="rotate(433.95180722891564,858.5,491)">0.7%&#160;&#160;&#160;Hydrocarbon resource environments</text><path class="line" d=" M 921.5112062760877,746.0073538404658 A 262.67691681814034,262.67691681814034 0 0 0 925.364700772587,745.024161094327"/><path class="line" d=" M 900.5338213231585,701.7970022576103 A 214.94701276319745,214.94701276319745 0 0 0 910.0617082905982,699.6710534165613"/><text x="1162.3735063815989" y="491" text-anchor="start" style="font-color:black;font-weight:normal" transform="rotate(437.42168674698803,858.5,491)">0.7%&#160;&#160;&#160;MBR feed</text><line x1="900.0516220658989" y1="881.5960863906507" x2="875.1880958701629" y2="647.8724543619469"/><path class="line" d=" M 875.1880958701629,647.8724543619469 A 157.75759722217143,157.75759722217143 0 0 0 889.3501828835042,645.7117503532528"/><text x="1133.7787986110857" y="491" text-anchor="start" style="font-color:black;font-weight:normal" transform="rotate(441.32530120481925,858.5,491)">1%&#160;&#160;&#160;Unclassified</text><line x1="1243.05" y1="491" x2="1259.55" y2="491" class="tick" transform="rotate(446.9638554216868,858.5,491)"/><text x="1262.3" y="491" text-anchor="start" style="font-color:black;font-weight:normal" transform="rotate(446.9638554216868,858.5,491)">3 more</text><path class="line" d=" M 858.5,648.7575972221714 A 157.75759722217143,157.75759722217143 0 0 0 875.1880958701629,647.8724543619469"/></svg>