<?xml version="1.0" standalone="no"?><!DOCTYPE svg PUBLIC "-//W3C//DTD SVG 1.1//EN" 	"http://www.w3.org/Graphics/SVG/1.1/DTD/svg11.dtd"><svg width="1867" height="982" version="1.1"	xmlns="http://www.w3.org/2000/svg"><title>Krona (snapshot) - Archaea</title><defs>	<style type="text/css">	text {font-size: 11px; font-family: sans-serif; dominant-baseline:central}	path {stroke-width:0.27499999999999997;}	path.wedge {stroke:none}	path.line {fill:none;stroke:black;}	line {stroke:black;stroke-width:0.27499999999999997;}	line.tick {stroke-width:0.5499999999999999;}	line.pattern {stroke-width:0.18333333333333332;}	circle {fill:none;stroke:black;stroke-width:0.27499999999999997;}	rect {stroke:black;stroke-width:0.27499999999999997;}	.highlight {stroke:black;stroke-width:1.375;}	.searchHighlight {fill:rgb(255, 255, 100);stroke:none;}	</style><pattern id="hiddenPattern" patternUnits="userSpaceOnUse" x="0" y="0" width="6.6" height="6.6"><line class="pattern" x1="0" y1="0" x2="3.3" y2="3.3"/><line class="pattern" x1="3.3" y1="6.6" x2="6.6" y2="3.3"/></pattern></defs><path class="wedge" fill="rgb(220,220,220)" d=" M 928.0882648505175,437.1346735358057 L 1192.4129626793126,232.5321278094239 A 422.26,422.26 0 0,1 858.5000000000001,913.26 L 858.5,579 A 88,88 0 0 0 928.0882648505175,437.1346735358057 Z "/><path class="wedge" fill="rgb(207,112,112)" d=" M 858.5,579 L 858.5,913.26 A 422.26,422.26 0 0,1 800.3320843916392,72.76561452484731 L 846.3776664293664,403.8389477530113 A 88,88 0 0 0 858.5,579 Z "/><path class="wedge" fill="rgb(207,112,112)" d=" M 793.6910100577247,634.6594940465534 L 684.8580509050579,875.9051585969062 A 422.26,422.26 0 0,1 800.3320843916392,72.76561452484731 L 836.7897860956159,334.9009224265707 A 157.601571715036,157.601571715036 0 0 0 793.6910100577247,634.6594940465534 Z "/><path class="wedge" fill="rgb(211,123,123)" d=" M 858.5,648.601571715036 L 858.5,913.26 A 422.26,422.26 0 0,1 796.4814635371043,908.6807497778661 L 835.3526054515734,646.8924421922663 A 157.601571715036,157.601571715036 0 0 0 858.5,648.601571715036 Z "/><path class="wedge" fill="rgb(214,134,134)" d=" M 858.5,705.663072764768 L 858.5,913.26 A 422.26,422.26 0 0,1 796.4814635371043,908.6807497778661 L 826.9718192452541,703.3351328139273 A 214.663072764768,214.663072764768 0 0 0 858.5,705.663072764768 Z "/><path class="wedge" fill="rgb(214,134,134)" d=" M 824.7639534816041,751.1075556248104 L 804.1876423404138,909.752522864588 A 422.26,422.26 0 0,1 796.4814635371043,908.6807497778661 L 819.977271080207,750.4418252409919 A 262.2862202400371,262.2862202400371 0 0 0 824.7639534816041,751.1075556248104 Z "/><path class="wedge" fill="rgb(218,145,145)" d=" M 858.5,753.2862202400371 L 858.5,913.26 A 422.26,422.26 0 0,1 804.1876423404138,909.752522864588 L 824.7639534816041,751.1075556248104 A 262.2862202400371,262.2862202400371 0 0 0 858.5,753.2862202400371 Z "/><path class="wedge" fill="rgb(218,145,145)" d=" M 836.215461868092,792.8080195776085 L 827.4063173715447,912.1136313402843 A 422.26,422.26 0 0,1 804.1876423404138,909.752522864588 L 819.5748646353248,791.115836233199 A 302.6296107804235,302.6296107804235 0 0 0 836.215461868092,792.8080195776085 Z "/><path class="wedge" fill="rgb(222,156,156)" d=" M 858.5,793.6296107804235 L 858.5,913.26 A 422.26,422.26 0 0,1 827.4063173715447,912.1136313402843 L 836.215461868092,792.8080195776085 A 302.6296107804235,302.6296107804235 0 0 0 858.5,793.6296107804235 Z "/><path class="wedge" fill="rgb(225,167,167)" d=" M 858.5,828.2412770331194 L 858.5,913.26 A 422.26,422.26 0 0,1 842.9425961315594,912.9733105124947 L 846.0749567851256,828.0123102143863 A 337.24127703311945,337.24127703311945 0 0 0 858.5,828.2412770331194 Z "/><path class="wedge" fill="rgb(225,168,167)" d=" M 846.0749567851256,828.0123102143863 L 842.9425961315594,912.9733105124947 A 422.26,422.26 0 0,1 827.4063173715447,912.1136313402843 L 833.6667853045924,827.3257206679575 A 337.24127703311945,337.24127703311945 0 0 0 846.0749567851256,828.0123102143863 Z "/><path class="wedge" fill="url(#hiddenPattern)" d=" M 846.0749567851256,828.0123102143863 L 842.9425961315594,912.9733105124947 A 422.26,422.26 0 0,1 827.4063173715447,912.1136313402843 L 833.6667853045924,827.3257206679575 A 337.24127703311945,337.24127703311945 0 0 0 846.0749567851256,828.0123102143863 Z "/><path class="wedge" fill="rgb(211,126,123)" d=" M 835.3526054515734,646.8924421922663 L 796.4814635371043,908.6807497778661 A 422.26,422.26 0 0,1 750.7775693048097,899.2883607514668 L 818.2943816924975,643.3868880959285 A 157.601571715036,157.601571715036 0 0 0 835.3526054515734,646.8924421922663 Z "/><path class="wedge" fill="rgb(214,136,134)" d=" M 826.9718192452541,703.3351328139273 L 796.4814635371043,908.6807497778661 A 422.26,422.26 0 0,1 750.7775693048097,899.2883607514668 L 803.737465119312,698.5603516624828 A 214.663072764768,214.663072764768 0 0 0 826.9718192452541,703.3351328139273 Z "/><path class="wedge" fill="rgb(214,136,134)" d=" M 800.9775066566996,746.9008090791727 L 765.893350604111,902.9799947663319 A 422.26,422.26 0 0,1 750.7775693048097,899.2883607514668 L 791.5883598207009,744.6077556706838 A 262.2862202400371,262.2862202400371 0 0 0 800.9775066566996,746.9008090791727 Z "/><path class="wedge" fill="rgb(218,147,145)" d=" M 819.977271080207,750.4418252409919 L 796.4814635371043,908.6807497778661 A 422.26,422.26 0 0,1 765.893350604111,902.9799947663319 L 800.9775066566996,746.9008090791727 A 262.2862202400371,262.2862202400371 0 0 0 819.977271080207,750.4418252409919 Z "/><path class="wedge" fill="rgb(218,147,145)" d=" M 797.5811072148936,787.4347648690135 L 773.4996869073625,904.6163129932784 A 422.26,422.26 0 0,1 765.893350604111,902.9799947663319 L 792.1297204036446,786.262031604831 A 302.6296107804235,302.6296107804235 0 0 0 797.5811072148936,787.4347648690135 Z "/><path class="wedge" fill="rgb(222,158,156)" d=" M 814.0519216811026,790.3477069477362 L 796.4814635371043,908.6807497778661 A 422.26,422.26 0 0,1 773.4996869073625,904.6163129932784 L 797.5811072148936,787.4347648690135 A 302.6296107804235,302.6296107804235 0 0 0 814.0519216811026,790.3477069477362 Z "/><path class="wedge" fill="rgb(225,169,167)" d=" M 808.9684070561455,824.58402275195 L 796.4814635371043,908.6807497778661 A 422.26,422.26 0 0,1 773.4996869073625,904.6163129932784 L 790.6138300204233,821.3379282801677 A 337.24127703311945,337.24127703311945 0 0 0 808.9684070561455,824.58402275195 Z "/><path class="wedge" fill="rgb(211,127,123)" d=" M 818.2943816924975,643.3868880959285 L 750.7775693048097,899.2883607514668 A 422.26,422.26 0 0,1 721.0051563563868,890.2476369014829 L 807.182320227001,640.0125872192198 A 157.601571715036,157.601571715036 0 0 0 818.2943816924975,643.3868880959285 Z "/><path class="wedge" fill="rgb(211,127,123)" d=" M 799.9225195153073,697.5161339674883 L 743.2732561036646,897.2342982701588 A 422.26,422.26 0 0,1 721.0051563563868,890.2476369014829 L 788.6021512199845,693.964345501219 A 214.663072764768,214.663072764768 0 0 0 799.9225195153073,697.5161339674883 Z "/><path class="wedge" fill="rgb(211,127,123)" d=" M 803.737465119312,698.5603516624828 L 750.7775693048097,899.2883607514668 A 422.26,422.26 0 0,1 743.2732561036646,897.2342982701588 L 799.9225195153073,697.5161339674883 A 214.663072764768,214.663072764768 0 0 0 803.737465119312,698.5603516624828 Z "/><path class="wedge" fill="url(#hiddenPattern)" d=" M 803.737465119312,698.5603516624828 L 750.7775693048097,899.2883607514668 A 422.26,422.26 0 0,1 743.2732561036646,897.2342982701588 L 799.9225195153073,697.5161339674883 A 214.663072764768,214.663072764768 0 0 0 803.737465119312,698.5603516624828 Z "/><path class="wedge" fill="rgb(211,128,123)" d=" M 807.182320227001,640.0125872192198 L 721.0051563563868,890.2476369014829 A 422.26,422.26 0 0,1 691.9792966198502,879.0391255347586 L 796.348897419114,635.8291954511583 A 157.601571715036,157.601571715036 0 0 0 807.182320227001,640.0125872192198 Z "/><path class="wedge" fill="rgb(214,139,134)" d=" M 788.6021512199845,693.964345501219 L 721.0051563563868,890.2476369014829 A 422.26,422.26 0 0,1 691.9792966198502,879.0391255347586 L 773.8463603785974,688.2663075835856 A 214.663072764768,214.663072764768 0 0 0 788.6021512199845,693.964345501219 Z "/><path class="wedge" fill="rgb(218,149,145)" d=" M 773.095266324591,738.9921224427053 L 721.0051563563868,890.2476369014829 A 422.26,422.26 0 0,1 691.9792966198502,879.0391255347586 L 755.0658933328,732.0299709699264 A 262.2862202400371,262.2862202400371 0 0 0 773.095266324591,738.9921224427053 Z "/><path class="wedge" fill="rgb(222,160,156)" d=" M 759.9587907540808,777.1368752912888 L 721.0051563563868,890.2476369014829 A 422.26,422.26 0 0,1 691.9792966198502,879.0391255347586 L 739.1562410580754,769.1038448542602 A 302.6296107804235,302.6296107804235 0 0 0 759.9587907540808,777.1368752912888 Z "/><path class="wedge" fill="rgb(222,160,156)" d=" M 731.239517867142,803.3082589721921 L 699.1570759719214,882.041353519269 A 422.26,422.26 0 0,1 691.9792966198502,879.0391255347586 L 725.5069278160967,800.9105059303674 A 337.24127703311945,337.24127703311945 0 0 0 731.239517867142,803.3082589721921 Z "/><path class="wedge" fill="rgb(225,170,167)" d=" M 748.6886594613717,809.8622718730434 L 721.0051563563868,890.2476369014829 A 422.26,422.26 0 0,1 699.1570759719214,882.041353519269 L 731.239517867142,803.3082589721921 A 337.24127703311945,337.24127703311945 0 0 0 748.6886594613717,809.8622718730434 Z "/><path class="wedge" fill="rgb(207,119,112)" d=" M 796.348897419114,635.8291954511583 L 691.9792966198502,879.0391255347586 A 422.26,422.26 0 0,1 684.8580509050579,875.9051585969062 L 793.6910100577247,634.6594940465534 A 157.601571715036,157.601571715036 0 0 0 796.348897419114,635.8291954511583 Z "/><path class="wedge" fill="url(#hiddenPattern)" d=" M 796.348897419114,635.8291954511583 L 691.9792966198502,879.0391255347586 A 422.26,422.26 0 0,1 684.8580509050579,875.9051585969062 L 793.6910100577247,634.6594940465534 A 157.601571715036,157.601571715036 0 0 0 796.348897419114,635.8291954511583 Z "/><path class="wedge" fill="rgb(160,207,112)" d=" M 846.3776664293664,403.8389477530113 L 800.3320843916392,72.76561452484731 A 422.26,422.26 0 0,1 1121.5574963578472,160.69065830657894 L 913.3218151837507,422.1627384336166 A 88,88 0 0 0 846.3776664293664,403.8389477530113 Z "/><path class="wedge" fill="rgb(167,211,123)" d=" M 836.7897860956159,334.9009224265707 L 800.3320843916392,72.76561452484731 A 422.26,422.26 0 0,1 1121.5574963578472,160.69065830657894 L 956.6818663321628,367.7174930065788 A 157.601571715036,157.601571715036 0 0 0 836.7897860956159,334.9009224265707 Z "/><path class="wedge" fill="rgb(167,211,123)" d=" M 989.1132148250035,320.6461831308451 L 1115.4269850732242,155.8999672617395 A 422.26,422.26 0 0,1 1121.5574963578472,160.69065830657894 L 992.2297647941606,323.08161263009174 A 214.663072764768,214.663072764768 0 0 0 989.1132148250035,320.6461831308451 Z "/><path class="wedge" fill="rgb(174,214,134)" d=" M 828.9293480300942,278.3834170369423 L 800.3320843916392,72.76561452484731 A 422.26,422.26 0 0,1 1115.4269850732242,155.8999672617395 L 989.1132148250035,320.6461831308451 A 214.663072764768,214.663072764768 0 0 0 828.9293480300942,278.3834170369423 Z "/><path class="wedge" fill="rgb(182,218,145)" d=" M 822.3690789462455,231.21428470446534 L 800.3320843916392,72.76561452484731 A 422.26,422.26 0 0,1 1115.4269850732242,155.8999672617395 L 1018.0898446277753,282.85307396099313 A 262.2862202400371,262.2862202400371 0 0 0 822.3690789462455,231.21428470446534 Z "/><path class="wedge" fill="rgb(182,218,145)" d=" M 1015.015854353275,231.98751254587165 L 1076.8870391558166,129.5991024793163 A 422.26,422.26 0 0,1 1115.4269850732242,155.8999672617395 L 1042.6370565331727,250.83708501850296 A 302.6296107804235,302.6296107804235 0 0 0 1015.015854353275,231.98751254587165 Z "/><path class="wedge" fill="rgb(189,222,156)" d=" M 816.8116239746442,191.25550776456436 L 800.3320843916392,72.76561452484731 A 422.26,422.26 0 0,1 1076.8870391558166,129.5991024793163 L 1015.015854353275,231.98751254587165 A 302.6296107804235,302.6296107804235 0 0 0 816.8116239746442,191.25550776456436 Z "/><path class="wedge" fill="rgb(189,222,156)" d=" M 1005.6227920847986,187.54232093403476 L 1042.712533923082,111.04046275210129 A 422.26,422.26 0 0,1 1076.8870391558166,129.5991024793163 L 1032.916530034551,202.36432482169533 A 337.24127703311945,337.24127703311945 0 0 0 1005.6227920847986,187.54232093403476 Z "/><path class="wedge" fill="rgb(196,225,167)" d=" M 812.0437357502053,156.97381173494426 L 800.3320843916392,72.76561452484731 A 422.26,422.26 0 0,1 1035.6806155483664,107.71089622335734 L 1000.0066950529183,184.88313638394635 A 337.24127703311945,337.24127703311945 0 0 0 812.0437357502053,156.97381173494426 Z "/><path class="wedge" fill="rgb(176,225,167)" d=" M 1000.0066950529183,184.88313638394635 L 1035.6806155483664,107.71089622335734 A 422.26,422.26 0 0,1 1042.712533923082,111.04046275210129 L 1005.6227920847986,187.54232093403476 A 337.24127703311945,337.24127703311945 0 0 0 1000.0066950529183,184.88313638394635 Z "/><path class="wedge" fill="url(#hiddenPattern)" d=" M 1000.0066950529183,184.88313638394635 L 1035.6806155483664,107.71089622335734 A 422.26,422.26 0 0,1 1042.712533923082,111.04046275210129 L 1005.6227920847986,187.54232093403476 A 337.24127703311945,337.24127703311945 0 0 0 1000.0066950529183,184.88313638394635 Z "/><path class="wedge" fill="rgb(112,207,207)" d=" M 913.3218151837507,422.1627384336166 L 1121.5574963578472,160.69065830657894 A 422.26,422.26 0 0,1 1161.8578112126324,197.26960324767055 L 921.7204977660958,429.78587857195805 A 88,88 0 0 0 913.3218151837507,422.1627384336166 Z "/><path class="wedge" fill="rgb(123,211,211)" d=" M 956.6818663321628,367.7174930065788 L 1121.5574963578472,160.69065830657894 A 422.26,422.26 0 0,1 1161.8578112126324,197.26960324767055 L 971.7232933243595,381.36998013392645 A 157.601571715036,157.601571715036 0 0 0 956.6818663321628,367.7174930065788 Z "/><path class="wedge" fill="rgb(134,214,214)" d=" M 992.2297647941606,323.08161263009174 L 1121.5574963578472,160.69065830657894 A 422.26,422.26 0 0,1 1161.8578112126324,197.26960324767055 L 1012.717117183958,341.67714315523733 A 214.663072764768,214.663072764768 0 0 0 992.2297647941606,323.08161263009174 Z "/><path class="wedge" fill="rgb(145,218,218)" d=" M 1021.8978033095891,285.8288051372559 L 1121.5574963578472,160.69065830657894 A 422.26,422.26 0 0,1 1161.8578112126324,197.26960324767055 L 1046.9302886450341,308.5497666514115 A 262.2862202400371,262.2862202400371 0 0 0 1021.8978033095891,285.8288051372559 Z "/><path class="wedge" fill="rgb(156,222,222)" d=" M 1047.0307339924407,254.2705264201726 L 1121.5574963578472,160.69065830657894 A 422.26,422.26 0 0,1 1156.394415813064,191.7301808945756 L 1071.9980133357863,276.5162485809635 A 302.6296107804235,302.6296107804235 0 0 0 1047.0307339924407,254.2705264201726 Z "/><path class="wedge" fill="rgb(167,225,225)" d=" M 1068.5929427482015,227.19584093056807 L 1121.5574963578472,160.69065830657894 A 422.26,422.26 0 0,1 1156.394415813064,191.7301808945756 L 1096.4157230375426,251.9858002828021 A 337.24127703311945,337.24127703311945 0 0 0 1068.5929427482015,227.19584093056807 Z "/><path class="wedge" fill="rgb(145,188,218)" d=" M 1071.9980133357863,276.5162485809635 L 1156.394415813064,191.7301808945756 A 422.26,422.26 0 0,1 1161.8578112126324,197.26960324767055 L 1075.9135753670253,280.4862983859782 A 302.6296107804235,302.6296107804235 0 0 0 1071.9980133357863,276.5162485809635 Z "/><path class="wedge" fill="url(#hiddenPattern)" d=" M 1071.9980133357863,276.5162485809635 L 1156.394415813064,191.7301808945756 A 422.26,422.26 0 0,1 1161.8578112126324,197.26960324767055 L 1075.9135753670253,280.4862983859782 A 302.6296107804235,302.6296107804235 0 0 0 1071.9980133357863,276.5162485809635 Z "/><path class="wedge" fill="rgb(160,112,207)" d=" M 921.7204977660958,429.78587857195805 L 1161.8578112126324,197.26960324767055 A 422.26,422.26 0 0,1 1192.4129626793126,232.5321278094239 L 928.0882648505175,437.1346735358057 A 88,88 0 0 0 921.7204977660958,429.78587857195805 Z "/><path class="wedge" fill="rgb(167,123,211)" d=" M 971.7232933243595,381.36998013392645 L 1161.8578112126324,197.26960324767055 A 422.26,422.26 0 0,1 1192.4129626793126,232.5321278094239 L 983.1274990154972,394.53113509431194 A 157.601571715036,157.601571715036 0 0 0 971.7232933243595,381.36998013392645 Z "/><path class="wedge" fill="rgb(174,134,214)" d=" M 1012.717117183958,341.67714315523733 L 1161.8578112126324,197.26960324767055 A 422.26,422.26 0 0,1 1192.4129626793126,232.5321278094239 L 1028.2503495588703,359.6034489286212 A 214.663072764768,214.663072764768 0 0 0 1012.717117183958,341.67714315523733 Z "/><path class="wedge" fill="rgb(182,145,218)" d=" M 1046.9302886450341,308.5497666514115 L 1161.8578112126324,197.26960324767055 A 422.26,422.26 0 0,1 1192.4129626793126,232.5321278094239 L 1065.9095790989188,330.45303545125944 A 262.2862202400371,262.2862202400371 0 0 0 1046.9302886450341,308.5497666514115 Z "/><path class="wedge" fill="rgb(189,156,222)" d=" M 1075.9135753670253,280.4862983859782 L 1161.8578112126324,197.26960324767055 A 422.26,422.26 0 0,1 1192.4129626793126,232.5321278094239 L 1097.8121534840584,305.7586047452321 A 302.6296107804235,302.6296107804235 0 0 0 1075.9135753670253,280.4862983859782 Z "/><path class="wedge" fill="rgb(196,167,225)" d=" M 1100.7791068330416,256.40990360393965 L 1161.8578112126324,197.26960324767055 A 422.26,422.26 0 0,1 1192.4129626793126,232.5321278094239 L 1125.1822193716757,284.5725967660139 A 337.24127703311945,337.24127703311945 0 0 0 1100.7791068330416,256.40990360393965 Z "/><circle cx="858.5" cy="491" r="88"/><circle cx="858.5" cy="491" r="422.26"/><text x="858.5" y="491" text-anchor="middle" style="font-color:black;font-weight:bold" transform="rotate(360,858.5,491)">Archaea</text><text x="1113.63" y="491" text-anchor="start" style="font-color:black;font-weight:normal" transform="rotate(386.1290322580645,858.5,491)">35%&#160;&#160;&#160;[other Archaea]</text><path class="line" d=" M 846.3776664293664,403.8389477530113 A 88,88 0 0 0 858.5,579"/><line x1="800.3320843916392" y1="72.76561452484731" x2="846.3776664293664" y2="403.8389477530113"/><text x="603.37" y="491" text-anchor="end" style="font-color:black;font-weight:normal" transform="rotate(-3.9589442815249205,858.5,491)">Euryarchaeota&#160;&#160;&#160;48%</text><path class="line" d=" M 835.3526054515734,646.8924421922663 A 157.601571715036,157.601571715036 0 0 0 858.5,648.601571715036"/><line x1="796.4814635371043" y1="908.6807497778661" x2="835.3526054515734" y2="646.8924421922663"/><text x="858.5" y="665.7200220299555" text-anchor="middle" style="font-color:black;font-weight:normal" transform="rotate(4.222873900293257,858.5,491)">Me...ia</text><path class="line" d=" M 826.9718192452541,703.3351328139273 A 214.663072764768,214.663072764768 0 0 0 858.5,705.663072764768"/><text x="858.5" y="719.9500170073487" text-anchor="middle" style="font-color:black;font-weight:normal" transform="rotate(4.222873900293257,858.5,491)">Meth...ales</text><path class="line" d=" M 824.7639534816041,751.1075556248104 A 262.2862202400371,262.2862202400371 0 0 0 858.5,753.2862202400371"/><line x1="804.1876423404138" y1="909.752522864588" x2="824.7639534816041" y2="751.1075556248104"/><text x="858.5" y="765.3892374021531" text-anchor="middle" style="font-color:black;font-weight:normal" transform="rotate(3.6950146627565967,858.5,491)">Metha...aceae</text><path class="line" d=" M 836.215461868092,792.8080195776085 A 302.6296107804235,302.6296107804235 0 0 0 858.5,793.6296107804235"/><line x1="827.4063173715447" y1="912.1136313402843" x2="836.215461868092" y2="792.8080195776085"/><text x="858.5" y="804.0131106562324" text-anchor="middle" style="font-color:black;font-weight:normal" transform="rotate(2.1114369501466284,858.5,491)">Methanob...vibacter</text><path class="line" d=" M 846.0749567851256,828.0123102143863 A 337.24127703311945,337.24127703311945 0 0 0 858.5,828.2412770331194"/><line x1="842.9425961315594" y1="912.9733105124947" x2="846.0749567851256" y2="828.0123102143863"/><text x="478.7493614834403" y="491" text-anchor="end" style="font-color:black;font-weight:normal" transform="rotate(-88.94428152492668,858.5,491)">Methanobrevibacter woesei&#160;&#160;&#160;0.6%</text><line x1="1272.51" y1="491" x2="1289.01" y2="491" class="tick" transform="rotate(93.16715542521993,858.5,491)"/><text x="425.24" y="491" text-anchor="end" style="font-color:black;font-weight:normal" transform="rotate(-86.83284457478007,858.5,491)">2 more</text><path class="line" d=" M 833.6667853045924,827.3257206679575 A 337.24127703311945,337.24127703311945 0 0 0 846.0749567851256,828.0123102143863"/><path class="line" d=" M 818.2943816924975,643.3868880959285 A 157.601571715036,157.601571715036 0 0 0 835.3526054515734,646.8924421922663"/><line x1="750.7775693048097" y1="899.2883607514668" x2="818.2943816924975" y2="643.3868880959285"/><text x="858.5" y="688.5446224498485" text-anchor="middle" style="font-color:black;font-weight:normal" transform="rotate(11.612903225806448,858.5,491)">M...i</text><path class="line" d=" M 803.737465119312,698.5603516624828 A 214.663072764768,214.663072764768 0 0 0 826.9718192452541,703.3351328139273"/><text x="858.5" y="738.9992759974564" text-anchor="middle" style="font-color:black;font-weight:normal" transform="rotate(11.612903225806448,858.5,491)">Methanococcales</text><path class="line" d=" M 800.9775066566996,746.9008090791727 A 262.2862202400371,262.2862202400371 0 0 0 819.977271080207,750.4418252409919"/><line x1="765.893350604111" y1="902.9799947663319" x2="800.9775066566996" y2="746.9008090791727"/><text x="858.5" y="781.5265936183075" text-anchor="middle" style="font-color:black;font-weight:normal" transform="rotate(10.55718475073314,858.5,491)">Methanocaldococcaceae</text><path class="line" d=" M 797.5811072148936,787.4347648690135 A 302.6296107804235,302.6296107804235 0 0 0 814.0519216811026,790.3477069477362"/><line x1="773.4996869073625" y1="904.6163129932784" x2="797.5811072148936" y2="787.4347648690135"/><text x="858.5" y="817.8577771573107" text-anchor="middle" style="font-color:black;font-weight:normal" transform="rotate(10.029325513196483,858.5,491)">Methanocaldococcus</text><path class="line" d=" M 790.6138300204233,821.3379282801677 A 337.24127703311945,337.24127703311945 0 0 0 808.9684070561455,824.58402275195"/><text x="478.7493614834403" y="491" text-anchor="end" style="font-color:black;font-weight:normal" transform="rotate(-79.97067448680352,858.5,491)">Methanocaldococcus vulcanius&#160;&#160;&#160;0.9%</text><path class="line" d=" M 807.182320227001,640.0125872192198 A 157.601571715036,157.601571715036 0 0 0 818.2943816924975,643.3868880959285"/><line x1="721.0051563563868" y1="890.2476369014829" x2="807.182320227001" y2="640.0125872192198"/><text x="858.5" y="665.7200220299555" text-anchor="middle" style="font-color:black;font-weight:normal" transform="rotate(16.891495601173013,858.5,491)">Me...ia</text><path class="line" d=" M 799.9225195153073,697.5161339674883 A 214.663072764768,214.663072764768 0 0 0 803.737465119312,698.5603516624828"/><line x1="743.2732561036646" y1="897.2342982701588" x2="799.9225195153073" y2="697.5161339674883"/><path class="line" d=" M 796.348897419114,635.8291954511583 A 157.601571715036,157.601571715036 0 0 0 807.182320227001,640.0125872192198"/><line x1="691.9792966198502" y1="879.0391255347586" x2="796.348897419114" y2="635.8291954511583"/><text x="858.5" y="688.5446224498485" text-anchor="middle" style="font-color:black;font-weight:normal" transform="rotate(21.114369501466275,858.5,491)">M...i</text><path class="line" d=" M 773.8463603785974,688.2663075835856 A 214.663072764768,214.663072764768 0 0 0 788.6021512199845,693.964345501219"/><text x="858.5" y="719.9500170073487" text-anchor="middle" style="font-color:black;font-weight:normal" transform="rotate(21.114369501466275,858.5,491)">Meth...ales</text><path class="line" d=" M 755.0658933328,732.0299709699264 A 262.2862202400371,262.2862202400371 0 0 0 773.095266324591,738.9921224427053"/><text x="858.5" y="765.3892374021531" text-anchor="middle" style="font-color:black;font-weight:normal" transform="rotate(21.114369501466275,858.5,491)">Metha...aceae</text><path class="line" d=" M 739.1562410580754,769.1038448542602 A 302.6296107804235,302.6296107804235 0 0 0 759.9587907540808,777.1368752912888"/><text x="858.5" y="804.0131106562324" text-anchor="middle" style="font-color:black;font-weight:normal" transform="rotate(21.114369501466275,858.5,491)">Methanopyrus</text><path class="line" d=" M 731.239517867142,803.3082589721921 A 337.24127703311945,337.24127703311945 0 0 0 748.6886594613717,809.8622718730434"/><line x1="699.1570759719214" y1="882.041353519269" x2="731.239517867142" y2="803.3082589721921"/><text x="478.7493614834403" y="491" text-anchor="end" style="font-color:black;font-weight:normal" transform="rotate(-69.41348973607039,858.5,491)">Methanopyrus kandleri&#160;&#160;&#160;0.9%</text><path class="line" d=" M 793.6910100577247,634.6594940465534 A 157.601571715036,157.601571715036 0 0 0 796.348897419114,635.8291954511583"/><line x1="684.8580509050579" y1="875.9051585969062" x2="793.6910100577247" y2="634.6594940465534"/><path class="line" d=" M 913.3218151837507,422.1627384336166 A 88,88 0 0 0 846.3776664293664,403.8389477530113"/><line x1="1121.5574963578472" y1="160.69065830657894" x2="913.3218151837507" y2="422.1627384336166"/><text x="858.5" y="368.199214142482" text-anchor="middle" style="font-color:black;font-weight:normal" transform="rotate(375.30791788856305,858.5,491)">Candidat...asmatota</text><line x1="984.380785857518" y1="491" x2="992.0807858575181" y2="491" class="tick" transform="rotate(285.30791788856305,858.5,491)"/><path class="line" d=" M 956.6818663321628,367.7174930065788 A 157.601571715036,157.601571715036 0 0 0 836.7897860956159,334.9009224265707"/><text x="858.5" y="316.2799779700444" text-anchor="middle" style="font-color:black;font-weight:normal" transform="rotate(375.30791788856305,858.5,491)">Thermoplasmata</text><path class="line" d=" M 989.1132148250035,320.6461831308451 A 214.663072764768,214.663072764768 0 0 0 828.9293480300942,278.3834170369423"/><line x1="1115.4269850732242" y1="155.8999672617395" x2="989.1132148250035" y2="320.6461831308451"/><text x="858.5" y="243.00072400254365" text-anchor="middle" style="font-color:black;font-weight:normal" transform="rotate(374.7800586510265,858.5,491)">Methanomassiliicoccales</text><path class="line" d=" M 1018.0898446277753,282.85307396099313 A 262.2862202400371,262.2862202400371 0 0 0 822.3690789462455,231.21428470446534"/><text x="858.5" y="200.47340638169243" text-anchor="middle" style="font-color:black;font-weight:normal" transform="rotate(374.7800586510265,858.5,491)">Methanomassiliicoccaceae</text><path class="line" d=" M 1015.015854353275,231.98751254587165 A 302.6296107804235,302.6296107804235 0 0 0 816.8116239746442,191.25550776456436"/><line x1="1076.8870391558166" y1="129.5991024793163" x2="1015.015854353275" y2="231.98751254587165"/><text x="858.5" y="164.1422228426893" text-anchor="middle" style="font-color:black;font-weight:normal" transform="rotate(371.6129032258065,858.5,491)">Methanomassiliicoccus</text><path class="line" d=" M 1000.0066950529183,184.88313638394635 A 337.24127703311945,337.24127703311945 0 0 0 812.0437357502053,156.97381173494426"/><line x1="1035.6806155483664" y1="107.71089622335734" x2="1000.0066950529183" y2="184.88313638394635"/><text x="1238.2506385165598" y="491" text-anchor="start" style="font-color:black;font-weight:normal" transform="rotate(278.4457478005865,858.5,491)">9%&#160;&#160;&#160;Candidatus Methanomassiliicoccus intestinalis</text><path class="line" d=" M 1005.6227920847986,187.54232093403476 A 337.24127703311945,337.24127703311945 0 0 0 1000.0066950529183,184.88313638394635"/><line x1="1042.712533923082" y1="111.04046275210129" x2="1005.6227920847986" y2="187.54232093403476"/><path class="line" d=" M 921.7204977660958,429.78587857195805 A 88,88 0 0 0 913.3218151837507,422.1627384336166"/><line x1="1161.8578112126324" y1="197.26960324767055" x2="921.7204977660958" y2="429.78587857195805"/><text x="858.5" y="348.3130507953289" text-anchor="middle" style="font-color:black;font-weight:normal" transform="rotate(402.22873900293257,858.5,491)">Halobacteriota</text><line x1="988.0969492046711" y1="491" x2="995.7969492046711" y2="491" class="tick" transform="rotate(312.2287390029325,858.5,491)"/><path class="line" d=" M 971.7232933243595,381.36998013392645 A 157.601571715036,157.601571715036 0 0 0 956.6818663321628,367.7174930065788"/><text x="858.5" y="293.4553775501516" text-anchor="middle" style="font-color:black;font-weight:normal" transform="rotate(402.22873900293257,858.5,491)">Syntropharchaeia</text><path class="line" d=" M 1012.717117183958,341.67714315523733 A 214.663072764768,214.663072764768 0 0 0 992.2297647941606,323.08161263009174"/><text x="858.5" y="262.0499829926513" text-anchor="middle" style="font-color:black;font-weight:normal" transform="rotate(402.22873900293257,858.5,491)">ANME-1</text><path class="line" d=" M 1046.9302886450341,308.5497666514115 A 262.2862202400371,262.2862202400371 0 0 0 1021.8978033095891,285.8288051372559"/><text x="858.5" y="216.61076259784693" text-anchor="middle" style="font-color:black;font-weight:normal" transform="rotate(402.22873900293257,858.5,491)">ANME-1</text><path class="line" d=" M 1071.9980133357863,276.5162485809635 A 302.6296107804235,302.6296107804235 0 0 0 1047.0307339924407,254.2705264201726"/><line x1="1156.394415813064" y1="191.7301808945756" x2="1071.9980133357863" y2="276.5162485809635"/><text x="858.5" y="177.9868893437677" text-anchor="middle" style="font-color:black;font-weight:normal" transform="rotate(401.7008797653959,858.5,491)">JAGXOR01</text><path class="line" d=" M 1096.4157230375426,251.9858002828021 A 337.24127703311945,337.24127703311945 0 0 0 1068.5929427482015,227.19584093056807"/><text x="1238.2506385165598" y="491" text-anchor="start" style="font-color:black;font-weight:normal" transform="rotate(311.7008797653959,858.5,491)">2%&#160;&#160;&#160;JAGXOR01 sp023659785</text><path class="line" d=" M 1075.9135753670253,280.4862983859782 A 302.6296107804235,302.6296107804235 0 0 0 1071.9980133357863,276.5162485809635"/><path class="line" d=" M 928.0882648505175,437.1346735358057 A 88,88 0 0 0 921.7204977660958,429.78587857195805"/><line x1="1192.4129626793126" y1="232.5321278094239" x2="928.0882648505175" y2="437.1346735358057"/><text x="858.5" y="388.08537748963516" text-anchor="middle" style="font-color:black;font-weight:normal" transform="rotate(409.09090909090907,858.5,491)">Thermoproteota</text><line x1="964.4946225103648" y1="491" x2="972.1946225103649" y2="491" class="tick" transform="rotate(319.09090909090907,858.5,491)"/><path class="line" d=" M 983.1274990154972,394.53113509431194 A 157.601571715036,157.601571715036 0 0 0 971.7232933243595,381.36998013392645"/><text x="858.5" y="316.2799779700444" text-anchor="middle" style="font-color:black;font-weight:normal" transform="rotate(409.09090909090907,858.5,491)">unclassified</text><path class="line" d=" M 1028.2503495588703,359.6034489286212 A 214.663072764768,214.663072764768 0 0 0 1012.717117183958,341.67714315523733"/><text x="858.5" y="243.00072400254365" text-anchor="middle" style="font-color:black;font-weight:normal" transform="rotate(409.09090909090907,858.5,491)">unclassified</text><path class="line" d=" M 1065.9095790989188,330.45303545125944 A 262.2862202400371,262.2862202400371 0 0 0 1046.9302886450341,308.5497666514115"/><text x="858.5" y="200.47340638169243" text-anchor="middle" style="font-color:black;font-weight:normal" transform="rotate(409.09090909090907,858.5,491)">unclassified</text><path class="line" d=" M 1097.8121534840584,305.7586047452321 A 302.6296107804235,302.6296107804235 0 0 0 1075.9135753670253,280.4862983859782"/><text x="858.5" y="164.1422228426893" text-anchor="middle" style="font-color:black;font-weight:normal" transform="rotate(409.09090909090907,858.5,491)">unclassified</text><path class="line" d=" M 1125.1822193716757,284.5725967660139 A 337.24127703311945,337.24127703311945 0 0 0 1100.7791068330416,256.40990360393965"/><text x="1238.2506385165598" y="491" text-anchor="start" style="font-color:black;font-weight:normal" transform="rotate(319.09090909090907,858.5,491)">2%&#160;&#160;&#160;unclassified</text></svg>