<?xml version="1.0" standalone="no"?><!DOCTYPE svg PUBLIC "-//W3C//DTD SVG 1.1//EN" 	"http://www.w3.org/Graphics/SVG/1.1/DTD/svg11.dtd"><svg width="1867" height="982" version="1.1"	xmlns="http://www.w3.org/2000/svg"><title>Krona (snapshot) - Archaea</title><defs>	<style type="text/css">	text {font-size: 11px; font-family: sans-serif; dominant-baseline:central}	path {stroke-width:0.27499999999999997;}	path.wedge {stroke:none}	path.line {fill:none;stroke:black;}	line {stroke:black;stroke-width:0.27499999999999997;}	line.tick {stroke-width:0.5499999999999999;}	line.pattern {stroke-width:0.18333333333333332;}	circle {fill:none;stroke:black;stroke-width:0.27499999999999997;}	rect {stroke:black;stroke-width:0.27499999999999997;}	.highlight {stroke:black;stroke-width:1.375;}	.searchHighlight {fill:rgb(255, 255, 100);stroke:none;}	</style><pattern id="hiddenPattern" patternUnits="userSpaceOnUse" x="0" y="0" width="6.6" height="6.6"><line class="pattern" x1="0" y1="0" x2="3.3" y2="3.3"/><line class="pattern" x1="3.3" y1="6.6" x2="6.6" y2="3.3"/></pattern></defs><path class="wedge" fill="rgb(208,114,114)" d=" M 858.5,579 L 858.5,883.8 A 392.8,392.8 0 1,1 997.0610195964846,858.5495665191058 L 889.5421836163204,573.3430800755634 A 88,88 0 1 0 858.5,579 Z "/><path class="wedge" fill="rgb(208,114,114)" d=" M 936.2031997168244,628.2941085228356 L 1051.972881092278,832.8480426766449 A 392.8,392.8 0 0,1 997.0610195964846,858.5495665191058 L 914.1493215890927,638.6164370522016 A 157.75759722217143,157.75759722217143 0 0 0 936.2031997168244,628.2941085228356 Z "/><path class="wedge" fill="rgb(212,127,127)" d=" M 858.5,648.7575972221714 L 858.5,883.8 A 392.8,392.8 0 1,1 1051.972881092278,832.8480426766449 L 936.2031997168244,628.2941085228356 A 157.75759722217143,157.75759722217143 0 1 0 858.5,648.7575972221714 Z "/><path class="wedge" fill="rgb(212,127,127)" d=" M 983.0448341910424,666.1879064665936 L 1086.0966073747527,811.1431309766034 A 392.8,392.8 0 0,1 1051.972881092278,832.8480426766449 L 964.3717358489675,678.0652128113311 A 214.94701276319745,214.94701276319745 0 0 0 983.0448341910424,666.1879064665936 Z "/><path class="wedge" fill="rgb(216,140,140)" d=" M 858.5,705.9470127631974 L 858.5,883.8 A 392.8,392.8 0 1,1 1086.0966073747527,811.1431309766034 L 983.0448341910424,666.1879064665936 A 214.94701276319745,214.94701276319745 0 1 0 858.5,705.9470127631974 Z "/><path class="wedge" fill="rgb(216,140,140)" d=" M 1068.5993067583795,648.6624366446636 L 1172.676855333762,726.7641693993987 A 392.8,392.8 0 0,1 1086.0966073747527,811.1431309766034 L 1010.7005476157558,705.0891308183307 A 262.67691681814034,262.67691681814034 0 0 0 1068.5993067583795,648.6624366446636 Z "/><path class="wedge" fill="rgb(221,153,153)" d=" M 858.5,753.6769168181404 L 858.5,883.8 A 392.8,392.8 0 1,1 1229.4953690662223,620.0514476145757 L 1106.5955185848354,577.3004999244259 A 262.67691681814034,262.67691681814034 0 1 0 858.5,753.6769168181404 Z "/><path class="wedge" fill="rgb(221,153,153)" d=" M 858.5,753.6769168181404 L 858.5,883.8 A 392.8,392.8 0 1,1 1229.4953690662223,620.0514476145757 L 1106.5955185848354,577.3004999244259 A 262.67691681814034,262.67691681814034 0 1 0 858.5,753.6769168181404 Z "/><path class="wedge" fill="rgb(225,165,165)" d=" M 858.5,794.1107449422411 L 858.5,883.8 A 392.8,392.8 0 1,1 1229.4953690662223,620.0514476145757 L 1144.7848337265384,590.5847261260913 A 303.11074494224107,303.11074494224107 0 1 0 858.5,794.1107449422411 Z "/><path class="wedge" fill="rgb(221,181,153)" d=" M 1106.5955185848354,577.3004999244259 L 1229.4953690662223,620.0514476145757 A 392.8,392.8 0 0,1 1184.397130923469,710.2781340121523 L 1076.4369998748843,637.6377397350997 A 262.67691681814034,262.67691681814034 0 0 0 1106.5955185848354,577.3004999244259 Z "/><path class="wedge" fill="rgb(221,182,153)" d=" M 1076.4369998748843,637.6377397350997 L 1184.397130923469,710.2781340121523 A 392.8,392.8 0 0,1 1172.676855333762,726.7641693993987 L 1068.5993067583795,648.6624366446636 A 262.67691681814034,262.67691681814034 0 0 0 1076.4369998748843,637.6377397350997 Z "/><path class="wedge" fill="rgb(221,182,153)" d=" M 1076.4369998748843,637.6377397350997 L 1184.397130923469,710.2781340121523 A 392.8,392.8 0 0,1 1172.676855333762,726.7641693993987 L 1068.5993067583795,648.6624366446636 A 262.67691681814034,262.67691681814034 0 0 0 1076.4369998748843,637.6377397350997 Z "/><path class="wedge" fill="rgb(225,191,165)" d=" M 1109.9840176393882,660.2096704428922 L 1184.397130923469,710.2781340121523 A 392.8,392.8 0 0,1 1172.676855333762,726.7641693993987 L 1100.939869307096,672.931397701987 A 303.11074494224107,303.11074494224107 0 0 0 1109.9840176393882,660.2096704428922 Z "/><path class="wedge" fill="rgb(114,208,208)" d=" M 889.5421836163204,573.3430800755634 L 997.0610195964846,858.5495665191058 A 392.8,392.8 0 0,1 858.5000000000001,883.8 L 858.5,579 A 88,88 0 0 0 889.5421836163204,573.3430800755634 Z "/><path class="wedge" fill="rgb(114,208,208)" d=" M 889.5421836163204,573.3430800755634 L 997.0610195964846,858.5495665191058 A 392.8,392.8 0 0,1 858.5000000000001,883.8 L 858.5,579 A 88,88 0 0 0 889.5421836163204,573.3430800755634 Z "/><path class="wedge" fill="rgb(114,208,208)" d=" M 889.5421836163204,573.3430800755634 L 997.0610195964846,858.5495665191058 A 392.8,392.8 0 0,1 858.5000000000001,883.8 L 858.5,579 A 88,88 0 0 0 889.5421836163204,573.3430800755634 Z "/><path class="wedge" fill="rgb(114,208,208)" d=" M 889.5421836163204,573.3430800755634 L 997.0610195964846,858.5495665191058 A 392.8,392.8 0 0,1 858.5000000000001,883.8 L 858.5,579 A 88,88 0 0 0 889.5421836163204,573.3430800755634 Z "/><path class="wedge" fill="rgb(114,208,208)" d=" M 889.5421836163204,573.3430800755634 L 997.0610195964846,858.5495665191058 A 392.8,392.8 0 0,1 858.5000000000001,883.8 L 858.5,579 A 88,88 0 0 0 889.5421836163204,573.3430800755634 Z "/><path class="wedge" fill="rgb(127,212,212)" d=" M 914.1493215890927,638.6164370522016 L 997.0610195964846,858.5495665191058 A 392.8,392.8 0 0,1 898.8880876755553,881.7181111414105 L 874.7207934523778,647.9214623341503 A 157.75759722217143,157.75759722217143 0 0 0 914.1493215890927,638.6164370522016 Z "/><path class="wedge" fill="rgb(127,183,212)" d=" M 874.7207934523778,647.9214623341503 L 898.8880876755553,881.7181111414105 A 392.8,392.8 0 0,1 878.7208548737924,883.2791825067613 L 866.6211646605594,648.5484248282697 A 157.75759722217143,157.75759722217143 0 0 0 874.7207934523778,647.9214623341503 Z "/><path class="wedge" fill="rgb(127,177,212)" d=" M 866.6211646605594,648.5484248282697 L 878.7208548737924,883.2791825067613 A 392.8,392.8 0 0,1 858.5000000000001,883.8 L 858.5,648.7575972221714 A 157.75759722217143,157.75759722217143 0 0 0 866.6211646605594,648.5484248282697 Z "/><circle cx="858.5" cy="491" r="88"/><circle cx="858.5" cy="491" r="392.8"/><text x="858.5" y="491" text-anchor="middle" style="font-color:black;font-weight:bold" transform="rotate(360,858.5,491)">Archaea</text><path class="line" d=" M 889.5421836163204,573.3430800755634 A 88,88 0 1 0 858.5,579"/><line x1="997.0610195964846" y1="858.5495665191058" x2="889.5421836163204" y2="573.3430800755634"/><text x="858.5" y="368.1212013889143" text-anchor="middle" style="font-color:black;font-weight:normal" transform="rotate(349.672131147541,858.5,491)">Euryarchaeota</text><path class="line" d=" M 936.2031997168244,628.2941085228356 A 157.75759722217143,157.75759722217143 0 1 0 858.5,648.7575972221714"/><line x1="1051.972881092278" y1="832.8480426766449" x2="936.2031997168244" y2="628.2941085228356"/><text x="858.5" y="316.0855781155208" text-anchor="middle" style="font-color:black;font-weight:normal" transform="rotate(345.24590163934425,858.5,491)">Methanomicrobia</text><path class="line" d=" M 983.0448341910424,666.1879064665936 A 214.94701276319745,214.94701276319745 0 1 0 858.5,705.9470127631974"/><line x1="1086.0966073747527" y1="811.1431309766034" x2="983.0448341910424" y2="666.1879064665936"/><text x="858.5" y="261.7340160203197" text-anchor="middle" style="font-color:black;font-weight:normal" transform="rotate(342.29508196721315,858.5,491)">Methanosarcinales</text><line x1="1229.4953690662223" y1="620.0514476145757" x2="1106.5955185848354" y2="577.3004999244259"/><path class="line" d=" M 1106.5955185848354,577.3004999244259 A 262.67691681814034,262.67691681814034 0 1 0 858.5,753.6769168181404"/><text x="858.5" y="216.19293474462944" text-anchor="middle" style="font-color:black;font-weight:normal" transform="rotate(324.59016393442624,858.5,491)">Candidatus Methanoperedens</text><path class="line" d=" M 1144.7848337265384,590.5847261260913 A 303.11074494224107,303.11074494224107 0 1 0 858.5,794.1107449422411"/><text x="510.54462752887946" y="491" text-anchor="end" style="font-color:black;font-weight:normal" transform="rotate(54.59016393442622,858.5,491)">Candidatus Methanoperedens nitroreducens&#160;&#160;&#160;80%</text><path class="line" d=" M 1076.4369998748843,637.6377397350997 A 262.67691681814034,262.67691681814034 0 0 0 1106.5955185848354,577.3004999244259"/><line x1="1184.397130923469" y1="710.2781340121523" x2="1076.4369998748843" y2="637.6377397350997"/><text x="1186.23845840907" y="491" text-anchor="start" style="font-color:black;font-weight:normal" transform="rotate(386.5573770491803,858.5,491)">4%&#160;&#160;&#160;Methanosarcinaceae</text><line x1="1172.676855333762" y1="726.7641693993987" x2="1068.5993067583795" y2="648.6624366446636"/><path class="line" d=" M 1068.5993067583795,648.6624366446636 A 262.67691681814034,262.67691681814034 0 0 0 1076.4369998748843,637.6377397350997"/><text x="858.5" y="781.9805965050109" text-anchor="middle" style="font-color:black;font-weight:normal" transform="rotate(305.4098360655737,858.5,491)">unclassified</text><path class="line" d=" M 1100.939869307096,672.931397701987 A 303.11074494224107,303.11074494224107 0 0 0 1109.9840176393882,660.2096704428922"/><text x="1206.4553724711204" y="491" text-anchor="start" style="font-color:black;font-weight:normal" transform="rotate(395.4098360655737,858.5,491)">0.8%&#160;&#160;&#160;unclassified</text><line x1="858.5000000000001" y1="883.8" x2="858.5" y2="579"/><path class="line" d=" M 858.5,579 A 88,88 0 0 0 889.5421836163204,573.3430800755634"/><text x="858.5" y="633.8095406745633" text-anchor="middle" style="font-color:black;font-weight:normal" transform="rotate(349.672131147541,858.5,491)">Methanoperedens</text><line x1="990.5295406745632" y1="491" x2="998.2295406745633" y2="491" class="tick" transform="rotate(439.672131147541,858.5,491)"/><path class="line" d=" M 874.7207934523778,647.9214623341503 A 157.75759722217143,157.75759722217143 0 0 0 914.1493215890927,638.6164370522016"/><line x1="898.8880876755553" y1="881.7181111414105" x2="874.7207934523778" y2="647.9214623341503"/><text x="1133.7787986110857" y="491" text-anchor="start" style="font-color:black;font-weight:normal" transform="rotate(436.7213114754098,858.5,491)">4%&#160;&#160;&#160;Methanoperedens nitroreducens</text><path class="line" d=" M 866.6211646605594,648.5484248282697 A 157.75759722217143,157.75759722217143 0 0 0 874.7207934523778,647.9214623341503"/><line x1="878.7208548737924" y1="883.2791825067613" x2="866.6211646605594" y2="648.5484248282697"/><text x="1133.7787986110857" y="491" text-anchor="start" style="font-color:black;font-weight:normal" transform="rotate(445.57377049180326,858.5,491)">0.8%&#160;&#160;&#160;Methanoperedens sp002487355</text><path class="line" d=" M 858.5,648.7575972221714 A 157.75759722217143,157.75759722217143 0 0 0 866.6211646605594,648.5484248282697"/><text x="1133.7787986110857" y="491" text-anchor="start" style="font-color:black;font-weight:normal" transform="rotate(448.5245901639344,858.5,491)">0.8%&#160;&#160;&#160;Methanoperedens sp905339155</text></svg>