<?xml version="1.0" standalone="no"?><!DOCTYPE svg PUBLIC "-//W3C//DTD SVG 1.1//EN" 	"http://www.w3.org/Graphics/SVG/1.1/DTD/svg11.dtd"><svg width="1867" height="982" version="1.1"	xmlns="http://www.w3.org/2000/svg"><title>Krona (snapshot) - all</title><defs>	<style type="text/css">	text {font-size: 11px; font-family: sans-serif; dominant-baseline:central}	path {stroke-width:0.27499999999999997;}	path.wedge {stroke:none}	path.line {fill:none;stroke:black;}	line {stroke:black;stroke-width:0.27499999999999997;}	line.tick {stroke-width:0.5499999999999999;}	line.pattern {stroke-width:0.18333333333333332;}	circle {fill:none;stroke:black;stroke-width:0.27499999999999997;}	rect {stroke:black;stroke-width:0.27499999999999997;}	.highlight {stroke:black;stroke-width:1.375;}	.searchHighlight {fill:rgb(255, 255, 100);stroke:none;}	</style><pattern id="hiddenPattern" patternUnits="userSpaceOnUse" x="0" y="0" width="6.6" height="6.6"><line class="pattern" x1="0" y1="0" x2="3.3" y2="3.3"/><line class="pattern" x1="3.3" y1="6.6" x2="6.6" y2="3.3"/></pattern></defs><path class="wedge" fill="rgb(207,112,112)" d=" M 858.5,579 L 858.5,883.8 A 392.8,392.8 0 1,1 878.2359681810134,883.3038765548437 L 862.9214999998197,578.8888521813295 A 88,88 0 1 0 858.5,579 Z "/><path class="wedge" fill="rgb(211,123,123)" d=" M 858.5,641.2590869240707 L 858.5,883.8 A 392.8,392.8 0 1,1 1003.0993242945412,125.78379634309476 L 913.8140591607316,351.2926341869602 A 150.25908692407071,150.25908692407071 0 1 0 858.5,641.2590869240707 Z "/><path class="wedge" fill="rgb(214,134,134)" d=" M 858.5,692.3009939720656 L 858.5,883.8 A 392.8,392.8 0 0,1 474.6290810624136,574.2763927773831 L 661.7749553485072,533.6772419564546 A 201.3009939720656,201.3009939720656 0 0 0 858.5,692.3009939720656 Z "/><path class="wedge" fill="rgb(214,134,134)" d=" M 858.5,692.3009939720656 L 858.5,883.8 A 392.8,392.8 0 0,1 474.6290810624136,574.2763927773831 L 661.7749553485072,533.6772419564546 A 201.3009939720656,201.3009939720656 0 0 0 858.5,692.3009939720656 Z "/><path class="wedge" fill="rgb(218,145,145)" d=" M 858.5,734.900228518088 L 858.5,883.8 A 392.8,392.8 0 0,1 549.6459038567361,733.6952560218833 L 666.7240717207494,641.6961008248301 A 243.90022851808808,243.90022851808808 0 0 0 858.5,734.900228518088 Z "/><path class="wedge" fill="rgb(222,156,156)" d=" M 858.5,770.9876701745677 L 858.5,883.8 A 392.8,392.8 0 0,1 741.8220667565407,866.0707931764814 L 775.3320196292773,758.3502992159118 A 279.9876701745677,279.9876701745677 0 0 0 858.5,770.9876701745677 Z "/><path class="wedge" fill="rgb(222,158,156)" d=" M 775.3320196292773,758.3502992159118 L 741.8220667565407,866.0707931764814 A 392.8,392.8 0 0,1 635.6767567830101,814.4836043484463 L 699.6716885716241,721.5789733227932 A 279.9876701745677,279.9876701745677 0 0 0 775.3320196292773,758.3502992159118 Z "/><path class="wedge" fill="rgb(222,159,156)" d=" M 699.6716885716241,721.5789733227932 L 635.6767567830101,814.4836043484463 A 392.8,392.8 0 0,1 575.5626150240302,763.4670185232698 L 656.8223543159202,685.2143730034142 A 279.9876701745677,279.9876701745677 0 0 0 699.6716885716241,721.5789733227932 Z "/><path class="wedge" fill="rgb(222,160,156)" d=" M 656.8223543159202,685.2143730034142 L 575.5626150240302,763.4670185232698 A 392.8,392.8 0 0,1 562.2300576468583,748.9068848597612 L 647.3189131817475,674.835916023078 A 279.9876701745677,279.9876701745677 0 0 0 656.8223543159202,685.2143730034142 Z "/><path class="wedge" fill="rgb(222,160,156)" d=" M 647.3189131817475,674.835916023078 L 562.2300576468583,748.9068848597612 A 392.8,392.8 0 0,1 549.6459038567361,733.6952560218833 L 638.3489338008544,663.9930735641226 A 279.9876701745677,279.9876701745677 0 0 0 647.3189131817475,674.835916023078 Z "/><path class="wedge" fill="rgb(218,150,145)" d=" M 666.7240717207494,641.6961008248301 L 549.6459038567361,733.6952560218833 A 392.8,392.8 0 0,1 474.6290810624136,574.2763927773831 L 620.1440813382744,542.7085825574486 A 243.90022851808808,243.90022851808808 0 0 0 666.7240717207494,641.6961008248301 Z "/><path class="wedge" fill="rgb(222,161,156)" d=" M 638.3489338008544,663.9930735641226 L 549.6459038567361,733.6952560218833 A 392.8,392.8 0 0,1 484.9250003992637,612.3818753904794 L 592.2159017981792,577.520948299389 A 279.9876701745677,279.9876701745677 0 0 0 638.3489338008544,663.9930735641226 Z "/><path class="wedge" fill="rgb(222,163,156)" d=" M 592.2159017981792,577.520948299389 L 484.9250003992637,612.3818753904794 A 392.8,392.8 0 0,1 474.6290810624136,574.2763927773831 L 584.8769749462699,550.3593767675196 A 279.9876701745677,279.9876701745677 0 0 0 592.2159017981792,577.520948299389 Z "/><path class="wedge" fill="rgb(214,143,134)" d=" M 661.7749553485072,533.6772419564546 L 474.6290810624136,574.2763927773831 A 392.8,392.8 0 0,1 568.8048475017092,225.72927297006163 L 710.0378764083629,355.0548344632915 A 201.3009939720656,201.3009939720656 0 0 0 661.7749553485072,533.6772419564546 Z "/><path class="wedge" fill="rgb(218,153,145)" d=" M 620.1440813382744,542.7085825574486 L 474.6290810624136,574.2763927773831 A 392.8,392.8 0 0,1 488.09331750128285,360.2684829113708 L 628.504392805336,409.82523703555756 A 243.90022851808808,243.90022851808808 0 0 0 620.1440813382744,542.7085825574486 Z "/><path class="wedge" fill="rgb(222,163,156)" d=" M 584.8769749462699,550.3593767675196 L 474.6290810624136,574.2763927773831 A 392.8,392.8 0 0,1 467.2187183285618,456.4920499948682 L 579.5948715934196,466.40274815570945 A 279.9876701745677,279.9876701745677 0 0 0 584.8769749462699,550.3593767675196 Z "/><path class="wedge" fill="rgb(225,173,167)" d=" M 554.6203876890232,556.9231963230909 L 474.6290810624136,574.2763927773831 A 392.8,392.8 0 0,1 465.731013836741,495.935940466181 L 547.5765063073914,494.9073855331485 A 310.94804484306104,310.94804484306104 0 0 0 554.6203876890232,556.9231963230909 Z "/><path class="wedge" fill="rgb(225,174,167)" d=" M 547.5765063073914,494.9073855331485 L 465.731013836741,495.935940466181 A 392.8,392.8 0 0,1 467.2187183285618,456.4920499948682 L 548.7542018344686,463.682842195423 A 310.94804484306104,310.94804484306104 0 0 0 547.5765063073914,494.9073855331485 Z "/><path class="wedge" fill="rgb(222,165,156)" d=" M 579.5948715934196,466.40274815570945 L 467.2187183285618,456.4920499948682 A 392.8,392.8 0 0,1 481.9926412739747,379.04443370179354 L 590.1257174814664,411.1981207461579 A 279.9876701745677,279.9876701745677 0 0 0 579.5948715934196,466.40274815570945 Z "/><path class="wedge" fill="rgb(222,165,156)" d=" M 579.5948715934196,466.40274815570945 L 467.2187183285618,456.4920499948682 A 392.8,392.8 0 0,1 481.9926412739747,379.04443370179354 L 590.1257174814664,411.1981207461579 A 279.9876701745677,279.9876701745677 0 0 0 579.5948715934196,466.40274815570945 Z "/><path class="wedge" fill="rgb(222,166,156)" d=" M 590.1257174814664,411.1981207461579 L 481.9926412739747,379.04443370179354 A 392.8,392.8 0 0,1 488.09331750128285,360.2684829113708 L 594.4742768586898,397.8146311404481 A 279.9876701745677,279.9876701745677 0 0 0 590.1257174814664,411.1981207461579 Z "/><path class="wedge" fill="rgb(222,166,156)" d=" M 590.1257174814664,411.1981207461579 L 481.9926412739747,379.04443370179354 A 392.8,392.8 0 0,1 488.09331750128285,360.2684829113708 L 594.4742768586898,397.8146311404481 A 279.9876701745677,279.9876701745677 0 0 0 590.1257174814664,411.1981207461579 Z "/><path class="wedge" fill="rgb(218,156,145)" d=" M 628.504392805336,409.82523703555756 L 488.09331750128285,360.2684829113708 A 392.8,392.8 0 0,1 568.8048475017092,225.72927297006163 L 678.6203821412539,326.28617377352003 A 243.90022851808808,243.90022851808808 0 0 0 628.504392805336,409.82523703555756 Z "/><path class="wedge" fill="rgb(218,156,145)" d=" M 628.504392805336,409.82523703555756 L 488.09331750128285,360.2684829113708 A 392.8,392.8 0 0,1 568.8048475017092,225.72927297006163 L 678.6203821412539,326.28617377352003 A 243.90022851808808,243.90022851808808 0 0 0 628.504392805336,409.82523703555756 Z "/><path class="wedge" fill="rgb(222,166,156)" d=" M 594.4742768586898,397.8146311404481 L 488.09331750128285,360.2684829113708 A 392.8,392.8 0 0,1 532.2419307958849,272.25925784343974 L 625.9433893276143,335.08169356244616 A 279.9876701745677,279.9876701745677 0 0 0 594.4742768586898,397.8146311404481 Z "/><path class="wedge" fill="rgb(222,167,156)" d=" M 625.9433893276143,335.08169356244616 L 532.2419307958849,272.25925784343974 A 392.8,392.8 0 0,1 555.84239823767,240.6198568267147 L 642.7657923165557,312.5291421968868 A 279.9876701745677,279.9876701745677 0 0 0 625.9433893276143,335.08169356244616 Z "/><path class="wedge" fill="rgb(222,168,156)" d=" M 642.7657923165557,312.5291421968868 L 555.84239823767,240.6198568267147 A 392.8,392.8 0 0,1 568.8048475017092,225.72927297006163 L 652.0054205477023,301.915140461746 A 279.9876701745677,279.9876701745677 0 0 0 642.7657923165557,312.5291421968868 Z "/><path class="wedge" fill="rgb(214,149,134)" d=" M 710.0378764083629,355.0548344632915 L 568.8048475017092,225.72927297006163 A 392.8,392.8 0 0,1 732.4333500677283,118.97978579806437 L 793.893732336826,300.3481698152994 A 201.3009939720656,201.3009939720656 0 0 0 710.0378764083629,355.0548344632915 Z "/><path class="wedge" fill="rgb(218,159,145)" d=" M 678.6203821412539,326.28617377352003 L 568.8048475017092,225.72927297006163 A 392.8,392.8 0 0,1 660.676806397473,151.65088172665435 L 735.6661860340267,280.28888112453996 A 243.90022851808808,243.90022851808808 0 0 0 678.6203821412539,326.28617377352003 Z "/><path class="wedge" fill="rgb(222,168,156)" d=" M 652.0054205477023,301.915140461746 L 568.8048475017092,225.72927297006163 A 392.8,392.8 0 0,1 611.9428332850127,185.22000794447337 L 682.7541581635138,273.0401538655175 A 279.9876701745677,279.9876701745677 0 0 0 652.0054205477023,301.915140461746 Z "/><path class="wedge" fill="rgb(222,168,156)" d=" M 652.0054205477023,301.915140461746 L 568.8048475017092,225.72927297006163 A 392.8,392.8 0 0,1 611.9428332850127,185.22000794447337 L 682.7541581635138,273.0401538655175 A 279.9876701745677,279.9876701745677 0 0 0 652.0054205477023,301.915140461746 Z "/><path class="wedge" fill="rgb(222,169,156)" d=" M 682.7541581635138,273.0401538655175 L 611.9428332850127,185.22000794447337 A 392.8,392.8 0 0,1 660.676806397473,151.65088172665435 L 717.4917131281468,249.112095210927 A 279.9876701745677,279.9876701745677 0 0 0 682.7541581635138,273.0401538655175 Z "/><path class="wedge" fill="rgb(222,169,156)" d=" M 682.7541581635138,273.0401538655175 L 611.9428332850127,185.22000794447337 A 392.8,392.8 0 0,1 660.676806397473,151.65088172665435 L 717.4917131281468,249.112095210927 A 279.9876701745677,279.9876701745677 0 0 0 682.7541581635138,273.0401538655175 Z "/><path class="wedge" fill="rgb(218,160,145)" d=" M 735.6661860340267,280.28888112453996 L 660.676806397473,151.65088172665435 A 392.8,392.8 0 0,1 732.4333500677283,118.97978579806437 L 780.2217802266016,260.0025069826879 A 243.90022851808808,243.90022851808808 0 0 0 735.6661860340267,280.28888112453996 Z "/><path class="wedge" fill="rgb(222,170,156)" d=" M 717.4917131281468,249.112095210927 L 660.676806397473,151.65088172665435 A 392.8,392.8 0 0,1 713.9006757054585,125.78379634309482 L 755.4296641597622,230.67404793305167 A 279.9876701745677,279.9876701745677 0 0 0 717.4917131281468,249.112095210927 Z "/><path class="wedge" fill="rgb(222,170,156)" d=" M 717.4917131281468,249.112095210927 L 660.676806397473,151.65088172665435 A 392.8,392.8 0 0,1 713.9006757054585,125.78379634309482 L 755.4296641597622,230.67404793305167 A 279.9876701745677,279.9876701745677 0 0 0 717.4917131281468,249.112095210927 Z "/><path class="wedge" fill="rgb(222,171,156)" d=" M 755.4296641597622,230.67404793305167 L 713.9006757054585,125.78379634309482 A 392.8,392.8 0 0,1 732.4333500677283,118.97978579806437 L 768.639746432664,225.82415215823937 A 279.9876701745677,279.9876701745677 0 0 0 755.4296641597622,230.67404793305167 Z "/><path class="wedge" fill="rgb(222,171,156)" d=" M 755.4296641597622,230.67404793305167 L 713.9006757054585,125.78379634309482 A 392.8,392.8 0 0,1 732.4333500677283,118.97978579806437 L 768.639746432664,225.82415215823937 A 279.9876701745677,279.9876701745677 0 0 0 755.4296641597622,230.67404793305167 Z "/><path class="wedge" fill="rgb(214,152,134)" d=" M 793.893732336826,300.3481698152994 L 732.4333500677283,118.97978579806437 A 392.8,392.8 0 0,1 888.0883692113722,99.31598397763082 L 873.6633608255135,290.27092222944657 A 201.3009939720656,201.3009939720656 0 0 0 793.893732336826,300.3481698152994 Z "/><path class="wedge" fill="rgb(214,152,134)" d=" M 793.893732336826,300.3481698152994 L 732.4333500677283,118.97978579806437 A 392.8,392.8 0 0,1 888.0883692113722,99.31598397763082 L 873.6633608255135,290.27092222944657 A 201.3009939720656,201.3009939720656 0 0 0 793.893732336826,300.3481698152994 Z "/><path class="wedge" fill="rgb(218,162,145)" d=" M 780.2217802266016,260.0025069826879 L 732.4333500677283,118.97978579806437 A 392.8,392.8 0 0,1 809.2691058559415,101.29734532367308 L 827.9311956927554,249.02299763324413 A 243.90022851808808,243.90022851808808 0 0 0 780.2217802266016,260.0025069826879 Z "/><path class="wedge" fill="rgb(222,171,156)" d=" M 768.639746432664,225.82415215823937 L 732.4333500677283,118.97978579806437 A 392.8,392.8 0 0,1 789.7509424345116,104.2631293969281 L 809.4957014906865,215.3341258381941 A 279.9876701745677,279.9876701745677 0 0 0 768.639746432664,225.82415215823937 Z "/><path class="wedge" fill="rgb(222,172,156)" d=" M 809.4957014906865,215.3341258381941 L 789.7509424345116,104.2631293969281 A 392.8,392.8 0 0,1 809.2691058559415,101.29734532367308 L 823.4082399388857,213.22011623302222 A 279.9876701745677,279.9876701745677 0 0 0 809.4957014906865,215.3341258381941 Z "/><path class="wedge" fill="rgb(218,163,145)" d=" M 827.9311956927554,249.02299763324413 L 809.2691058559415,101.29734532367308 A 392.8,392.8 0 0,1 888.0883692113722,99.31598397763082 L 876.8722250818005,247.79271635759085 A 243.90022851808808,243.90022851808808 0 0 0 827.9311956927554,249.02299763324413 Z "/><path class="wedge" fill="rgb(218,163,145)" d=" M 827.9311956927554,249.02299763324413 L 809.2691058559415,101.29734532367308 A 392.8,392.8 0 0,1 888.0883692113722,99.31598397763082 L 876.8722250818005,247.79271635759085 A 243.90022851808808,243.90022851808808 0 0 0 827.9311956927554,249.02299763324413 Z "/><path class="wedge" fill="rgb(214,155,134)" d=" M 873.6633608255135,290.27092222944657 L 888.0883692113722,99.31598397763082 A 392.8,392.8 0 0,1 927.2490575654882,104.2631293969281 L 893.7323157397544,292.80622082982563 A 201.3009939720656,201.3009939720656 0 0 0 873.6633608255135,290.27092222944657 Z "/><path class="wedge" fill="rgb(214,155,134)" d=" M 873.6633608255135,290.27092222944657 L 888.0883692113722,99.31598397763082 A 392.8,392.8 0 0,1 927.2490575654882,104.2631293969281 L 893.7323157397544,292.80622082982563 A 201.3009939720656,201.3009939720656 0 0 0 873.6633608255135,290.27092222944657 Z "/><path class="wedge" fill="rgb(214,155,134)" d=" M 873.6633608255135,290.27092222944657 L 888.0883692113722,99.31598397763082 A 392.8,392.8 0 0,1 927.2490575654882,104.2631293969281 L 893.7323157397544,292.80622082982563 A 201.3009939720656,201.3009939720656 0 0 0 873.6633608255135,290.27092222944657 Z "/><path class="wedge" fill="rgb(214,155,134)" d=" M 893.7323157397544,292.80622082982563 L 927.2490575654882,104.2631293969281 A 392.8,392.8 0 0,1 965.7155202712055,113.1155306009855 L 913.4454959262368,297.342873481089 A 201.3009939720656,201.3009939720656 0 0 0 893.7323157397544,292.80622082982563 Z "/><path class="wedge" fill="rgb(214,155,134)" d=" M 893.7323157397544,292.80622082982563 L 927.2490575654882,104.2631293969281 A 392.8,392.8 0 0,1 965.7155202712055,113.1155306009855 L 913.4454959262368,297.342873481089 A 201.3009939720656,201.3009939720656 0 0 0 893.7323157397544,292.80622082982563 Z "/><path class="wedge" fill="rgb(214,155,134)" d=" M 893.7323157397544,292.80622082982563 L 927.2490575654882,104.2631293969281 A 392.8,392.8 0 0,1 965.7155202712055,113.1155306009855 L 913.4454959262368,297.342873481089 A 201.3009939720656,201.3009939720656 0 0 0 893.7323157397544,292.80622082982563 Z "/><path class="wedge" fill="rgb(214,155,134)" d=" M 893.7323157397544,292.80622082982563 L 927.2490575654882,104.2631293969281 A 392.8,392.8 0 0,1 965.7155202712055,113.1155306009855 L 913.4454959262368,297.342873481089 A 201.3009939720656,201.3009939720656 0 0 0 893.7323157397544,292.80622082982563 Z "/><path class="wedge" fill="rgb(214,156,134)" d=" M 913.4454959262368,297.342873481089 L 965.7155202712055,113.1155306009855 A 392.8,392.8 0 0,1 1003.0993242945412,125.78379634309476 L 932.6038383609476,303.8350692188407 A 201.3009939720656,201.3009939720656 0 0 0 913.4454959262368,297.342873481089 Z "/><path class="wedge" fill="rgb(214,156,134)" d=" M 913.4454959262368,297.342873481089 L 965.7155202712055,113.1155306009855 A 392.8,392.8 0 0,1 1003.0993242945412,125.78379634309476 L 932.6038383609476,303.8350692188407 A 201.3009939720656,201.3009939720656 0 0 0 913.4454959262368,297.342873481089 Z "/><path class="wedge" fill="rgb(214,156,134)" d=" M 913.4454959262368,297.342873481089 L 965.7155202712055,113.1155306009855 A 392.8,392.8 0 0,1 1003.0993242945412,125.78379634309476 L 932.6038383609476,303.8350692188407 A 201.3009939720656,201.3009939720656 0 0 0 913.4454959262368,297.342873481089 Z "/><path class="wedge" fill="rgb(214,156,134)" d=" M 913.4454959262368,297.342873481089 L 965.7155202712055,113.1155306009855 A 392.8,392.8 0 0,1 1003.0993242945412,125.78379634309476 L 932.6038383609476,303.8350692188407 A 201.3009939720656,201.3009939720656 0 0 0 913.4454959262368,297.342873481089 Z "/><path class="wedge" fill="rgb(211,148,123)" d=" M 913.8140591607316,351.2926341869602 L 1003.0993242945412,125.78379634309476 A 392.8,392.8 0 0,1 878.2359681810134,883.3038765548437 L 866.0496653728146,641.0693031769454 A 150.25908692407071,150.25908692407071 0 0 0 913.8140591607316,351.2926341869602 Z "/><path class="wedge" fill="rgb(214,157,134)" d=" M 932.6038383609476,303.8350692188407 L 1003.0993242945412,125.78379634309476 A 392.8,392.8 0 0,1 1218.0067326054964,649.2616479483266 L 1042.7389577727497,572.1054659869023 A 201.3009939720656,201.3009939720656 0 0 0 932.6038383609476,303.8350692188407 Z "/><path class="wedge" fill="rgb(214,157,134)" d=" M 932.6038383609476,303.8350692188407 L 1003.0993242945412,125.78379634309476 A 392.8,392.8 0 0,1 1218.0067326054964,649.2616479483266 L 1042.7389577727497,572.1054659869023 A 201.3009939720656,201.3009939720656 0 0 0 932.6038383609476,303.8350692188407 Z "/><path class="wedge" fill="rgb(218,166,145)" d=" M 948.2856625229118,264.22730262111054 L 1003.0993242945412,125.78379634309476 A 392.8,392.8 0 0,1 1247.5532480136446,436.8759738190743 L 1100.0737680657646,457.3929166144431 A 243.90022851808808,243.90022851808808 0 0 0 948.2856625229118,264.22730262111054 Z "/><path class="wedge" fill="rgb(222,175,156)" d=" M 961.5703358402377,230.6740479330516 L 1003.0993242945412,125.78379634309476 A 392.8,392.8 0 0,1 1221.8703268445752,341.8227712790365 L 1117.5102118731766,384.6665358638463 A 279.9876701745677,279.9876701745677 0 0 0 961.5703358402377,230.6740479330516 Z "/><path class="wedge" fill="rgb(222,179,156)" d=" M 1117.5102118731766,384.6665358638463 L 1221.8703268445752,341.8227712790365 A 392.8,392.8 0 0,1 1240.1569446888839,398.1031939690811 L 1130.5449051664575,424.78319682470544 A 279.9876701745677,279.9876701745677 0 0 0 1117.5102118731766,384.6665358638463 Z "/><path class="wedge" fill="rgb(222,179,156)" d=" M 1130.5449051664575,424.78319682470544 L 1240.1569446888839,398.1031939690811 A 392.8,392.8 0 0,1 1247.5532480136446,436.8759738190743 L 1135.816986978586,452.42041753853186 A 279.9876701745677,279.9876701745677 0 0 0 1130.5449051664575,424.78319682470544 Z "/><path class="wedge" fill="rgb(218,172,145)" d=" M 1100.0737680657646,457.3929166144431 L 1247.5532480136446,436.8759738190743 A 392.8,392.8 0 0,1 1218.0067326054964,649.2616479483266 L 1081.7275311514047,589.2689717419706 A 243.90022851808808,243.90022851808808 0 0 0 1100.0737680657646,457.3929166144431 Z "/><path class="wedge" fill="rgb(218,172,145)" d=" M 1100.0737680657646,457.3929166144431 L 1247.5532480136446,436.8759738190743 A 392.8,392.8 0 0,1 1218.0067326054964,649.2616479483266 L 1081.7275311514047,589.2689717419706 A 243.90022851808808,243.90022851808808 0 0 0 1100.0737680657646,457.3929166144431 Z "/><path class="wedge" fill="rgb(214,167,134)" d=" M 1042.7389577727497,572.1054659869023 L 1218.0067326054964,649.2616479483266 A 392.8,392.8 0 0,1 1047.7328431871538,835.2132639212296 L 955.4774934463699,667.4014057171906 A 201.3009939720656,201.3009939720656 0 0 0 1042.7389577727497,572.1054659869023 Z "/><path class="wedge" fill="rgb(214,167,134)" d=" M 1042.7389577727497,572.1054659869023 L 1218.0067326054964,649.2616479483266 A 392.8,392.8 0 0,1 1047.7328431871538,835.2132639212296 L 955.4774934463699,667.4014057171906 A 201.3009939720656,201.3009939720656 0 0 0 1042.7389577727497,572.1054659869023 Z "/><path class="wedge" fill="rgb(214,167,134)" d=" M 1042.7389577727497,572.1054659869023 L 1218.0067326054964,649.2616479483266 A 392.8,392.8 0 0,1 1047.7328431871538,835.2132639212296 L 955.4774934463699,667.4014057171906 A 201.3009939720656,201.3009939720656 0 0 0 1042.7389577727497,572.1054659869023 Z "/><path class="wedge" fill="rgb(218,175,145)" d=" M 1081.7275311514047,589.2689717419706 L 1218.0067326054964,649.2616479483266 A 392.8,392.8 0 0,1 1064.7885946487968,825.270632448955 L 986.5902122594623,698.5577485773573 A 243.90022851808808,243.90022851808808 0 0 0 1081.7275311514047,589.2689717419706 Z "/><path class="wedge" fill="rgb(218,178,145)" d=" M 986.5902122594623,698.5577485773573 L 1064.7885946487968,825.270632448955 A 392.8,392.8 0 0,1 1047.7328431871538,835.2132639212296 L 975.999831202837,704.7313995146254 A 243.90022851808808,243.90022851808808 0 0 0 986.5902122594623,698.5577485773573 Z "/><path class="wedge" fill="rgb(214,171,134)" d=" M 955.4774934463699,667.4014057171906 L 1047.7328431871538,835.2132639212296 A 392.8,392.8 0 0,1 993.8757402229502,859.7346592864418 L 927.8769630004684,679.9680586209564 A 201.3009939720656,201.3009939720656 0 0 0 955.4774934463699,667.4014057171906 Z "/><path class="wedge" fill="rgb(214,171,134)" d=" M 955.4774934463699,667.4014057171906 L 1047.7328431871538,835.2132639212296 A 392.8,392.8 0 0,1 993.8757402229502,859.7346592864418 L 927.8769630004684,679.9680586209564 A 201.3009939720656,201.3009939720656 0 0 0 955.4774934463699,667.4014057171906 Z "/><path class="wedge" fill="rgb(214,171,134)" d=" M 955.4774934463699,667.4014057171906 L 1047.7328431871538,835.2132639212296 A 392.8,392.8 0 0,1 993.8757402229502,859.7346592864418 L 927.8769630004684,679.9680586209564 A 201.3009939720656,201.3009939720656 0 0 0 955.4774934463699,667.4014057171906 Z "/><path class="wedge" fill="rgb(214,171,134)" d=" M 955.4774934463699,667.4014057171906 L 1047.7328431871538,835.2132639212296 A 392.8,392.8 0 0,1 993.8757402229502,859.7346592864418 L 927.8769630004684,679.9680586209564 A 201.3009939720656,201.3009939720656 0 0 0 955.4774934463699,667.4014057171906 Z "/><path class="wedge" fill="rgb(214,172,134)" d=" M 927.8769630004684,679.9680586209564 L 993.8757402229502,859.7346592864418 A 392.8,392.8 0 0,1 956.1853876783549,871.4594656913264 L 908.5615214770861,685.9767530797989 A 201.3009939720656,201.3009939720656 0 0 0 927.8769630004684,679.9680586209564 Z "/><path class="wedge" fill="rgb(214,172,134)" d=" M 927.8769630004684,679.9680586209564 L 993.8757402229502,859.7346592864418 A 392.8,392.8 0 0,1 956.1853876783549,871.4594656913264 L 908.5615214770861,685.9767530797989 A 201.3009939720656,201.3009939720656 0 0 0 927.8769630004684,679.9680586209564 Z "/><path class="wedge" fill="rgb(214,172,134)" d=" M 927.8769630004684,679.9680586209564 L 993.8757402229502,859.7346592864418 A 392.8,392.8 0 0,1 956.1853876783549,871.4594656913264 L 908.5615214770861,685.9767530797989 A 201.3009939720656,201.3009939720656 0 0 0 927.8769630004684,679.9680586209564 Z "/><path class="wedge" fill="rgb(214,172,134)" d=" M 927.8769630004684,679.9680586209564 L 993.8757402229502,859.7346592864418 A 392.8,392.8 0 0,1 956.1853876783549,871.4594656913264 L 908.5615214770861,685.9767530797989 A 201.3009939720656,201.3009939720656 0 0 0 927.8769630004684,679.9680586209564 Z "/><path class="wedge" fill="rgb(214,173,134)" d=" M 908.5615214770861,685.9767530797989 L 956.1853876783549,871.4594656913264 A 392.8,392.8 0 0,1 936.9460803460591,875.8870645765321 L 898.701817583692,688.2457959934993 A 201.3009939720656,201.3009939720656 0 0 0 908.5615214770861,685.9767530797989 Z "/><path class="wedge" fill="rgb(214,173,134)" d=" M 908.5615214770861,685.9767530797989 L 956.1853876783549,871.4594656913264 A 392.8,392.8 0 0,1 936.9460803460591,875.8870645765321 L 898.701817583692,688.2457959934993 A 201.3009939720656,201.3009939720656 0 0 0 908.5615214770861,685.9767530797989 Z "/><path class="wedge" fill="rgb(214,173,134)" d=" M 908.5615214770861,685.9767530797989 L 956.1853876783549,871.4594656913264 A 392.8,392.8 0 0,1 936.9460803460591,875.8870645765321 L 898.701817583692,688.2457959934993 A 201.3009939720656,201.3009939720656 0 0 0 908.5615214770861,685.9767530797989 Z "/><path class="wedge" fill="rgb(214,173,134)" d=" M 908.5615214770861,685.9767530797989 L 956.1853876783549,871.4594656913264 A 392.8,392.8 0 0,1 936.9460803460591,875.8870645765321 L 898.701817583692,688.2457959934993 A 201.3009939720656,201.3009939720656 0 0 0 908.5615214770861,685.9767530797989 Z "/><path class="wedge" fill="rgb(214,173,134)" d=" M 898.701817583692,688.2457959934993 L 936.9460803460591,875.8870645765321 A 392.8,392.8 0 0,1 917.5086114066333,879.3424053330527 L 888.7405604100475,690.016578907959 A 201.3009939720656,201.3009939720656 0 0 0 898.701817583692,688.2457959934993 Z "/><path class="wedge" fill="rgb(214,173,134)" d=" M 898.701817583692,688.2457959934993 L 936.9460803460591,875.8870645765321 A 392.8,392.8 0 0,1 917.5086114066333,879.3424053330527 L 888.7405604100475,690.016578907959 A 201.3009939720656,201.3009939720656 0 0 0 898.701817583692,688.2457959934993 Z "/><path class="wedge" fill="rgb(214,173,134)" d=" M 898.701817583692,688.2457959934993 L 936.9460803460591,875.8870645765321 A 392.8,392.8 0 0,1 917.5086114066333,879.3424053330527 L 888.7405604100475,690.016578907959 A 201.3009939720656,201.3009939720656 0 0 0 898.701817583692,688.2457959934993 Z "/><path class="wedge" fill="rgb(214,173,134)" d=" M 898.701817583692,688.2457959934993 L 936.9460803460591,875.8870645765321 A 392.8,392.8 0 0,1 917.5086114066333,879.3424053330527 L 888.7405604100475,690.016578907959 A 201.3009939720656,201.3009939720656 0 0 0 898.701817583692,688.2457959934993 Z "/><path class="wedge" fill="rgb(214,174,134)" d=" M 888.7405604100475,690.016578907959 L 917.5086114066333,879.3424053330527 A 392.8,392.8 0 0,1 897.9220815935573,881.8167594702547 L 878.7029129562907,691.2846286718533 A 201.3009939720656,201.3009939720656 0 0 0 888.7405604100475,690.016578907959 Z "/><path class="wedge" fill="rgb(214,174,134)" d=" M 888.7405604100475,690.016578907959 L 917.5086114066333,879.3424053330527 A 392.8,392.8 0 0,1 897.9220815935573,881.8167594702547 L 878.7029129562907,691.2846286718533 A 201.3009939720656,201.3009939720656 0 0 0 888.7405604100475,690.016578907959 Z "/><path class="wedge" fill="rgb(214,174,134)" d=" M 888.7405604100475,690.016578907959 L 917.5086114066333,879.3424053330527 A 392.8,392.8 0 0,1 897.9220815935573,881.8167594702547 L 878.7029129562907,691.2846286718533 A 201.3009939720656,201.3009939720656 0 0 0 888.7405604100475,690.016578907959 Z "/><path class="wedge" fill="rgb(214,174,134)" d=" M 888.7405604100475,690.016578907959 L 917.5086114066333,879.3424053330527 A 392.8,392.8 0 0,1 897.9220815935573,881.8167594702547 L 878.7029129562907,691.2846286718533 A 201.3009939720656,201.3009939720656 0 0 0 888.7405604100475,690.016578907959 Z "/><path class="wedge" fill="rgb(214,174,134)" d=" M 878.7029129562907,691.2846286718533 L 897.9220815935573,881.8167594702547 A 392.8,392.8 0 0,1 878.2359681810134,883.3038765548437 L 868.6142311910363,692.046742081427 A 201.3009939720656,201.3009939720656 0 0 0 878.7029129562907,691.2846286718533 Z "/><path class="wedge" fill="rgb(214,174,134)" d=" M 878.7029129562907,691.2846286718533 L 897.9220815935573,881.8167594702547 A 392.8,392.8 0 0,1 878.2359681810134,883.3038765548437 L 868.6142311910363,692.046742081427 A 201.3009939720656,201.3009939720656 0 0 0 878.7029129562907,691.2846286718533 Z "/><path class="wedge" fill="rgb(214,174,134)" d=" M 878.7029129562907,691.2846286718533 L 897.9220815935573,881.8167594702547 A 392.8,392.8 0 0,1 878.2359681810134,883.3038765548437 L 868.6142311910363,692.046742081427 A 201.3009939720656,201.3009939720656 0 0 0 878.7029129562907,691.2846286718533 Z "/><path class="wedge" fill="rgb(214,174,134)" d=" M 878.7029129562907,691.2846286718533 L 897.9220815935573,881.8167594702547 A 392.8,392.8 0 0,1 878.2359681810134,883.3038765548437 L 868.6142311910363,692.046742081427 A 201.3009939720656,201.3009939720656 0 0 0 878.7029129562907,691.2846286718533 Z "/><path class="wedge" fill="rgb(112,207,207)" d=" M 862.9214999998197,578.8888521813295 L 878.2359681810134,883.3038765548437 A 392.8,392.8 0 0,1 858.5000000000001,883.8 L 858.5,579 A 88,88 0 0 0 862.9214999998197,578.8888521813295 Z "/><path class="wedge" fill="rgb(112,207,207)" d=" M 862.9214999998197,578.8888521813295 L 878.2359681810134,883.3038765548437 A 392.8,392.8 0 0,1 858.5000000000001,883.8 L 858.5,579 A 88,88 0 0 0 862.9214999998197,578.8888521813295 Z "/><path class="wedge" fill="rgb(112,207,207)" d=" M 862.9214999998197,578.8888521813295 L 878.2359681810134,883.3038765548437 A 392.8,392.8 0 0,1 858.5000000000001,883.8 L 858.5,579 A 88,88 0 0 0 862.9214999998197,578.8888521813295 Z "/><path class="wedge" fill="rgb(112,207,207)" d=" M 862.9214999998197,578.8888521813295 L 878.2359681810134,883.3038765548437 A 392.8,392.8 0 0,1 858.5000000000001,883.8 L 858.5,579 A 88,88 0 0 0 862.9214999998197,578.8888521813295 Z "/><path class="wedge" fill="rgb(112,207,207)" d=" M 862.9214999998197,578.8888521813295 L 878.2359681810134,883.3038765548437 A 392.8,392.8 0 0,1 858.5000000000001,883.8 L 858.5,579 A 88,88 0 0 0 862.9214999998197,578.8888521813295 Z "/><path class="wedge" fill="rgb(112,207,207)" d=" M 862.9214999998197,578.8888521813295 L 878.2359681810134,883.3038765548437 A 392.8,392.8 0 0,1 858.5000000000001,883.8 L 858.5,579 A 88,88 0 0 0 862.9214999998197,578.8888521813295 Z "/><rect fill="rgb(112,207,207)" x="1830.27" y="945.27" width="22" height="22"/><path class="line" d="M 868.371101490143,883.6759495504803 L 870.2219330195448,957.3026900911952 A 466.45000000000005,466.45000000000005 0 0,0 891.6576476849621,956.27 L 1324.95,956.27 L 1664.2366697184245,956.27"/><text x="1822.9366666666667" y="956.27" style="font-color:black;font-weight:normal" text-anchor="end">Anaerobic bioreactor&#160;&#160;&#160;0.8%</text><circle cx="858.5" cy="491" r="88"/><circle cx="858.5" cy="491" r="392.8"/><text x="858.5" y="491" text-anchor="middle" style="font-color:black;font-weight:bold" transform="rotate(360,858.5,491)">all</text><path class="line" d=" M 862.9214999998197,578.8888521813295 A 88,88 0 1 0 858.5,579"/><line x1="878.2359681810134" y1="883.3038765548437" x2="862.9214999998197" y2="578.8888521813295"/><text x="858.5" y="371.8704565379646" text-anchor="middle" style="font-color:black;font-weight:normal" transform="rotate(358.56,858.5,491)">Environmental</text><path class="line" d=" M 913.8140591607316,351.2926341869602 A 150.25908692407071,150.25908692407071 0 1 0 858.5,641.2590869240707"/><line x1="1003.0993242945412" y1="125.78379634309476" x2="913.8140591607316" y2="351.2926341869602"/><text x="858.5" y="325.4283409615308" text-anchor="middle" style="font-color:black;font-weight:normal" transform="rotate(280.8,858.5,491)">Aquatic</text><line x1="474.6290810624136" y1="574.2763927773831" x2="661.7749553485072" y2="533.6772419564546"/><path class="line" d=" M 661.7749553485072,533.6772419564546 A 201.3009939720656,201.3009939720656 0 0 0 858.5,692.3009939720656"/><text x="858.5" y="705.0807643358723" text-anchor="middle" style="font-color:black;font-weight:normal" transform="rotate(38.879999999999995,858.5,491)">Freshwater</text><path class="line" d=" M 666.7240717207494,641.6961008248301 A 243.90022851808808,243.90022851808808 0 0 0 858.5,734.900228518088"/><line x1="549.6459038567361" y1="733.6952560218833" x2="666.7240717207494" y2="641.6961008248301"/><text x="858.5" y="745.726461015032" text-anchor="middle" style="font-color:black;font-weight:normal" transform="rotate(25.920000000000016,858.5,491)">Sediment</text><path class="line" d=" M 775.3320196292773,758.3502992159118 A 279.9876701745677,279.9876701745677 0 0 0 858.5,770.9876701745677"/><line x1="741.8220667565407" y1="866.0707931764814" x2="775.3320196292773" y2="758.3502992159118"/><text x="522.1061649127162" y="491" text-anchor="end" style="font-color:black;font-weight:normal" transform="rotate(-81.36,858.5,491)">sediment&#160;&#160;&#160;5%</text><path class="line" d=" M 699.6716885716241,721.5789733227932 A 279.9876701745677,279.9876701745677 0 0 0 775.3320196292773,758.3502992159118"/><line x1="635.6767567830101" y1="814.4836043484463" x2="699.6716885716241" y2="721.5789733227932"/><text x="522.1061649127162" y="491" text-anchor="end" style="font-color:black;font-weight:normal" transform="rotate(-64.08000000000001,858.5,491)">Lake sediment&#160;&#160;&#160;5%</text><path class="line" d=" M 656.8223543159202,685.2143730034142 A 279.9876701745677,279.9876701745677 0 0 0 699.6716885716241,721.5789733227932"/><line x1="575.5626150240302" y1="763.4670185232698" x2="656.8223543159202" y2="685.2143730034142"/><text x="522.1061649127162" y="491" text-anchor="end" style="font-color:black;font-weight:normal" transform="rotate(-49.680000000000014,858.5,491)">Euxinic sediment&#160;&#160;&#160;3%</text><path class="line" d=" M 647.3189131817475,674.835916023078 A 279.9876701745677,279.9876701745677 0 0 0 656.8223543159202,685.2143730034142"/><line x1="562.2300576468583" y1="748.9068848597612" x2="647.3189131817475" y2="674.835916023078"/><text x="522.1061649127162" y="491" text-anchor="end" style="font-color:black;font-weight:normal" transform="rotate(-42.48000000000001,858.5,491)">Euxinic Sediment&#160;&#160;&#160;0.8%</text><path class="line" d=" M 638.3489338008544,663.9930735641226 A 279.9876701745677,279.9876701745677 0 0 0 647.3189131817475,674.835916023078"/><text x="522.1061649127162" y="491" text-anchor="end" style="font-color:black;font-weight:normal" transform="rotate(-39.59999999999998,858.5,491)">sediment slurry&#160;&#160;&#160;0.8%</text><path class="line" d=" M 620.1440813382744,542.7085825574486 A 243.90022851808808,243.90022851808808 0 0 0 666.7240717207494,641.6961008248301"/><text x="858.5" y="760.1614376776239" text-anchor="middle" style="font-color:black;font-weight:normal" transform="rotate(64.79999999999998,858.5,491)">Unclassified</text><path class="line" d=" M 592.2159017981792,577.520948299389 A 279.9876701745677,279.9876701745677 0 0 0 638.3489338008544,663.9930735641226"/><line x1="484.9250003992637" y1="612.3818753904794" x2="592.2159017981792" y2="577.520948299389"/><text x="522.1061649127162" y="491" text-anchor="end" style="font-color:black;font-weight:normal" transform="rotate(-28.07999999999998,858.5,491)">freshwater&#160;&#160;&#160;6%</text><path class="line" d=" M 584.8769749462699,550.3593767675196 A 279.9876701745677,279.9876701745677 0 0 0 592.2159017981792,577.520948299389"/><text x="522.1061649127162" y="491" text-anchor="end" style="font-color:black;font-weight:normal" transform="rotate(-15.120000000000001,858.5,491)">Freshwater&#160;&#160;&#160;2%</text><path class="line" d=" M 710.0378764083629,355.0548344632915 A 201.3009939720656,201.3009939720656 0 0 0 661.7749553485072,533.6772419564546"/><line x1="568.8048475017092" y1="225.72927297006163" x2="710.0378764083629" y2="355.0548344632915"/><text x="858.5" y="259.8795418457187" text-anchor="middle" style="font-color:black;font-weight:normal" transform="rotate(285.11999999999995,858.5,491)">Groundwater</text><path class="line" d=" M 628.504392805336,409.82523703555756 A 243.90022851808808,243.90022851808808 0 0 0 620.1440813382744,542.7085825574486"/><line x1="488.09331750128285" y1="360.2684829113708" x2="628.504392805336" y2="409.82523703555756"/><text x="858.5" y="236.27353898496798" text-anchor="middle" style="font-color:black;font-weight:normal" transform="rotate(273.59999999999997,858.5,491)">Deep subsurface</text><path class="line" d=" M 579.5948715934196,466.40274815570945 A 279.9876701745677,279.9876701745677 0 0 0 584.8769749462699,550.3593767675196"/><line x1="467.2187183285618" y1="456.4920499948682" x2="579.5948715934196" y2="466.40274815570945"/><text x="858.5" y="780.2757825751157" text-anchor="middle" style="font-color:black;font-weight:normal" transform="rotate(86.4,858.5,491)">Unclassified</text><path class="line" d=" M 547.5765063073914,494.9073855331485 A 310.94804484306104,310.94804484306104 0 0 0 554.6203876890232,556.9231963230909"/><line x1="465.731013836741" y1="495.935940466181" x2="547.5765063073914" y2="494.9073855331485"/><text x="506.6259775784695" y="491" text-anchor="end" style="font-color:black;font-weight:normal" transform="rotate(-6.480000000000004,858.5,491)">Groundwater&#160;&#160;&#160;3%</text><path class="line" d=" M 548.7542018344686,463.682842195423 A 310.94804484306104,310.94804484306104 0 0 0 547.5765063073914,494.9073855331485"/><text x="506.6259775784695" y="491" text-anchor="end" style="font-color:black;font-weight:normal" transform="rotate(2.159999999999993,858.5,491)">groundwater&#160;&#160;&#160;2%</text><line x1="481.9926412739747" y1="379.04443370179354" x2="590.1257174814664" y2="411.1981207461579"/><path class="line" d=" M 590.1257174814664,411.1981207461579 A 279.9876701745677,279.9876701745677 0 0 0 579.5948715934196,466.40274815570945"/><text x="522.1061649127162" y="491" text-anchor="end" style="font-color:black;font-weight:normal" transform="rotate(10.799999999999988,858.5,491)">Bioremediated contaminated groundwater&#160;&#160;&#160;3%</text><path class="line" d=" M 594.4742768586898,397.8146311404481 A 279.9876701745677,279.9876701745677 0 0 0 590.1257174814664,411.1981207461579"/><text x="522.1061649127162" y="491" text-anchor="end" style="font-color:black;font-weight:normal" transform="rotate(18,858.5,491)">coal bed water&#160;&#160;&#160;0.8%</text><path class="line" d=" M 678.6203821412539,326.28617377352003 A 243.90022851808808,243.90022851808808 0 0 0 628.504392805336,409.82523703555756"/><text x="858.5" y="221.8385623223761" text-anchor="middle" style="font-color:black;font-weight:normal" transform="rotate(300.96000000000004,858.5,491)">Unclassified</text><path class="line" d=" M 625.9433893276143,335.08169356244616 A 279.9876701745677,279.9876701745677 0 0 0 594.4742768586898,397.8146311404481"/><line x1="532.2419307958849" y1="272.25925784343974" x2="625.9433893276143" y2="335.08169356244616"/><text x="522.1061649127162" y="491" text-anchor="end" style="font-color:black;font-weight:normal" transform="rotate(26.640000000000022,858.5,491)">Groundwater&#160;&#160;&#160;4%</text><path class="line" d=" M 642.7657923165557,312.5291421968868 A 279.9876701745677,279.9876701745677 0 0 0 625.9433893276143,335.08169356244616"/><line x1="555.84239823767" y1="240.6198568267147" x2="642.7657923165557" y2="312.5291421968868"/><text x="522.1061649127162" y="491" text-anchor="end" style="font-color:black;font-weight:normal" transform="rotate(36.720000000000006,858.5,491)">Well water&#160;&#160;&#160;2%</text><path class="line" d=" M 652.0054205477023,301.915140461746 A 279.9876701745677,279.9876701745677 0 0 0 642.7657923165557,312.5291421968868"/><text x="522.1061649127162" y="491" text-anchor="end" style="font-color:black;font-weight:normal" transform="rotate(41.03999999999999,858.5,491)">Freshwater aquifer&#160;&#160;&#160;0.8%</text><path class="line" d=" M 793.893732336826,300.3481698152994 A 201.3009939720656,201.3009939720656 0 0 0 710.0378764083629,355.0548344632915"/><line x1="732.4333500677283" y1="118.97978579806437" x2="793.893732336826" y2="300.3481698152994"/><text x="858.5" y="276.91923566412765" text-anchor="middle" style="font-color:black;font-weight:normal" transform="rotate(326.88000000000005,858.5,491)">Wetlands</text><path class="line" d=" M 735.6661860340267,280.28888112453996 A 243.90022851808808,243.90022851808808 0 0 0 678.6203821412539,326.28617377352003"/><line x1="660.676806397473" y1="151.65088172665435" x2="735.6661860340267" y2="280.28888112453996"/><text x="858.5" y="236.27353898496798" text-anchor="middle" style="font-color:black;font-weight:normal" transform="rotate(321.12,858.5,491)">Marine</text><line x1="611.9428332850127" y1="185.22000794447337" x2="682.7541581635138" y2="273.0401538655175"/><path class="line" d=" M 682.7541581635138,273.0401538655175 A 279.9876701745677,279.9876701745677 0 0 0 652.0054205477023,301.915140461746"/><text x="522.1061649127162" y="491" text-anchor="end" style="font-color:black;font-weight:normal" transform="rotate(46.79999999999999,858.5,491)">sediment&#160;&#160;&#160;2%</text><path class="line" d=" M 717.4917131281468,249.112095210927 A 279.9876701745677,279.9876701745677 0 0 0 682.7541581635138,273.0401538655175"/><text x="522.1061649127162" y="491" text-anchor="end" style="font-color:black;font-weight:normal" transform="rotate(55.44000000000002,858.5,491)">Natural and restored wetlands&#160;&#160;&#160;2%</text><path class="line" d=" M 780.2217802266016,260.0025069826879 A 243.90022851808808,243.90022851808808 0 0 0 735.6661860340267,280.28888112453996"/><text x="858.5" y="221.8385623223761" text-anchor="middle" style="font-color:black;font-weight:normal" transform="rotate(335.52,858.5,491)">Freshwater</text><line x1="713.9006757054585" y1="125.78379634309482" x2="755.4296641597622" y2="230.67404793305167"/><path class="line" d=" M 755.4296641597622,230.67404793305167 A 279.9876701745677,279.9876701745677 0 0 0 717.4917131281468,249.112095210927"/><text x="522.1061649127162" y="491" text-anchor="end" style="font-color:black;font-weight:normal" transform="rotate(64.07999999999998,858.5,491)">soil&#160;&#160;&#160;2%</text><path class="line" d=" M 768.639746432664,225.82415215823937 A 279.9876701745677,279.9876701745677 0 0 0 755.4296641597622,230.67404793305167"/><text x="522.1061649127162" y="491" text-anchor="end" style="font-color:black;font-weight:normal" transform="rotate(69.84000000000003,858.5,491)">freshwater wetlands&#160;&#160;&#160;0.8%</text><line x1="888.0883692113722" y1="99.31598397763082" x2="873.6633608255135" y2="290.27092222944657"/><path class="line" d=" M 873.6633608255135,290.27092222944657 A 201.3009939720656,201.3009939720656 0 0 0 793.893732336826,300.3481698152994"/><text x="858.5" y="259.8795418457187" text-anchor="middle" style="font-color:black;font-weight:normal" transform="rotate(352.80000000000007,858.5,491)">Marine</text><path class="line" d=" M 827.9311956927554,249.02299763324413 A 243.90022851808808,243.90022851808808 0 0 0 780.2217802266016,260.0025069826879"/><line x1="809.2691058559415" y1="101.29734532367308" x2="827.9311956927554" y2="249.02299763324413"/><text x="858.5" y="236.27353898496798" text-anchor="middle" style="font-color:black;font-weight:normal" transform="rotate(347.0400000000001,858.5,491)">Diffuse flow</text><path class="line" d=" M 809.4957014906865,215.3341258381941 A 279.9876701745677,279.9876701745677 0 0 0 768.639746432664,225.82415215823937"/><line x1="789.7509424345116" y1="104.2631293969281" x2="809.4957014906865" y2="215.3341258381941"/><text x="522.1061649127162" y="491" text-anchor="end" style="font-color:black;font-weight:normal" transform="rotate(75.60000000000002,858.5,491)">hydrothermal vent diffuse flow fluid&#160;&#160;&#160;2%</text><path class="line" d=" M 823.4082399388857,213.22011623302222 A 279.9876701745677,279.9876701745677 0 0 0 809.4957014906865,215.3341258381941"/><text x="522.1061649127162" y="491" text-anchor="end" style="font-color:black;font-weight:normal" transform="rotate(81.36000000000003,858.5,491)">Diffuse hydrothermal flow volcanic vent&#160;&#160;&#160;0.8%</text><path class="line" d=" M 876.8722250818005,247.79271635759085 A 243.90022851808808,243.90022851808808 0 0 0 827.9311956927554,249.02299763324413"/><text x="540.1498857409559" y="491" text-anchor="end" style="font-color:black;font-weight:normal" transform="rotate(88.56000000000003,858.5,491)">Hydrothermal Fe-rich mat&#160;&#160;&#160;3%</text><line x1="927.2490575654882" y1="104.2631293969281" x2="893.7323157397544" y2="292.80622082982563"/><path class="line" d=" M 893.7323157397544,292.80622082982563 A 201.3009939720656,201.3009939720656 0 0 0 873.6633608255135,290.27092222944657"/><text x="1155.5504969860328" y="491" text-anchor="start" style="font-color:black;font-weight:normal" transform="rotate(277.2,858.5,491)">2%&#160;&#160;&#160;Unclassified</text><line x1="965.7155202712055" y1="113.1155306009855" x2="913.4454959262368" y2="297.342873481089"/><path class="line" d=" M 913.4454959262368,297.342873481089 A 201.3009939720656,201.3009939720656 0 0 0 893.7323157397544,292.80622082982563"/><text x="1155.5504969860328" y="491" text-anchor="start" style="font-color:black;font-weight:normal" transform="rotate(282.96,858.5,491)">2%&#160;&#160;&#160;beach aquifer porewater</text><path class="line" d=" M 932.6038383609476,303.8350692188407 A 201.3009939720656,201.3009939720656 0 0 0 913.4454959262368,297.342873481089"/><text x="1155.5504969860328" y="491" text-anchor="start" style="font-color:black;font-weight:normal" transform="rotate(288.72,858.5,491)">2%&#160;&#160;&#160;Freshwater</text><path class="line" d=" M 866.0496653728146,641.0693031769454 A 150.25908692407071,150.25908692407071 0 0 0 913.8140591607316,351.2926341869602"/><text x="858.5" y="676.9884218576672" text-anchor="middle" style="font-color:black;font-weight:normal" transform="rotate(279.36,858.5,491)">Terrestrial</text><line x1="1218.0067326054964" y1="649.2616479483266" x2="1042.7389577727497" y2="572.1054659869023"/><path class="line" d=" M 1042.7389577727497,572.1054659869023 A 201.3009939720656,201.3009939720656 0 0 0 932.6038383609476,303.8350692188407"/><text x="858.5" y="276.91923566412765" text-anchor="middle" style="font-color:black;font-weight:normal" transform="rotate(427.68,858.5,491)">Soil</text><path class="line" d=" M 1100.0737680657646,457.3929166144431 A 243.90022851808808,243.90022851808808 0 0 0 948.2856625229118,264.22730262111054"/><line x1="1247.5532480136446" y1="436.8759738190743" x2="1100.0737680657646" y2="457.3929166144431"/><text x="858.5" y="221.8385623223761" text-anchor="middle" style="font-color:black;font-weight:normal" transform="rotate(411.84000000000003,858.5,491)">Unclassified</text><path class="line" d=" M 1117.5102118731766,384.6665358638463 A 279.9876701745677,279.9876701745677 0 0 0 961.5703358402377,230.6740479330516"/><line x1="1221.8703268445752" y1="341.8227712790365" x2="1117.5102118731766" y2="384.6665358638463"/><text x="1194.8938350872838" y="491" text-anchor="start" style="font-color:black;font-weight:normal" transform="rotate(314.64,858.5,491)">13%&#160;&#160;&#160;Soil</text><path class="line" d=" M 1130.5449051664575,424.78319682470544 A 279.9876701745677,279.9876701745677 0 0 0 1117.5102118731766,384.6665358638463"/><line x1="1240.1569446888839" y1="398.1031939690811" x2="1130.5449051664575" y2="424.78319682470544"/><text x="1194.8938350872838" y="491" text-anchor="start" style="font-color:black;font-weight:normal" transform="rotate(342,858.5,491)">2%&#160;&#160;&#160;Natural and restored wetlands</text><path class="line" d=" M 1135.816986978586,452.42041753853186 A 279.9876701745677,279.9876701745677 0 0 0 1130.5449051664575,424.78319682470544"/><text x="1194.8938350872838" y="491" text-anchor="start" style="font-color:black;font-weight:normal" transform="rotate(349.2000000000001,858.5,491)">2%&#160;&#160;&#160;soil</text><path class="line" d=" M 1081.7275311514047,589.2689717419706 A 243.90022851808808,243.90022851808808 0 0 0 1100.0737680657646,457.3929166144431"/><text x="1176.850114259044" y="491" text-anchor="start" style="font-color:black;font-weight:normal" transform="rotate(367.92,858.5,491)">9%&#160;&#160;&#160;Arctic peat soil</text><line x1="1047.7328431871538" y1="835.2132639212296" x2="955.4774934463699" y2="667.4014057171906"/><path class="line" d=" M 955.4774934463699,667.4014057171906 A 201.3009939720656,201.3009939720656 0 0 0 1042.7389577727497,572.1054659869023"/><text x="858.5" y="722.1204581542813" text-anchor="middle" style="font-color:black;font-weight:normal" transform="rotate(312.48,858.5,491)">Unclassified</text><path class="line" d=" M 986.5902122594623,698.5577485773573 A 243.90022851808808,243.90022851808808 0 0 0 1081.7275311514047,589.2689717419706"/><line x1="1064.7885946487968" y1="825.270632448955" x2="986.5902122594623" y2="698.5577485773573"/><text x="1176.850114259044" y="491" text-anchor="start" style="font-color:black;font-weight:normal" transform="rotate(401.03999999999996,858.5,491)">10%&#160;&#160;&#160;Soil</text><path class="line" d=" M 975.999831202837,704.7313995146254 A 243.90022851808808,243.90022851808808 0 0 0 986.5902122594623,698.5577485773573"/><text x="1176.850114259044" y="491" text-anchor="start" style="font-color:black;font-weight:normal" transform="rotate(419.76000000000005,858.5,491)">0.8%&#160;&#160;&#160;Deep subsurface sediment</text><line x1="993.8757402229502" y1="859.7346592864418" x2="927.8769630004684" y2="679.9680586209564"/><path class="line" d=" M 927.8769630004684,679.9680586209564 A 201.3009939720656,201.3009939720656 0 0 0 955.4774934463699,667.4014057171906"/><text x="1155.5504969860328" y="491" text-anchor="start" style="font-color:black;font-weight:normal" transform="rotate(425.52,858.5,491)">2%&#160;&#160;&#160;Terrestrial subsurface fluids</text><line x1="956.1853876783549" y1="871.4594656913264" x2="908.5615214770861" y2="685.9767530797989"/><path class="line" d=" M 908.5615214770861,685.9767530797989 A 201.3009939720656,201.3009939720656 0 0 0 927.8769630004684,679.9680586209564"/><text x="1155.5504969860328" y="491" text-anchor="start" style="font-color:black;font-weight:normal" transform="rotate(432.72,858.5,491)">2%&#160;&#160;&#160;Peat soil</text><line x1="936.9460803460591" y1="875.8870645765321" x2="898.701817583692" y2="688.2457959934993"/><path class="line" d=" M 898.701817583692,688.2457959934993 A 201.3009939720656,201.3009939720656 0 0 0 908.5615214770861,685.9767530797989"/><text x="1155.5504969860328" y="491" text-anchor="start" style="font-color:black;font-weight:normal" transform="rotate(437.03999999999996,858.5,491)">0.8%&#160;&#160;&#160;sediment</text><line x1="917.5086114066333" y1="879.3424053330527" x2="888.7405604100475" y2="690.016578907959"/><path class="line" d=" M 888.7405604100475,690.016578907959 A 201.3009939720656,201.3009939720656 0 0 0 898.701817583692,688.2457959934993"/><text x="1155.5504969860328" y="491" text-anchor="start" style="font-color:black;font-weight:normal" transform="rotate(439.91999999999996,858.5,491)">0.8%&#160;&#160;&#160;Tundra field soil</text><line x1="897.9220815935573" y1="881.8167594702547" x2="878.7029129562907" y2="691.2846286718533"/><path class="line" d=" M 878.7029129562907,691.2846286718533 A 201.3009939720656,201.3009939720656 0 0 0 888.7405604100475,690.016578907959"/><text x="1155.5504969860328" y="491" text-anchor="start" style="font-color:black;font-weight:normal" transform="rotate(442.80000000000007,858.5,491)">0.8%&#160;&#160;&#160;Fracture fluid</text><path class="line" d=" M 868.6142311910363,692.046742081427 A 201.3009939720656,201.3009939720656 0 0 0 878.7029129562907,691.2846286718533"/><text x="1155.5504969860328" y="491" text-anchor="start" style="font-color:black;font-weight:normal" transform="rotate(445.68,858.5,491)">0.8%&#160;&#160;&#160;Soil</text><line x1="858.5000000000001" y1="883.8" x2="858.5" y2="579"/><path class="line" d=" M 858.5,579 A 88,88 0 0 0 862.9214999998197,578.8888521813295"/></svg>